<svg width="74" height="68" viewBox="0 0 74 68" fill="none" xmlns="http://www.w3.org/2000/svg">
<path d="M2.58441 28.5649H14.2064C15.6387 28.5712 16.7971 29.7338 16.7908 31.1597C16.7908 31.1659 16.7908 31.1722 16.7908 31.1785V65.4147C16.7908 66.8374 15.6355 67.9937 14.2064 68H2.58441C1.15527 67.9937 0 66.8374 0 65.4147V31.1785C0 29.7558 1.15527 28.5994 2.58441 28.5931V28.5618V28.5649ZM35.5333 2.85881C36.8995 -4.0229 48.2224 2.31353 48.9716 13.4101C49.1353 17.3587 48.8048 21.3134 47.9895 25.1805H64.1728C70.8998 25.4437 76.7737 30.2415 72.6059 38.1197C73.5503 41.548 73.6951 45.578 71.1296 47.1668C71.4475 52.5632 69.9239 55.9445 67.1255 58.5956C66.9397 61.3063 66.3605 63.7099 65.0479 65.5619C62.8727 68.6142 61.1099 67.8872 57.6881 67.8872H30.3834C26.0519 67.8872 23.691 66.687 20.861 63.1615V32.8613C29.0046 30.6739 33.3329 19.5805 35.5333 12.2945V2.85881Z" fill="#DCDCDC"/>
</svg>
