<svg width="171" height="171" viewBox="0 0 171 171" fill="none" xmlns="http://www.w3.org/2000/svg">
<rect x="0.232422" y="0.806641" width="170.001" height="170.001" rx="85.0006" fill="#03C340"/>
<g clip-path="url(#clip0_545_1701)">
<path d="M104.206 37.5644C102.318 34.7478 93.9506 32.623 83.9091 32.623C73.8677 32.623 65.4999 34.7478 63.612 37.5644H60.8845V93.4128H106.114V37.5644H104.203H104.206Z" fill="#68F394"/>
<path d="M93.1634 90.5972C90.1348 90.9793 86.8427 91.1704 83.5013 91.1704C78.9439 91.1704 67.9006 90.7651 60.8849 87.1641V91.6249L60.6707 91.8159C59.5501 92.7451 59 93.6773 59 94.702C59 99.7591 71.6213 102.477 83.5013 102.477C87.2712 102.477 90.9194 102.214 94.1884 101.739C93.1634 99.5449 92.6133 97.1133 92.6133 94.537C92.6133 93.3444 92.8044 92.0099 93.1605 90.603L93.1634 90.5972Z" fill="white"/>
<path d="M60.6623 46.4397C59.562 47.3544 59.0032 48.3329 59.0032 49.3518C59.0032 54.4002 71.6215 57.1242 83.4958 57.1242C95.37 57.1242 107.991 54.4002 107.991 49.3547C107.991 48.3329 107.43 47.3486 106.318 46.431L106.101 46.2515V41.4723L106.318 41.2928C107.43 40.3723 107.991 39.391 107.991 38.372C107.991 33.3236 95.37 30.5996 83.4958 30.5996C71.6215 30.5996 59.0032 33.3236 59.0032 38.372C59.0032 39.3852 59.562 40.3636 60.6623 41.2783L60.8765 41.4578V46.2602L60.6594 46.4397H60.6623ZM83.4958 33.4336C95.1731 33.4336 103.309 36.036 103.309 38.3691C103.309 40.7023 95.1731 43.3018 83.4958 43.3018C71.8184 43.3018 63.6822 40.7052 63.6822 38.3691C63.6822 36.0331 71.8213 33.4336 83.4958 33.4336Z" fill="white"/>
<path d="M73.4109 40.0855C76.4627 40.0855 78.4867 39.0521 78.4867 38.3689C78.4867 37.6858 76.4627 36.6523 73.4109 36.6523C70.3591 36.6523 68.3352 37.6858 68.3352 38.3689C68.3352 39.0521 70.3591 40.0855 73.4109 40.0855Z" fill="white"/>
<path d="M106.115 66.6752V56.9199C99.102 60.521 88.0558 60.9263 83.4984 60.9263C78.9409 60.9263 67.8977 60.521 60.882 56.9199V76.5261L60.6677 76.694C59.5704 77.6 58.9971 78.5784 58.9971 79.6032C58.9971 84.6603 71.6183 87.3785 83.4984 87.3785C87.3638 87.3785 91.1308 87.0919 94.4721 86.568C97.4313 79.03 103.06 70.7308 105.185 67.7029C105.449 67.3208 105.782 66.9647 106.115 66.6781V66.6752Z" fill="white"/>
<path d="M112.36 63.6115C111.825 62.8617 110.959 62.4102 110.041 62.4102C109.123 62.4102 108.257 62.8588 107.725 63.6115C106.1 65.9099 91.8518 86.3555 91.8518 96.5422C91.8518 106.729 100.014 114.724 110.041 114.724C120.068 114.724 128.227 106.567 128.227 96.5422C128.227 86.5176 113.982 65.9099 112.36 63.6115ZM110.438 107.247C104.253 107.247 99.2236 102.216 99.2236 96.0356C99.2236 94.8372 100.196 93.8645 101.395 93.8645C102.594 93.8645 103.567 94.8372 103.567 96.0356C103.567 99.8219 106.65 102.905 110.438 102.905C111.636 102.905 112.609 103.877 112.609 105.076C112.609 106.274 111.639 107.247 110.438 107.247Z" fill="#68F394"/>
</g>
<defs>
<clipPath id="clip0_545_1701">
<rect width="69.2273" height="84.1243" fill="white" transform="translate(59 30.6016)"/>
</clipPath>
</defs>
</svg>
