<svg width="171" height="170" viewBox="0 0 171 170" fill="none" xmlns="http://www.w3.org/2000/svg">
<rect x="0.910156" width="170.001" height="170.001" rx="85.0006" fill="#03C340"/>
<g clip-path="url(#clip0_545_1711)">
<path d="M102.202 63.707H61.707V100.136H102.202V63.707Z" fill="#68F394"/>
<path d="M106.672 107.279H106.377V78.7479C109.469 78.4384 109.689 80.9903 109.689 80.9903V88.9618C109.689 90.431 109.634 91.9034 109.762 93.3692C109.986 95.9305 110.81 99.3828 112.909 101.093C116.037 103.642 120.234 102.468 122.87 99.8647C124.356 98.3976 125.054 96.2108 125.583 94.2532C126.106 92.3149 126.546 90.2672 126.688 88.2585C126.688 88.2585 127.193 81.145 126.455 74.4183C125.718 67.6916 124.825 61.7764 124.825 61.7764C124.359 57.0599 121.064 48.5196 121.064 48.5196C121.611 48.0559 121.782 47.2555 121.429 46.6007L118.72 41.5732C118.315 40.8201 117.364 40.5349 116.608 40.939L115.496 41.5337L112.604 39.7362C111.883 39.2888 110.996 39.3189 110.316 39.7353L106.377 37.6032V30.9469C106.377 29.3259 105.045 28 103.419 28H61.0033C59.376 28 58.0449 29.3263 58.0449 30.9469V107.279H57.8276M72.0677 91.9388C71.1311 92.4297 70.0834 92.6729 69.0432 92.6762C68.0029 92.6725 66.9548 92.4297 66.0187 91.9388C63.7225 90.7347 62.1291 87.8585 62.6893 85.0232C62.8583 84.1676 63.1776 83.4117 63.5279 82.6355C65.0706 79.629 67.192 77.017 68.5681 73.9014C68.5681 73.9014 68.7048 73.5907 68.8184 73.322L68.8325 73.2891C68.8965 73.1372 68.9502 73.0039 68.963 72.957L68.9808 72.8998L69.0068 72.8154C69.0188 72.7767 69.0684 72.7767 69.0804 72.8154L69.1064 72.8998L69.1241 72.957C69.1361 73.0026 69.1882 73.1319 69.251 73.28L69.2725 73.3319C69.3852 73.5981 69.5191 73.9014 69.5191 73.9014C70.8952 77.017 73.0162 79.629 74.5592 82.6355C74.9096 83.4117 75.2289 84.1676 75.3979 85.0232C75.9581 87.8585 74.3638 90.7347 72.0677 91.9388ZM83.0973 94.6244C83.0973 95.0778 82.7247 95.4491 82.2694 95.4491C81.8141 95.4491 81.4415 95.0778 81.4415 94.6244V69.4434C81.4415 68.9899 81.8141 68.6187 82.2694 68.6187C82.7247 68.6187 83.0973 68.9899 83.0973 69.4434V94.6244ZM100.763 80.5763C100.763 80.7508 100.593 80.9479 100.508 81.0829C100.354 81.3273 100.2 81.5717 100.046 81.8162C99.821 82.1734 99.5963 82.531 99.3712 82.8882C99.0948 83.3273 98.8184 83.7664 98.542 84.2055C98.2338 84.6952 97.9256 85.1845 97.6174 85.6742C97.2973 86.1828 96.9767 86.6919 96.6565 87.2005C96.3438 87.6972 96.031 88.1939 95.7183 88.6911C95.4328 89.1445 95.1474 89.598 94.8619 90.0515C94.6231 90.4306 94.3847 90.8096 94.1459 91.1886C93.9741 91.4618 93.8018 91.7351 93.6299 92.0083C93.4763 92.2523 93.2602 92.7746 92.9206 92.6606C92.5744 92.5445 92.7182 92.1227 92.7508 91.8606C92.802 91.4482 92.8537 91.0363 92.9049 90.624C92.9756 90.0565 93.0466 89.489 93.1173 88.9211C93.1896 88.34 93.2623 87.759 93.3346 87.1775C93.3912 86.7248 93.4473 86.2717 93.5039 85.8191C93.5267 85.6363 93.5494 85.4536 93.5721 85.2709H88.1899C87.9912 85.2709 87.8288 85.1092 87.8288 84.9112V84.8726C87.8288 84.8684 87.8292 84.8643 87.8292 84.8606C87.8284 84.8553 87.8292 84.8479 87.8305 84.8392C87.8305 84.64 87.9928 84.447 88.0908 84.2853C88.2155 84.08 88.3324 83.8697 88.4547 83.6627C88.6852 83.2734 88.9207 82.887 89.1583 82.5014C89.447 82.0327 89.7387 81.5656 90.032 81.0997C90.3559 80.5849 90.6815 80.0713 91.0082 79.5586C91.3441 79.0314 91.6812 78.5051 92.0192 77.9792C92.3443 77.473 92.6702 76.9677 92.997 76.4623C93.2887 76.0109 93.5812 75.5598 93.8741 75.1088C94.11 74.7459 94.3459 74.3829 94.5822 74.0199C94.7392 73.7788 94.8966 73.5376 95.054 73.2969C95.1932 73.0837 95.3366 72.7175 95.6402 72.7961C95.8393 72.8479 95.9079 73.0315 95.8852 73.2125L95.0114 80.1771H100.401C100.6 80.1771 100.763 80.3388 100.763 80.5368V80.5763ZM101.383 55.9262C101.383 57.0385 100.47 57.9488 99.353 57.9488H65.185C64.0683 57.9488 63.1545 57.0385 63.1545 55.9262V36.9687C63.1545 35.8563 64.0683 34.9461 65.185 34.9461H99.353C100.47 34.9461 101.383 35.8563 101.383 36.9687V55.9262ZM114.23 50.5645C114.929 49.8299 117.645 49.8299 117.645 49.8299L119.78 55.9768C119.198 56.1315 116.287 55.9768 116.287 55.9768C114.269 54.0052 113.531 51.2991 114.23 50.5645ZM120.75 96.454C120.281 97.1367 119.703 97.7881 118.972 98.2005C117.974 98.7638 116.403 98.7663 115.502 97.9832C114.283 96.9227 113.909 95.0227 113.686 93.5157C113.606 90.6622 113.526 87.8092 113.446 84.9557C113.402 83.4075 113.37 81.859 113.292 80.3125C113.236 79.2166 112.982 78.2425 112.33 77.3388C111.42 76.0779 109.978 75.359 108.478 75.0549C107.797 74.9166 107.073 74.8323 106.377 74.8821V39.7839L109.299 41.3658C109.227 42.1547 109.59 42.9575 110.307 43.4036L112.544 44.7929C112.544 44.7929 109.417 48.2839 109.96 49.5596C110.504 50.8353 114.424 58.2966 114.424 58.2966C114.424 58.2966 114.773 58.9538 116.015 58.8764C117.257 58.799 120.09 58.3739 120.09 58.3739C120.09 58.3739 122.846 71.4796 122.807 79.6755C122.768 87.8713 122.691 93.6318 120.75 96.454Z" fill="white"/>
<path d="M109.288 107.121H55V113.876H109.288V107.121Z" fill="#68F394"/>
</g>
<defs>
<clipPath id="clip0_545_1711">
<rect width="71.8562" height="85.8769" fill="white" transform="translate(55 28)"/>
</clipPath>
</defs>
</svg>
