<svg width="170" height="171" viewBox="0 0 170 171" fill="none" xmlns="http://www.w3.org/2000/svg">
<rect y="0.806641" width="170.001" height="170.001" rx="85.0006" fill="#03C340"/>
<g clip-path="url(#clip0_545_1695)">
<path d="M94.1995 69.9531H75.3115V88.9767H94.1995V69.9531Z" fill="#68F394"/>
<path d="M98.3766 42.4887C97.4342 41.5396 96.1653 41.0164 94.7999 41.0164H91.5591V35.2777C91.5591 30.7638 87.914 27.0957 83.4354 27.0957H67.8878C63.406 27.0957 59.764 30.767 59.764 35.2777V41.0164H56.7037C53.8765 41.0164 51.5781 43.3313 51.5781 46.1756V107.81C51.5781 110.658 53.8765 112.973 56.7037 112.973H112.534C115.358 112.973 117.656 110.658 117.656 107.81V63.9462C117.656 62.593 117.125 61.2805 116.198 60.347L98.3766 42.4887ZM65.6485 35.2777C65.6485 33.984 66.6966 32.9315 67.9811 32.9315H83.5287C84.8132 32.9315 85.8613 33.984 85.8613 35.2777V41.0164H65.6485V35.2777ZM108.581 103.4C108.118 103.86 107.52 104.114 106.895 104.114C106.27 104.114 105.661 103.857 105.197 103.384L95.7361 93.8582H73.8655L64.4044 103.387C63.941 103.854 63.3376 104.114 62.7063 104.114C62.0749 104.114 61.4715 103.857 61.0081 103.384C60.526 102.902 60.2617 102.234 60.2866 101.558C60.3052 100.925 60.5665 100.355 61.0205 99.9478L70.4661 90.4344V68.5008L61.0081 58.9718C60.526 58.4894 60.2617 57.8222 60.2866 57.1456C60.3052 56.5128 60.5665 55.9427 61.0205 55.5355C61.484 55.075 62.0811 54.8213 62.7063 54.8213C63.3314 54.8213 63.941 55.0781 64.4044 55.5511L73.8655 65.077H95.6428L101.014 59.6704C101.477 59.2005 102.081 58.9405 102.712 58.9405C103.344 58.9405 103.947 59.1974 104.41 59.6704C104.892 60.1528 105.157 60.82 105.132 61.4966C105.11 62.1294 104.852 62.6995 104.398 63.1067L99.0422 68.5008V90.4344L108.491 99.9509C109.01 100.421 109.306 101.082 109.303 101.758C109.303 102.391 109.038 102.986 108.578 103.4H108.581Z" fill="white"/>
<path d="M122.082 47.7359L111.352 36.9289C110.715 36.2867 109.626 36.2867 108.899 36.9289L104.625 41.2329C103.988 41.8751 103.988 42.9714 104.625 43.7044L115.355 54.5115C115.993 55.1537 117.081 55.1537 117.809 54.5115L122.082 50.2075C122.72 49.4745 122.72 48.375 122.082 47.7359Z" fill="#68F394"/>
</g>
<defs>
<clipPath id="clip0_545_1695">
<rect width="70.9799" height="85.8769" fill="white" transform="translate(51.5781 27.0957)"/>
</clipPath>
</defs>
</svg>
