<svg width="171" height="171" viewBox="0 0 171 171" fill="none" xmlns="http://www.w3.org/2000/svg">
<rect x="0.910156" y="0.716797" width="170.001" height="170.001" rx="85.0006" fill="#03C340"/>
<g clip-path="url(#clip0_545_1717)">
<path d="M117.182 82.276C120.941 82.276 123.988 79.2289 123.988 75.47C123.988 71.7112 120.941 68.6641 117.182 68.6641C113.424 68.6641 110.376 71.7112 110.376 75.47C110.376 79.2289 113.424 82.276 117.182 82.276Z" fill="#68F394"/>
<path d="M99.4786 70.1022C103.237 70.1022 106.285 67.0551 106.285 63.2962C106.285 59.5374 103.237 56.4902 99.4786 56.4902C95.7198 56.4902 92.6726 59.5374 92.6726 63.2962C92.6726 67.0551 95.7198 70.1022 99.4786 70.1022Z" fill="white"/>
<path d="M61.1663 80.6276C64.9252 80.6276 67.9723 77.5805 67.9723 73.8216C67.9723 70.0628 64.9252 67.0156 61.1663 67.0156C57.4075 67.0156 54.3604 70.0628 54.3604 73.8216C54.3604 77.5805 57.4075 80.6276 61.1663 80.6276Z" fill="white"/>
<path d="M63.2666 57.2803C65.8654 57.2803 67.9722 55.1735 67.9722 52.5747C67.9722 49.9759 65.8654 47.8691 63.2666 47.8691C60.6678 47.8691 58.561 49.9759 58.561 52.5747C58.561 55.1735 60.6678 57.2803 63.2666 57.2803Z" fill="#68F394"/>
<path d="M71.4395 39.0934C72.5995 39.0934 73.5399 38.153 73.5399 36.993C73.5399 35.833 72.5995 34.8926 71.4395 34.8926C70.2795 34.8926 69.3391 35.833 69.3391 36.993C69.3391 38.153 70.2795 39.0934 71.4395 39.0934Z" fill="white"/>
<path d="M121.811 48.9274C122.971 48.9274 123.912 47.987 123.912 46.827C123.912 45.6669 122.971 44.7266 121.811 44.7266C120.651 44.7266 119.711 45.6669 119.711 46.827C119.711 47.987 120.651 48.9274 121.811 48.9274Z" fill="white"/>
<path d="M44.282 61.4781C45.4421 61.4781 46.3824 60.5378 46.3824 59.3777C46.3824 58.2177 45.4421 57.2773 44.282 57.2773C43.122 57.2773 42.1816 58.2177 42.1816 59.3777C42.1816 60.5378 43.122 61.4781 44.282 61.4781Z" fill="#68F394"/>
<path d="M127.301 63.1049C128.312 60.6637 127.153 57.865 124.712 56.8538C122.271 55.8426 119.472 57.0019 118.461 59.4431C117.45 61.8843 118.609 64.683 121.05 65.6942C123.491 66.7054 126.29 65.5461 127.301 63.1049Z" fill="white"/>
<path d="M108.683 44.3256C109.694 41.8844 108.535 39.0857 106.094 38.0745C103.653 37.0633 100.854 38.2226 99.8429 40.6638C98.8317 43.105 99.9909 45.9037 102.432 46.9149C104.873 47.9261 107.672 46.7668 108.683 44.3256Z" fill="#68F394"/>
<path d="M84.6164 64.1381C85.6275 61.6969 84.4683 58.8982 82.0271 57.887C79.5859 56.8758 76.7872 58.0351 75.776 60.4763C74.7648 62.9175 75.9241 65.7162 78.3653 66.7274C80.8065 67.7386 83.6052 66.5793 84.6164 64.1381Z" fill="#68F394"/>
<path d="M89.1706 46.9762C89.8378 45.3655 89.0729 43.5189 87.4622 42.8517C85.8515 42.1845 84.0049 42.9494 83.3377 44.5601C82.6705 46.1708 83.4354 48.0174 85.0461 48.6846C86.6568 49.3518 88.5034 48.5869 89.1706 46.9762Z" fill="white"/>
<path d="M105.09 86.6025C104.113 86.6025 103.162 86.7231 102.249 86.9324C100.599 79.4345 93.9258 73.8203 85.933 73.8203C76.901 73.8203 69.5607 80.9907 69.2479 89.9464C69.051 89.9365 68.8589 89.9168 68.6594 89.9168C62.5602 89.9168 57.6157 94.8612 57.6157 100.961C57.6157 107.06 62.5602 112.004 68.6594 112.004H105.09C112.105 112.004 117.791 106.316 117.791 99.3034C117.791 92.2905 112.105 86.6 105.09 86.6V86.6025Z" fill="white"/>
</g>
<defs>
<clipPath id="clip0_545_1717">
<rect width="85.4836" height="77.114" fill="white" transform="translate(42.1816 34.8926)"/>
</clipPath>
</defs>
</svg>
