<svg width="72" height="86" viewBox="0 0 72 86" fill="none" xmlns="http://www.w3.org/2000/svg">
<g clip-path="url(#clip0_268_4185)">
<path d="M47.2016 35.707H6.70703V72.1365H47.2016V35.707Z" fill="#68F394"/>
<path d="M51.6719 79.279H51.3769V50.7479C54.4688 50.4384 54.689 52.9903 54.689 52.9903V60.9618C54.689 62.431 54.6336 63.9034 54.7617 65.3692C54.9856 67.9305 55.8098 71.3828 57.9089 73.093C61.0371 75.642 65.2344 74.4675 67.8702 71.8647C69.3558 70.3976 70.0544 68.2108 70.5827 66.2532C71.1058 64.3149 71.5458 62.2672 71.6883 60.2585C71.6883 60.2585 72.1927 53.145 71.4553 46.4183C70.7178 39.6916 69.8251 33.7764 69.8251 33.7764C69.3595 29.0599 66.0636 20.5196 66.0636 20.5196C66.611 20.0559 66.782 19.2555 66.4292 18.6007L63.7203 13.5732C63.3146 12.8201 62.3644 12.5349 61.6084 12.939L60.4963 13.5337L57.6036 11.7362C56.8835 11.2888 55.9961 11.3189 55.3161 11.7353L51.3769 9.60324V2.9469C51.3769 1.32592 50.0454 0 48.4186 0H6.00333C4.37603 0 3.04494 1.32633 3.04494 2.9469V79.279H2.82764M17.0677 63.9388C16.1311 64.4297 15.0834 64.6729 14.0432 64.6762C13.0029 64.6725 11.9548 64.4297 11.0187 63.9388C8.72253 62.7347 7.1291 59.8585 7.6893 57.0232C7.85827 56.1676 8.17762 55.4117 8.52795 54.6355C10.0706 51.629 12.192 49.017 13.5681 45.9014C13.5681 45.9014 13.7048 45.5907 13.8184 45.322L13.8325 45.2891C13.8965 45.1372 13.9502 45.0039 13.963 44.957L13.9808 44.8998L14.0068 44.8154C14.0188 44.7767 14.0684 44.7767 14.0804 44.8154L14.1064 44.8998L14.1241 44.957C14.1361 45.0027 14.1882 45.1319 14.251 45.28L14.2725 45.3319C14.3852 45.5981 14.5191 45.9014 14.5191 45.9014C15.8952 49.017 18.0162 51.629 19.5592 54.6355C19.9096 55.4117 20.2289 56.1676 20.3979 57.0232C20.9581 59.8585 19.3647 62.7347 17.0685 63.9388H17.0677ZM28.0973 66.6244C28.0973 67.0779 27.7247 67.4491 27.2694 67.4491C26.8141 67.4491 26.4415 67.0779 26.4415 66.6244V41.4434C26.4415 40.9899 26.8141 40.6187 27.2694 40.6187C27.7247 40.6187 28.0973 40.9899 28.0973 41.4434V66.6239V66.6244ZM45.7626 52.5763C45.7626 52.7508 45.5928 52.9479 45.5077 53.0829C45.354 53.3273 45.1999 53.5717 45.0462 53.8162C44.8211 54.1734 44.5963 54.531 44.3712 54.8882C44.0948 55.3273 43.8184 55.7664 43.542 56.2055C43.2338 56.6952 42.9256 57.1845 42.6174 57.6742C42.2973 58.1828 41.9767 58.6919 41.6565 59.2005C41.3438 59.6972 41.031 60.1939 40.7183 60.6911C40.4328 61.1445 40.1474 61.598 39.8619 62.0515C39.6231 62.4305 39.3847 62.8096 39.1459 63.1886C38.9741 63.4618 38.8018 63.7351 38.6299 64.0083C38.4763 64.2523 38.2602 64.7746 37.9206 64.6606C37.5744 64.5445 37.7182 64.1227 37.7508 63.8606C37.802 63.4482 37.8537 63.0363 37.9049 62.624C37.9756 62.0565 38.0466 61.489 38.1173 60.9211C38.1896 60.34 38.2623 59.759 38.3346 59.1775C38.3912 58.7248 38.4473 58.2717 38.5039 57.8191C38.5267 57.6363 38.5494 57.4536 38.5721 57.2709H33.1899C32.9912 57.2709 32.8288 57.1092 32.8288 56.9112V56.8726C32.8288 56.8684 32.8292 56.8643 32.8292 56.8606C32.8284 56.8553 32.8292 56.8479 32.8305 56.8392C32.8305 56.64 32.9928 56.447 33.0908 56.2853C33.2155 56.08 33.3324 55.8697 33.4547 55.6627C33.6852 55.2734 33.9207 54.887 34.1583 54.5014C34.4471 54.0326 34.7387 53.5656 35.032 53.0997C35.3559 52.5849 35.6815 52.0713 36.0083 51.5586C36.3441 51.0314 36.6812 50.5051 37.0192 49.9792C37.3443 49.473 37.6703 48.9677 37.997 48.4623C38.2887 48.0109 38.5812 47.5598 38.8741 47.1088C39.11 46.7459 39.3459 46.3829 39.5822 46.0199C39.7392 45.7788 39.8966 45.5376 40.054 45.2969C40.1932 45.0837 40.3366 44.7175 40.6402 44.7961C40.8393 44.8479 40.9079 45.0315 40.8852 45.2125L40.0114 52.1771H45.4015C45.6002 52.1771 45.7626 52.3388 45.7626 52.5368V52.5755V52.5763ZM46.3835 27.9262C46.3835 29.0385 45.4697 29.9488 44.353 29.9488H10.185C9.06832 29.9488 8.15448 29.0385 8.15448 27.9262V8.96868C8.15448 7.85634 9.06832 6.94605 10.185 6.94605H44.353C45.4697 6.94605 46.3835 7.85634 46.3835 8.96868V27.9262ZM59.2301 22.5645C59.9286 21.8299 62.6454 21.8299 62.6454 21.8299L64.78 27.9768C64.1979 28.1315 61.287 27.9768 61.287 27.9768C59.2689 26.0052 58.5315 23.2991 59.2301 22.5645ZM65.7504 68.454C65.2807 69.1367 64.7031 69.7881 63.9719 70.2005C62.9738 70.7638 61.4031 70.7663 60.5025 69.9832C59.2829 68.9227 58.9086 67.0227 58.6864 65.5157C58.6062 62.6622 58.5261 59.8092 58.4455 56.9557C58.4022 55.4075 58.3703 53.859 58.2918 52.3125C58.2361 51.2166 57.9824 50.2425 57.3301 49.3388C56.42 48.0779 54.9778 47.359 53.4781 47.0549C52.7973 46.9166 52.0731 46.8323 51.3769 46.8821V11.7839L54.2994 13.3658C54.2267 14.1547 54.5898 14.9575 55.3074 15.4036L57.5437 16.7929C57.5437 16.7929 54.4171 20.2838 54.9604 21.5596C55.5037 22.8353 59.4238 30.2966 59.4238 30.2966C59.4238 30.2966 59.7733 30.9538 61.0152 30.8764C62.257 30.799 65.0902 30.3739 65.0902 30.3739C65.0902 30.3739 67.8458 43.4796 67.807 51.6755C67.7681 59.8713 67.6905 65.6318 65.75 68.454H65.7504Z" fill="white"/>
<path d="M54.288 79.1211H0V85.8762H54.288V79.1211Z" fill="#68F394"/>
</g>
<defs>
<clipPath id="clip0_268_4185">
<rect width="71.8562" height="85.8769" fill="white"/>
</clipPath>
</defs>
</svg>
