<svg width="1120" height="1069" viewBox="0 0 1120 1069" fill="none" xmlns="http://www.w3.org/2000/svg">
<circle cx="560.25" cy="508.989" r="382.293" transform="rotate(45 560.25 508.989)" stroke="white" stroke-width="2.62889"/>
<path d="M838.237 790.452L819.167 790.255L818.668 772.207" stroke="#03C340" stroke-width="2.62889"/>
<path d="M268.55 239.64L287.62 239.837L288.118 257.885" stroke="#03C340" stroke-width="2.62889"/>
<path d="M834.595 224.408L834.399 243.477L816.35 243.976" stroke="#03C340" stroke-width="2.62889"/>
<path d="M284.843 793.034L285.04 773.964L303.088 773.465" stroke="#03C340" stroke-width="2.62889"/>
<path d="M294.951 662.339C298.709 662.339 301.756 659.291 301.756 655.533C301.756 651.774 298.709 648.727 294.951 648.727C291.192 648.727 288.145 651.774 288.145 655.533C288.145 659.291 291.192 662.339 294.951 662.339Z" fill="#22D65B"/>
<path d="M277.247 650.165C281.006 650.165 284.053 647.118 284.053 643.359C284.053 639.6 281.006 636.553 277.247 636.553C273.488 636.553 270.441 639.6 270.441 643.359C270.441 647.118 273.488 650.165 277.247 650.165Z" fill="white"/>
<path d="M299.58 628.99C300.74 628.99 301.68 628.049 301.68 626.889C301.68 625.729 300.74 624.789 299.58 624.789C298.42 624.789 297.479 625.729 297.479 626.889C297.479 628.049 298.42 628.99 299.58 628.99Z" fill="white"/>
<path d="M305.07 643.167C306.081 640.726 304.922 637.927 302.48 636.916C300.039 635.905 297.241 637.064 296.229 639.506C295.218 641.947 296.377 644.746 298.819 645.757C301.26 646.768 304.059 645.609 305.07 643.167Z" fill="white"/>
<path d="M286.452 624.388C287.463 621.947 286.303 619.148 283.862 618.137C281.421 617.126 278.622 618.285 277.611 620.726C276.6 623.167 277.759 625.966 280.2 626.977C282.642 627.989 285.44 626.829 286.452 624.388Z" fill="#22D65B"/>
<path d="M268.302 662.07C269.313 659.629 268.154 656.83 265.712 655.819C263.271 654.807 260.472 655.967 259.461 658.408C258.45 660.849 259.609 663.648 262.051 664.659C264.492 665.67 267.29 664.511 268.302 662.07Z" fill="#22D65B"/>
<path d="M264.671 634.308C265.339 632.697 264.574 630.851 262.963 630.184C261.352 629.517 259.506 630.281 258.838 631.892C258.171 633.503 258.936 635.349 260.547 636.017C262.158 636.684 264.004 635.919 264.671 634.308Z" fill="white"/>
<path d="M436.034 807.803C439.793 807.803 442.84 804.756 442.84 800.997C442.84 797.239 439.793 794.191 436.034 794.191C432.276 794.191 429.229 797.239 429.229 800.997C429.229 804.756 432.276 807.803 436.034 807.803Z" fill="#22D65B"/>
<path d="M418.33 795.63C422.089 795.63 425.136 792.582 425.136 788.824C425.136 785.065 422.089 782.018 418.33 782.018C414.572 782.018 411.524 785.065 411.524 788.824C411.524 792.582 414.572 795.63 418.33 795.63Z" fill="white"/>
<path d="M440.663 774.455C441.823 774.455 442.764 773.514 442.764 772.354C442.764 771.194 441.823 770.254 440.663 770.254C439.503 770.254 438.563 771.194 438.563 772.354C438.563 773.514 439.503 774.455 440.663 774.455Z" fill="white"/>
<path d="M446.153 788.632C447.164 786.191 446.005 783.392 443.564 782.381C441.123 781.37 438.324 782.529 437.313 784.97C436.302 787.412 437.461 790.21 439.902 791.222C442.343 792.233 445.142 791.073 446.153 788.632Z" fill="white"/>
<path d="M427.535 769.855C428.546 767.414 427.387 764.615 424.946 763.604C422.505 762.593 419.706 763.752 418.695 766.193C417.683 768.634 418.843 771.433 421.284 772.444C423.725 773.455 426.524 772.296 427.535 769.855Z" fill="#22D65B"/>
<path d="M409.386 807.058C410.397 804.617 409.238 801.818 406.796 800.807C404.355 799.796 401.556 800.955 400.545 803.396C399.534 805.837 400.693 808.636 403.135 809.647C405.576 810.658 408.374 809.499 409.386 807.058Z" fill="#22D65B"/>
<path d="M405.755 779.773C406.422 778.162 405.658 776.316 404.047 775.649C402.436 774.981 400.59 775.746 399.922 777.357C399.255 778.968 400.02 780.814 401.631 781.481C403.242 782.149 405.088 781.384 405.755 779.773Z" fill="white"/>
<path d="M712.401 780.219C711.59 780.219 710.801 780.318 710.042 780.491C708.673 774.297 703.134 769.658 696.499 769.658C689.002 769.658 682.91 775.582 682.65 782.981C682.486 782.973 682.327 782.957 682.162 782.957C677.099 782.957 672.995 787.042 672.995 792.081C672.995 797.12 677.099 801.205 682.162 801.205H712.401C718.224 801.205 722.943 796.505 722.943 790.712C722.943 784.918 718.224 780.216 712.401 780.216V780.219Z" fill="#21D65B"/>
<path d="M856.99 642.64C856.178 642.64 855.39 642.74 854.631 642.913C853.262 636.718 847.723 632.08 841.088 632.08C833.591 632.08 827.498 638.004 827.239 645.403C827.075 645.395 826.916 645.379 826.75 645.379C821.688 645.379 817.583 649.464 817.583 654.503C817.583 659.542 821.688 663.627 826.75 663.627H856.99C862.813 663.627 867.532 658.927 867.532 653.134C867.532 647.34 862.813 642.638 856.99 642.638V642.64Z" fill="#21D65B"/>
<g clip-path="url(#clip0_237_3731)">
<path d="M681.824 217.35C685.281 216.136 687.1 212.348 685.888 208.889C684.675 205.429 680.889 203.609 677.432 204.822C673.975 206.036 672.156 209.824 673.369 213.283C674.581 216.743 678.367 218.563 681.824 217.35Z" fill="#22D65B"/>
<path d="M696.283 217.331C699.728 216.083 701.51 212.277 700.263 208.83C699.016 205.383 695.212 203.6 691.768 204.848C688.323 206.096 686.541 209.902 687.788 213.349C689.035 216.796 692.839 218.579 696.283 217.331Z" fill="white"/>
<path d="M711.297 217.069C714.599 215.481 715.989 211.515 714.402 208.21C712.815 204.906 708.852 203.515 705.55 205.103C702.248 206.691 700.858 210.657 702.445 213.961C704.032 217.266 707.995 218.657 711.297 217.069Z" fill="#22D65B"/>
<path d="M681.33 231.02C684.871 230.08 686.979 226.445 686.039 222.901C685.099 219.358 681.466 217.248 677.925 218.189C674.385 219.13 672.276 222.765 673.216 226.308C674.157 229.852 677.789 231.961 681.33 231.02Z" fill="white"/>
<path d="M696.899 230.586C700.201 228.998 701.591 225.032 700.004 221.728C698.417 218.424 694.454 217.033 691.152 218.621C687.85 220.209 686.46 224.175 688.047 227.479C689.634 230.783 693.597 232.174 696.899 230.586Z" fill="#22D65B"/>
<path d="M710.68 230.847C714.125 229.599 715.907 225.793 714.66 222.346C713.413 218.899 709.609 217.116 706.165 218.364C702.72 219.611 700.938 223.418 702.185 226.865C703.432 230.312 707.236 232.095 710.68 230.847Z" fill="white"/>
<path d="M681.33 244.536C684.871 243.595 686.979 239.96 686.039 236.417C685.099 232.874 681.466 230.764 677.925 231.705C674.385 232.646 672.276 236.281 673.216 239.824C674.157 243.367 677.789 245.477 681.33 244.536Z" fill="#22D65B"/>
<path d="M696.9 244.104C700.202 242.516 701.592 238.55 700.005 235.246C698.418 231.941 694.455 230.55 691.153 232.138C687.851 233.726 686.461 237.692 688.048 240.997C689.635 244.301 693.598 245.692 696.9 244.104Z" fill="white"/>
<path d="M710.681 244.364C714.126 243.117 715.907 239.311 714.66 235.863C713.413 232.416 709.61 230.633 706.165 231.881C702.72 233.129 700.939 236.935 702.186 240.382C703.433 243.829 707.236 245.612 710.681 244.364Z" fill="#22D65B"/>
</g>
<g clip-path="url(#clip1_237_3731)">
<path d="M762.443 276.061C765.901 274.847 767.72 271.059 766.507 267.6C765.295 264.14 761.509 262.32 758.052 263.533C754.595 264.747 752.776 268.535 753.988 271.994C755.201 275.454 758.986 277.274 762.443 276.061Z" fill="#22D65B"/>
<path d="M776.903 276.042C780.347 274.794 782.129 270.988 780.882 267.541C779.635 264.094 775.832 262.311 772.387 263.559C768.942 264.807 767.16 268.613 768.407 272.06C769.654 275.507 773.458 277.29 776.903 276.042Z" fill="white"/>
<path d="M791.916 275.782C795.218 274.194 796.609 270.227 795.022 266.923C793.434 263.619 789.471 262.228 786.169 263.816C782.867 265.404 781.477 269.37 783.064 272.674C784.651 275.978 788.614 277.37 791.916 275.782Z" fill="#22D65B"/>
<path d="M761.949 289.731C765.49 288.791 767.598 285.156 766.658 281.612C765.718 278.069 762.085 275.959 758.545 276.9C755.004 277.841 752.895 281.476 753.836 285.019C754.776 288.562 758.408 290.672 761.949 289.731Z" fill="white"/>
<path d="M777.518 289.299C780.82 287.711 782.211 283.745 780.624 280.441C779.037 277.137 775.073 275.745 771.771 277.333C768.469 278.922 767.079 282.888 768.666 286.192C770.253 289.496 774.216 290.887 777.518 289.299Z" fill="#22D65B"/>
<path d="M791.3 289.558C794.744 288.31 796.526 284.504 795.279 281.057C794.032 277.61 790.229 275.827 786.784 277.075C783.339 278.322 781.557 282.128 782.804 285.576C784.051 289.023 787.855 290.806 791.3 289.558Z" fill="white"/>
<path d="M761.949 303.247C765.49 302.306 767.598 298.671 766.658 295.128C765.718 291.585 762.085 289.475 758.545 290.416C755.004 291.356 752.895 294.992 753.836 298.535C754.776 302.078 758.408 304.188 761.949 303.247Z" fill="#22D65B"/>
<path d="M777.519 302.815C780.821 301.227 782.212 297.261 780.625 293.956C779.038 290.652 775.074 289.261 771.772 290.849C768.47 292.437 767.08 296.403 768.667 299.707C770.254 303.012 774.217 304.403 777.519 302.815Z" fill="white"/>
<path d="M791.3 303.075C794.745 301.828 796.527 298.021 795.28 294.574C794.033 291.127 790.229 289.344 786.784 290.592C783.339 291.84 781.558 295.646 782.805 299.093C784.052 302.54 787.855 304.323 791.3 303.075Z" fill="#22D65B"/>
</g>
<g clip-path="url(#clip2_237_3731)">
<path d="M832.547 348.793C836.004 347.58 837.823 343.792 836.611 340.332C835.398 336.873 831.613 335.052 828.156 336.266C824.698 337.479 822.879 341.267 824.092 344.727C825.304 348.186 829.09 350.007 832.547 348.793Z" fill="#22D65B"/>
<path d="M847.006 348.775C850.451 347.527 852.233 343.721 850.986 340.274C849.739 336.826 845.935 335.043 842.49 336.291C839.045 337.539 837.264 341.345 838.511 344.792C839.758 348.24 843.561 350.022 847.006 348.775Z" fill="white"/>
<path d="M862.02 348.514C865.322 346.926 866.712 342.96 865.125 339.656C863.538 336.351 859.575 334.96 856.273 336.548C852.971 338.136 851.58 342.102 853.167 345.407C854.754 348.711 858.718 350.102 862.02 348.514Z" fill="#22D65B"/>
<path d="M832.053 362.464C835.594 361.523 837.702 357.888 836.762 354.345C835.822 350.801 832.189 348.692 828.648 349.632C825.107 350.573 822.999 354.208 823.939 357.752C824.879 361.295 828.512 363.405 832.053 362.464Z" fill="white"/>
<path d="M847.622 362.032C850.924 360.444 852.314 356.477 850.727 353.173C849.14 349.869 845.177 348.478 841.875 350.066C838.573 351.654 837.183 355.62 838.77 358.924C840.357 362.228 844.32 363.62 847.622 362.032Z" fill="#22D65B"/>
<path d="M861.404 362.29C864.848 361.042 866.63 357.236 865.383 353.789C864.136 350.342 860.333 348.559 856.888 349.807C853.443 351.055 851.661 354.861 852.908 358.308C854.155 361.755 857.959 363.538 861.404 362.29Z" fill="white"/>
<path d="M832.053 375.979C835.594 375.039 837.702 371.404 836.762 367.86C835.822 364.317 832.189 362.207 828.648 363.148C825.107 364.089 822.999 367.724 823.939 371.267C824.879 374.811 828.512 376.92 832.053 375.979Z" fill="#22D65B"/>
<path d="M847.623 375.547C850.925 373.959 852.315 369.993 850.728 366.689C849.141 363.385 845.178 361.993 841.876 363.582C838.574 365.17 837.183 369.136 838.771 372.44C840.358 375.744 844.321 377.135 847.623 375.547Z" fill="white"/>
<path d="M861.404 375.808C864.848 374.56 866.63 370.754 865.383 367.307C864.136 363.86 860.333 362.077 856.888 363.325C853.443 364.572 851.661 368.378 852.908 371.826C854.155 375.273 857.959 377.056 861.404 375.808Z" fill="#22D65B"/>
</g>
<g clip-path="url(#clip3_237_3731)" filter="url(#filter0_d_237_3731)">
<path d="M358.044 747.339C361.803 747.339 364.85 744.291 364.85 740.533C364.85 736.774 361.803 733.727 358.044 733.727C354.285 733.727 351.238 736.774 351.238 740.533C351.238 744.291 354.285 747.339 358.044 747.339Z" fill="#22D65B"/>
<path d="M340.34 735.165C344.099 735.165 347.146 732.118 347.146 728.359C347.146 724.6 344.099 721.553 340.34 721.553C336.581 721.553 333.534 724.6 333.534 728.359C333.534 732.118 336.581 735.165 340.34 735.165Z" fill="white"/>
<path d="M362.673 713.992C363.833 713.992 364.774 713.051 364.774 711.891C364.774 710.731 363.833 709.791 362.673 709.791C361.513 709.791 360.573 710.731 360.573 711.891C360.573 713.051 361.513 713.992 362.673 713.992Z" fill="white"/>
<path d="M368.163 728.167C369.174 725.726 368.015 722.927 365.574 721.916C363.132 720.905 360.334 722.064 359.323 724.506C358.311 726.947 359.471 729.746 361.912 730.757C364.353 731.768 367.152 730.609 368.163 728.167Z" fill="white"/>
<path d="M349.545 709.39C350.556 706.949 349.397 704.15 346.956 703.139C344.514 702.128 341.716 703.287 340.704 705.728C339.693 708.169 340.853 710.968 343.294 711.979C345.735 712.991 348.534 711.831 349.545 709.39Z" fill="#22D65B"/>
<path d="M331.395 746.595C332.406 744.154 331.247 741.355 328.806 740.344C326.364 739.333 323.566 740.492 322.555 742.933C321.543 745.375 322.703 748.173 325.144 749.184C327.585 750.196 330.384 749.036 331.395 746.595Z" fill="#22D65B"/>
<path d="M327.765 719.308C328.432 717.697 327.667 715.851 326.056 715.184C324.445 714.517 322.599 715.281 321.932 716.892C321.264 718.503 322.029 720.349 323.64 721.017C325.251 721.684 327.097 720.919 327.765 719.308Z" fill="white"/>
<path d="M799.154 718.879C798.343 718.879 797.554 718.978 796.795 719.151C795.426 712.957 789.887 708.318 783.252 708.318C775.755 708.318 769.663 714.242 769.403 721.641C769.239 721.633 769.08 721.617 768.914 721.617C763.852 721.617 759.748 725.702 759.748 730.741C759.748 735.78 763.852 739.865 768.914 739.865H799.154C804.977 739.865 809.696 735.166 809.696 729.372C809.696 723.578 804.977 718.877 799.154 718.877V718.879Z" fill="#21D65B"/>
</g>
<g clip-path="url(#clip4_237_3731)">
<path d="M267.693 414.044C265.663 415.103 263.391 415.628 261.136 415.635C258.88 415.627 256.608 415.103 254.578 414.044C249.6 411.444 246.145 405.236 247.36 399.116C247.726 397.269 248.418 395.637 249.178 393.961C252.523 387.47 257.122 381.832 260.106 375.106C260.106 375.106 260.402 374.436 260.649 373.855L260.679 373.784C260.818 373.457 260.934 373.169 260.962 373.067L261.001 372.944L261.057 372.762C261.083 372.678 261.19 372.678 261.216 372.762L261.273 372.944L261.311 373.067C261.337 373.166 261.45 373.445 261.586 373.765L261.633 373.877C261.877 374.451 262.168 375.106 262.168 375.106C265.151 381.832 269.75 387.47 273.095 393.961C273.855 395.636 274.547 397.268 274.914 399.115C276.128 405.236 272.674 411.444 267.695 414.044H267.693Z" fill="#22D65B"/>
</g>
<g clip-path="url(#clip5_237_3731)">
<path d="M314.137 331.672C312.106 332.732 309.835 333.257 307.579 333.264C305.324 333.256 303.051 332.732 301.022 331.672C296.043 329.073 292.588 322.864 293.803 316.745C294.169 314.898 294.862 313.266 295.621 311.59C298.966 305.099 303.565 299.461 306.549 292.735C306.549 292.735 306.846 292.064 307.092 291.484L307.122 291.413C307.261 291.085 307.378 290.798 307.405 290.696L307.444 290.573L307.5 290.391C307.526 290.307 307.634 290.307 307.66 290.391L307.716 290.573L307.755 290.696C307.781 290.795 307.894 291.074 308.03 291.394L308.076 291.506C308.321 292.08 308.611 292.735 308.611 292.735C311.595 299.461 316.193 305.099 319.539 311.589C320.298 313.265 320.991 314.897 321.357 316.744C322.572 322.864 319.117 329.073 314.139 331.672H314.137Z" fill="#22D65B"/>
</g>
<g clip-path="url(#clip6_237_3731)">
<path d="M396.138 254.557C394.107 255.617 391.836 256.142 389.58 256.149C387.325 256.141 385.052 255.617 383.023 254.557C378.044 251.958 374.589 245.749 375.804 239.629C376.17 237.782 376.863 236.151 377.622 234.475C380.967 227.984 385.566 222.346 388.55 215.62C388.55 215.62 388.847 214.949 389.093 214.369L389.123 214.298C389.262 213.97 389.379 213.682 389.406 213.581L389.445 213.458L389.501 213.276C389.527 213.192 389.635 213.192 389.661 213.276L389.717 213.458L389.756 213.581C389.782 213.68 389.895 213.959 390.031 214.278L390.077 214.39C390.322 214.965 390.612 215.62 390.612 215.62C393.596 222.346 398.194 227.984 401.54 234.474C402.299 236.15 402.992 237.782 403.358 239.628C404.573 245.749 401.118 251.958 396.14 254.557H396.138Z" fill="#22D65B"/>
</g>
<defs>
<filter id="filter0_d_237_3731" x="308.38" y="259.654" width="504.02" height="504.02" filterUnits="userSpaceOnUse" color-interpolation-filters="sRGB">
<feFlood flood-opacity="0" result="BackgroundImageFix"/>
<feColorMatrix in="SourceAlpha" type="matrix" values="0 0 0 0 0 0 0 0 0 0 0 0 0 0 0 0 0 0 127 0" result="hardAlpha"/>
<feOffset dy="2.70423"/>
<feGaussianBlur stdDeviation="1.35212"/>
<feComposite in2="hardAlpha" operator="out"/>
<feColorMatrix type="matrix" values="0 0 0 0 0 0 0 0 0 0 0 0 0 0 0 0 0 0 0.25 0"/>
<feBlend mode="normal" in2="BackgroundImageFix" result="effect1_dropShadow_237_3731"/>
<feBlend mode="normal" in="SourceGraphic" in2="effect1_dropShadow_237_3731" result="shape"/>
</filter>
<clipPath id="clip0_237_3731">
<rect width="42.0622" height="40.3096" fill="white" transform="translate(672.995 204.449)"/>
</clipPath>
<clipPath id="clip1_237_3731">
<rect width="42.0622" height="40.3096" fill="white" transform="translate(753.614 263.16)"/>
</clipPath>
<clipPath id="clip2_237_3731">
<rect width="42.0622" height="40.3096" fill="white" transform="translate(823.717 335.893)"/>
</clipPath>
<clipPath id="clip3_237_3731">
<rect width="498.612" height="498.612" fill="white" transform="translate(311.084 259.654)"/>
</clipPath>
<clipPath id="clip4_237_3731">
<rect width="28.0414" height="42.9385" fill="white" transform="translate(247.115 372.697)"/>
</clipPath>
<clipPath id="clip5_237_3731">
<rect width="28.0414" height="42.9385" fill="white" transform="translate(293.559 290.326)"/>
</clipPath>
<clipPath id="clip6_237_3731">
<rect width="28.0414" height="42.9385" fill="white" transform="translate(375.56 213.211)"/>
</clipPath>
</defs>
</svg>
