<svg width="70" height="86" viewBox="0 0 70 86" fill="none" xmlns="http://www.w3.org/2000/svg">
<g clip-path="url(#clip0_268_4197)">
<path d="M45.4238 7.90423C43.536 5.08764 35.1681 2.96289 25.1267 2.96289C15.0852 2.96289 6.7174 5.08764 4.82957 7.90423H2.10205V63.7527H47.3319V7.90423H45.4209H45.4238Z" fill="#68F394"/>
<path d="M34.3807 60.9371C31.3521 61.3192 28.0599 61.5102 24.7186 61.5102C20.1611 61.5102 9.1179 61.105 2.10222 57.5039V61.9647L1.88796 62.1558C0.767421 63.085 0.217285 64.0171 0.217285 65.0418C0.217285 70.099 12.8386 72.8171 24.7186 72.8171C28.4885 72.8171 32.1367 72.5537 35.4057 72.079C34.3807 69.8848 33.8306 67.4532 33.8306 64.8768C33.8306 63.6842 34.0217 62.3497 34.3778 60.9429L34.3807 60.9371Z" fill="white"/>
<path d="M1.87931 16.7795C0.779037 17.6943 0.220215 18.6727 0.220215 19.6916C0.220215 24.7401 12.8386 27.4641 24.7128 27.4641C36.5871 27.4641 49.2083 24.7401 49.2083 19.6945C49.2083 18.6727 48.6466 17.6885 47.5348 16.7708L47.3176 16.5914V11.8121L47.5348 11.6327C48.6466 10.7121 49.2083 9.73081 49.2083 8.71186C49.2083 3.66341 36.5871 0.939453 24.7128 0.939453C12.8386 0.939453 0.220215 3.66341 0.220215 8.71186C0.220215 9.72502 0.779037 10.7034 1.87931 11.6182L2.09357 11.7977V16.6001L1.87641 16.7795H1.87931ZM24.7128 3.77341C36.3902 3.77341 44.5264 6.37579 44.5264 8.70896C44.5264 11.0421 36.3902 13.6416 24.7128 13.6416C13.0355 13.6416 4.89926 11.045 4.89926 8.70896C4.89926 6.3729 13.0384 3.77341 24.7128 3.77341Z" fill="white"/>
<path d="M14.628 10.4254C17.6798 10.4254 19.7037 9.39194 19.7037 8.70877C19.7037 8.02561 17.6798 6.99219 14.628 6.99219C11.5762 6.99219 9.55225 8.02561 9.55225 8.70877C9.55225 9.39194 11.5762 10.4254 14.628 10.4254Z" fill="white"/>
<path d="M47.332 37.0151V27.2598C40.3192 30.8608 29.2731 31.2661 24.7157 31.2661C20.1582 31.2661 9.11497 30.8608 2.09929 27.2598V46.8659L1.88503 47.0338C0.787655 47.9399 0.214355 48.9183 0.214355 49.943C0.214355 55.0002 12.8356 57.7183 24.7157 57.7183C28.5811 57.7183 32.3481 57.4317 35.6894 56.9078C38.6486 49.3699 44.2773 41.0706 46.4026 38.0427C46.6661 37.6606 46.999 37.3046 47.332 37.018V37.0151Z" fill="white"/>
<path d="M53.5773 33.9513C53.0417 33.2016 52.1759 32.75 51.2581 32.75C50.3402 32.75 49.4745 33.1987 48.9417 33.9513C47.3174 36.2498 33.0688 56.6954 33.0688 66.882C33.0688 77.0686 41.2311 85.0639 51.2581 85.0639C61.285 85.0639 69.4444 76.9065 69.4444 66.882C69.4444 56.8575 55.1988 36.2498 53.5773 33.9513ZM51.6547 77.5868C45.4701 77.5868 40.4407 72.5557 40.4407 66.3754C40.4407 65.177 41.4135 64.2044 42.6123 64.2044C43.811 64.2044 44.7838 65.177 44.7838 66.3754C44.7838 70.1618 47.8675 73.2447 51.6547 73.2447C52.8535 73.2447 53.8263 74.2173 53.8263 75.4157C53.8263 76.6142 52.8564 77.5868 51.6547 77.5868Z" fill="#68F394"/>
</g>
<defs>
<clipPath id="clip0_268_4197">
<rect width="69.2273" height="84.1243" fill="white" transform="translate(0.217285 0.941406)"/>
</clipPath>
</defs>
</svg>
