<svg width="72" height="87" viewBox="0 0 72 87" fill="none" xmlns="http://www.w3.org/2000/svg">
<g clip-path="url(#clip0_268_4206)">
<path d="M42.7298 43.293H23.8418V62.3165H42.7298V43.293Z" fill="#68F394"/>
<path d="M46.9069 15.8286C45.9645 14.8794 44.6955 14.3563 43.3302 14.3563H40.0894V8.61758C40.0894 4.10368 36.4443 0.435547 31.9657 0.435547H16.418C11.9363 0.435547 8.29432 4.10681 8.29432 8.61758V14.3563H5.23393C2.4068 14.3563 0.108398 16.6712 0.108398 19.5155V81.1502C0.108398 83.9976 2.4068 86.3125 5.23393 86.3125H61.0643C63.8883 86.3125 66.1867 83.9976 66.1867 81.1502V37.286C66.1867 35.9328 65.6549 34.6203 64.728 33.6868L46.9069 15.8286ZM14.1787 8.61758C14.1787 7.32387 15.2269 6.27136 16.5113 6.27136H32.059C33.3435 6.27136 34.3916 7.32387 34.3916 8.61758V14.3563H14.1787V8.61758ZM57.1113 76.7396C56.6479 77.2001 56.0507 77.4538 55.4256 77.4538C54.8004 77.4538 54.1908 77.197 53.7274 76.724L44.2663 67.1981H22.3958L12.9347 76.7271C12.4713 77.1938 11.8679 77.4538 11.2365 77.4538C10.6052 77.4538 10.0018 77.197 9.53838 76.724C9.05631 76.2416 8.79195 75.5743 8.81683 74.8977C8.83549 74.265 9.09674 73.6949 9.55082 73.2876L18.9964 63.7743V41.8407L9.53838 32.3117C9.05631 31.8293 8.79195 31.162 8.81683 30.4854C8.83549 29.8527 9.09674 29.2826 9.55082 28.8753C10.0142 28.4149 10.6114 28.1611 11.2365 28.1611C11.8617 28.1611 12.4713 28.418 12.9347 28.891L22.3958 38.4169H44.173L49.5443 33.0102C50.0077 32.5403 50.6111 32.2803 51.2424 32.2803C51.8738 32.2803 52.4771 32.5372 52.9406 33.0102C53.4226 33.4926 53.687 34.1598 53.6621 34.8364C53.6404 35.4692 53.3822 36.0393 52.9281 36.4465L47.5724 41.8407V63.7743L57.0211 73.2908C57.5405 73.7606 57.8359 74.4216 57.8328 75.0982C57.8328 75.731 57.5685 76.3261 57.1082 76.7396H57.1113Z" fill="white"/>
<path d="M70.6127 21.0758L59.8827 10.2687C59.2451 9.62657 58.1566 9.62657 57.4288 10.2687L53.1554 14.5728C52.5179 15.2149 52.5179 16.3113 53.1554 17.0443L63.8855 27.8513C64.523 28.4935 65.6116 28.4935 66.3394 27.8513L70.6127 23.5473C71.2503 22.8143 71.2503 21.7148 70.6127 21.0758Z" fill="#68F394"/>
</g>
<defs>
<clipPath id="clip0_268_4206">
<rect width="70.9799" height="85.8769" fill="white" transform="translate(0.108398 0.435547)"/>
</clipPath>
</defs>
</svg>
