<svg width="87" height="78" viewBox="0 0 87 78" fill="none" xmlns="http://www.w3.org/2000/svg">
<g clip-path="url(#clip0_268_4212)">
<path d="M75.7127 47.6159C79.4716 47.6159 82.5187 44.5687 82.5187 40.8099C82.5187 37.051 79.4716 34.0039 75.7127 34.0039C71.9539 34.0039 68.9067 37.051 68.9067 40.8099C68.9067 44.5687 71.9539 47.6159 75.7127 47.6159Z" fill="#68F394"/>
<path d="M58.0086 35.442C61.7675 35.442 64.8146 32.3949 64.8146 28.6361C64.8146 24.8772 61.7675 21.8301 58.0086 21.8301C54.2498 21.8301 51.2026 24.8772 51.2026 28.6361C51.2026 32.3949 54.2498 35.442 58.0086 35.442Z" fill="white"/>
<path d="M19.6966 45.9674C23.4555 45.9674 26.5026 42.9203 26.5026 39.1615C26.5026 35.4026 23.4555 32.3555 19.6966 32.3555C15.9378 32.3555 12.8906 35.4026 12.8906 39.1615C12.8906 42.9203 15.9378 45.9674 19.6966 45.9674Z" fill="white"/>
<path d="M21.7969 22.6202C24.3957 22.6202 26.5025 20.5134 26.5025 17.9146C26.5025 15.3157 24.3957 13.209 21.7969 13.209C19.1981 13.209 17.0913 15.3157 17.0913 17.9146C17.0913 20.5134 19.1981 22.6202 21.7969 22.6202Z" fill="#68F394"/>
<path d="M29.9695 4.43322C31.1296 4.43322 32.0699 3.49284 32.0699 2.33282C32.0699 1.1728 31.1296 0.232422 29.9695 0.232422C28.8095 0.232422 27.8691 1.1728 27.8691 2.33282C27.8691 3.49284 28.8095 4.43322 29.9695 4.43322Z" fill="white"/>
<path d="M80.3416 14.2672C81.5016 14.2672 82.442 13.3268 82.442 12.1668C82.442 11.0068 81.5016 10.0664 80.3416 10.0664C79.1816 10.0664 78.2412 11.0068 78.2412 12.1668C78.2412 13.3268 79.1816 14.2672 80.3416 14.2672Z" fill="white"/>
<path d="M2.81231 26.818C3.97233 26.818 4.91271 25.8776 4.91271 24.7176C4.91271 23.5576 3.97233 22.6172 2.81231 22.6172C1.65229 22.6172 0.711914 23.5576 0.711914 24.7176C0.711914 25.8776 1.65229 26.818 2.81231 26.818Z" fill="#68F394"/>
<path d="M85.8314 28.4447C86.8426 26.0035 85.6834 23.2048 83.2422 22.1936C80.801 21.1825 78.0022 22.3417 76.9911 24.7829C75.9799 27.2241 77.1391 30.0228 79.5803 31.034C82.0216 32.0452 84.8203 30.8859 85.8314 28.4447Z" fill="white"/>
<path d="M67.2138 9.66544C68.2249 7.22424 67.0657 4.42553 64.6245 3.41435C62.1833 2.40317 59.3846 3.56243 58.3734 6.00364C57.3622 8.44484 58.5215 11.2436 60.9627 12.2547C63.4039 13.2659 66.2026 12.1066 67.2138 9.66544Z" fill="#68F394"/>
<path d="M43.1469 29.4779C44.1581 27.0367 42.9988 24.238 40.5576 23.2268C38.1164 22.2157 35.3177 23.3749 34.3065 25.8161C33.2953 28.2573 34.4546 31.0561 36.8958 32.0672C39.337 33.0784 42.1357 31.9191 43.1469 29.4779Z" fill="#68F394"/>
<path d="M47.7006 12.316C48.3678 10.7053 47.6029 8.8587 45.9922 8.19152C44.3815 7.52434 42.5349 8.28923 41.8677 9.89994C41.2005 11.5107 41.9654 13.3573 43.5761 14.0244C45.1868 14.6916 47.0334 13.9267 47.7006 12.316Z" fill="white"/>
<path d="M63.6204 51.9423C62.6429 51.9423 61.6924 52.063 60.7789 52.2723C59.1291 44.7744 52.4561 39.1602 44.4632 39.1602C35.4313 39.1602 28.0909 46.3306 27.7782 55.2862C27.5812 55.2764 27.3892 55.2567 27.1897 55.2567C21.0904 55.2567 16.146 60.2011 16.146 66.3004C16.146 72.3997 21.0904 77.3441 27.1897 77.3441H63.6204C70.6357 77.3441 76.3213 71.656 76.3213 64.6432C76.3213 57.6304 70.6357 51.9398 63.6204 51.9398V51.9423Z" fill="white"/>
</g>
<defs>
<clipPath id="clip0_268_4212">
<rect width="85.4836" height="77.114" fill="white" transform="translate(0.711914 0.232422)"/>
</clipPath>
</defs>
</svg>
