<svg width="43" height="42" viewBox="0 0 43 42" fill="none" xmlns="http://www.w3.org/2000/svg">
<g clip-path="url(#clip0_268_4310)">
<path d="M8.83849 13.8401C12.2955 12.6266 14.115 8.83849 12.9023 5.37909C11.6896 1.9197 7.90406 0.0990419 4.44702 1.31254C0.989984 2.52603 -0.829436 6.31416 0.383234 9.77355C1.5959 13.2329 5.38145 15.0536 8.83849 13.8401Z" fill="#22D65B"/>
<path d="M23.2981 13.8215C26.7429 12.5736 28.5246 8.76755 27.2776 5.3204C26.0306 1.87326 22.2271 0.0903729 18.7823 1.33822C15.3375 2.58607 13.5558 6.39212 14.8028 9.83927C16.0498 13.2864 19.8533 15.0693 23.2981 13.8215Z" fill="white"/>
<path d="M38.3118 13.5589C41.6138 11.9708 43.004 8.00484 41.417 4.70061C39.83 1.39638 35.8667 0.00517332 32.5647 1.59326C29.2627 3.18135 27.8725 7.14736 29.4595 10.4516C31.0465 13.7558 35.0098 15.147 38.3118 13.5589Z" fill="#22D65B"/>
<path d="M8.34477 27.5107C11.8856 26.5699 13.9939 22.9348 13.0538 19.3915C12.1136 15.8482 8.481 13.7385 4.94012 14.6793C1.39925 15.6201 -0.709035 19.2552 0.231133 22.7985C1.1713 26.3418 4.8039 28.4515 8.34477 27.5107Z" fill="white"/>
<path d="M23.9138 27.0765C27.2158 25.4884 28.6061 21.5224 27.0191 18.2182C25.4321 14.914 21.4687 13.5228 18.1668 15.1108C14.8648 16.6989 13.4745 20.6649 15.0615 23.9692C16.6485 27.2734 20.6118 28.6646 23.9138 27.0765Z" fill="#22D65B"/>
<path d="M37.6951 27.3371C41.1399 26.0892 42.9215 22.2832 41.6745 18.836C40.4275 15.3889 36.6241 13.606 33.1793 14.8538C29.7345 16.1017 27.9528 19.9077 29.1998 23.3549C30.4468 26.802 34.2503 28.5849 37.6951 27.3371Z" fill="white"/>
<path d="M8.34477 41.0263C11.8856 40.0855 13.9939 36.4504 13.0538 32.9071C12.1136 29.3639 8.481 27.2541 4.94012 28.195C1.39925 29.1358 -0.709035 32.7708 0.231134 36.3141C1.1713 39.8574 4.8039 41.9671 8.34477 41.0263Z" fill="#22D65B"/>
<path d="M23.9148 40.5941C27.2168 39.006 28.607 35.04 27.02 31.7358C25.433 28.4315 21.4697 27.0403 18.1677 28.6284C14.8658 30.2165 13.4755 34.1825 15.0625 37.4867C16.6495 40.791 20.6128 42.1822 23.9148 40.5941Z" fill="white"/>
<path d="M37.6955 40.8547C41.1403 39.6068 42.922 35.8008 41.675 32.3536C40.428 28.9065 36.6246 27.1236 33.1798 28.3714C29.7349 29.6193 27.9533 33.4253 29.2003 36.8725C30.4473 40.3196 34.2507 42.1025 37.6955 40.8547Z" fill="#22D65B"/>
</g>
<defs>
<clipPath id="clip0_268_4310">
<rect width="42.0622" height="40.3096" fill="white" transform="translate(0.00927734 0.939453)"/>
</clipPath>
</defs>
</svg>
