<svg width="50" height="51" viewBox="0 0 50 51" fill="none" xmlns="http://www.w3.org/2000/svg">
        <path d="M38.0584 46.8288C41.8173 46.8288 44.8644 43.7816 44.8644 40.0228C44.8644 36.2639 41.8173 33.2168 38.0584 33.2168C34.2996 33.2168 31.2524 36.2639 31.2524 40.0228C31.2524 43.7816 34.2996 46.8288 38.0584 46.8288Z" fill="#22D65B"/>
        <path d="M20.3548 34.6549C24.1137 34.6549 27.1608 31.6078 27.1608 27.849C27.1608 24.0901 24.1137 21.043 20.3548 21.043C16.596 21.043 13.5488 24.0901 13.5488 27.849C13.5488 31.6078 16.596 34.6549 20.3548 34.6549Z" fill="white"/>
        <path d="M42.6878 13.482C43.8478 13.482 44.7882 12.5417 44.7882 11.3817C44.7882 10.2216 43.8478 9.28125 42.6878 9.28125C41.5278 9.28125 40.5874 10.2216 40.5874 11.3817C40.5874 12.5417 41.5278 13.482 42.6878 13.482Z" fill="white"/>
        <path d="M48.1776 27.6576C49.1888 25.2164 48.0296 22.4177 45.5883 21.4065C43.1471 20.3954 40.3484 21.5546 39.3373 23.9958C38.3261 26.437 39.4853 29.2357 41.9265 30.2469C44.3677 31.2581 47.1665 30.0988 48.1776 27.6576Z" fill="white"/>
        <path d="M29.5595 8.88029C30.5706 6.43908 29.4114 3.64038 26.9702 2.6292C24.529 1.61802 21.7303 2.77728 20.7191 5.21848C19.7079 7.65969 20.8672 10.4584 23.3084 11.4696C25.7496 12.4808 28.5483 11.3215 29.5595 8.88029Z" fill="#22D65B"/>
        <path d="M11.4096 46.0854C12.4207 43.6442 11.2615 40.8455 8.82028 39.8343C6.37907 38.8231 3.58036 39.9824 2.56918 42.4236C1.55801 44.8648 2.71727 47.6635 5.15847 48.6747C7.59968 49.6858 10.3984 48.5266 11.4096 46.0854Z" fill="#22D65B"/>
        <path d="M7.77924 18.7984C8.44642 17.1877 7.68154 15.3411 6.07082 14.6739C4.4601 14.0068 2.6135 14.7716 1.94632 16.3824C1.27914 17.9931 2.04403 19.8397 3.65474 20.5069C5.26546 21.174 7.11206 20.4092 7.77924 18.7984Z" fill="white"/>
        </svg>