<svg width="1120" height="1120" viewBox="0 0 1120 1120" fill="none" xmlns="http://www.w3.org/2000/svg">
<rect width="49.2698" height="49.7071" transform="translate(257.631 667.307)" fill="#68F394"/>
<path d="M277.247 701.165C281.006 701.165 284.053 698.118 284.053 694.359C284.053 690.6 281.006 687.553 277.247 687.553C273.489 687.553 270.441 690.6 270.441 694.359C270.441 698.118 273.489 701.165 277.247 701.165Z" fill="white"/>
<path d="M299.58 679.99C300.74 679.99 301.681 679.049 301.681 677.889C301.681 676.729 300.74 675.789 299.58 675.789C298.42 675.789 297.48 676.729 297.48 677.889C297.48 679.049 298.42 679.99 299.58 679.99Z" fill="white"/>
<path d="M305.07 694.167C306.081 691.726 304.922 688.927 302.481 687.916C300.04 686.905 297.241 688.064 296.23 690.506C295.219 692.947 296.378 695.746 298.819 696.757C301.26 697.768 304.059 696.609 305.07 694.167Z" fill="white"/>
<path d="M286.452 675.388C287.463 672.947 286.304 670.148 283.863 669.137C281.422 668.126 278.623 669.285 277.612 671.726C276.6 674.167 277.76 676.966 280.201 677.977C282.642 678.989 285.441 677.829 286.452 675.388Z" fill="#22D65B"/>
<path d="M268.302 713.07C269.313 710.629 268.154 707.83 265.713 706.819C263.272 705.807 260.473 706.967 259.462 709.408C258.451 711.849 259.61 714.648 262.051 715.659C264.492 716.67 267.291 715.511 268.302 713.07Z" fill="#22D65B"/>
<path d="M264.672 685.308C265.339 683.697 264.574 681.851 262.963 681.184C261.353 680.517 259.506 681.281 258.839 682.892C258.172 684.503 258.937 686.349 260.547 687.017C262.158 687.684 264.005 686.919 264.672 685.308Z" fill="white"/>
<path d="M294.951 713.339C298.71 713.339 301.757 710.291 301.757 706.533C301.757 702.774 298.71 699.727 294.951 699.727C291.192 699.727 288.145 702.774 288.145 706.533C288.145 710.291 291.192 713.339 294.951 713.339Z" fill="#22D65B"/>
<rect width="49.2698" height="49.7071" transform="translate(320.724 752.309)" fill="#68F394"/>
<path d="M358.044 798.339C361.803 798.339 364.85 795.291 364.85 791.533C364.85 787.774 361.803 784.727 358.044 784.727C354.285 784.727 351.238 787.774 351.238 791.533C351.238 795.291 354.285 798.339 358.044 798.339Z" fill="#22D65B"/>
<path d="M340.341 786.165C344.099 786.165 347.147 783.118 347.147 779.359C347.147 775.6 344.099 772.553 340.341 772.553C336.582 772.553 333.535 775.6 333.535 779.359C333.535 783.118 336.582 786.165 340.341 786.165Z" fill="white"/>
<path d="M362.674 764.992C363.834 764.992 364.774 764.051 364.774 762.891C364.774 761.731 363.834 760.791 362.674 760.791C361.514 760.791 360.573 761.731 360.573 762.891C360.573 764.051 361.514 764.992 362.674 764.992Z" fill="white"/>
<path d="M368.163 779.167C369.175 776.726 368.015 773.927 365.574 772.916C363.133 771.905 360.334 773.064 359.323 775.506C358.312 777.947 359.471 780.746 361.912 781.757C364.354 782.768 367.152 781.609 368.163 779.167Z" fill="white"/>
<path d="M349.545 760.39C350.556 757.949 349.397 755.15 346.956 754.139C344.515 753.128 341.716 754.287 340.705 756.728C339.694 759.169 340.853 761.968 343.294 762.979C345.735 763.991 348.534 762.831 349.545 760.39Z" fill="#22D65B"/>
<path d="M331.395 797.595C332.407 795.154 331.247 792.355 328.806 791.344C326.365 790.333 323.566 791.492 322.555 793.933C321.544 796.375 322.703 799.173 325.144 800.184C327.586 801.196 330.384 800.036 331.395 797.595Z" fill="#22D65B"/>
<path d="M327.765 770.308C328.432 768.697 327.667 766.851 326.057 766.184C324.446 765.517 322.599 766.281 321.932 767.892C321.265 769.503 322.03 771.349 323.641 772.017C325.251 772.684 327.098 771.919 327.765 770.308Z" fill="white"/>
<rect width="49.2698" height="49.7071" transform="translate(398.715 812.771)" fill="#68F394"/>
<path d="M436.035 858.803C439.794 858.803 442.841 855.756 442.841 851.997C442.841 848.239 439.794 845.191 436.035 845.191C432.276 845.191 429.229 848.239 429.229 851.997C429.229 855.756 432.276 858.803 436.035 858.803Z" fill="#22D65B"/>
<path d="M418.331 846.63C422.09 846.63 425.137 843.582 425.137 839.824C425.137 836.065 422.09 833.018 418.331 833.018C414.572 833.018 411.525 836.065 411.525 839.824C411.525 843.582 414.572 846.63 418.331 846.63Z" fill="white"/>
<path d="M440.664 825.455C441.824 825.455 442.764 824.514 442.764 823.354C442.764 822.194 441.824 821.254 440.664 821.254C439.504 821.254 438.563 822.194 438.563 823.354C438.563 824.514 439.504 825.455 440.664 825.455Z" fill="white"/>
<path d="M446.154 839.632C447.165 837.191 446.006 834.392 443.564 833.381C441.123 832.37 438.325 833.529 437.313 835.97C436.302 838.412 437.461 841.21 439.903 842.222C442.344 843.233 445.143 842.073 446.154 839.632Z" fill="white"/>
<path d="M427.536 820.855C428.547 818.414 427.387 815.615 424.946 814.604C422.505 813.593 419.706 814.752 418.695 817.193C417.684 819.634 418.843 822.433 421.284 823.444C423.726 824.455 426.524 823.296 427.536 820.855Z" fill="#22D65B"/>
<path d="M409.386 858.058C410.397 855.617 409.238 852.818 406.797 851.807C404.356 850.796 401.557 851.955 400.546 854.396C399.535 856.837 400.694 859.636 403.135 860.647C405.576 861.658 408.375 860.499 409.386 858.058Z" fill="#22D65B"/>
<path d="M405.756 830.773C406.423 829.162 405.658 827.316 404.047 826.649C402.437 825.981 400.59 826.746 399.923 828.357C399.256 829.968 400.021 831.814 401.631 832.481C403.242 833.149 405.089 832.384 405.756 830.773Z" fill="white"/>
<rect width="57.626" height="57.626" transform="translate(697.97 795.684) rotate(45)" fill="#68F394"/>
<path d="M712.402 831.219C711.59 831.219 710.801 831.318 710.043 831.491C708.673 825.297 703.134 820.658 696.5 820.658C689.003 820.658 682.91 826.582 682.65 833.981C682.487 833.973 682.328 833.957 682.162 833.957C677.099 833.957 672.995 838.042 672.995 843.081C672.995 848.12 677.099 852.205 682.162 852.205H712.402C718.225 852.205 722.944 847.505 722.944 841.712C722.944 835.918 718.225 831.216 712.402 831.216V831.219Z" fill="#21D65B"/>
<rect width="57.626" height="57.626" transform="translate(842.558 658.105) rotate(45)" fill="#68F394"/>
<path d="M856.99 693.64C856.179 693.64 855.39 693.74 854.632 693.913C853.262 687.718 847.723 683.08 841.089 683.08C833.592 683.08 827.499 689.004 827.239 696.403C827.076 696.395 826.916 696.379 826.751 696.379C821.688 696.379 817.584 700.464 817.584 705.503C817.584 710.542 821.688 714.627 826.751 714.627H856.99C862.813 714.627 867.533 709.927 867.533 704.134C867.533 698.34 862.813 693.638 856.99 693.638V693.64Z" fill="#21D65B"/>
<rect width="57.626" height="57.626" transform="translate(784.723 734.344) rotate(45)" fill="#68F394"/>
<path d="M799.154 769.879C798.343 769.879 797.554 769.978 796.796 770.151C795.426 763.957 789.887 759.318 783.253 759.318C775.756 759.318 769.663 765.242 769.403 772.641C769.24 772.633 769.08 772.617 768.915 772.617C763.852 772.617 759.748 776.702 759.748 781.741C759.748 786.78 763.852 790.865 768.915 790.865H799.154C804.978 790.865 809.697 786.166 809.697 780.372C809.697 774.578 804.978 769.877 799.154 769.877V769.879Z" fill="#21D65B"/>
<g clip-path="url(#clip0_536_1701)">
<rect width="42.0622" height="40.3096" transform="translate(672.995 255.449)" fill="#68F394"/>
<path d="M681.824 268.35C685.281 267.136 687.101 263.348 685.888 259.889C684.675 256.429 680.89 254.609 677.433 255.822C673.976 257.036 672.156 260.824 673.369 264.283C674.582 267.743 678.367 269.563 681.824 268.35Z" fill="#22D65B"/>
<path d="M696.284 268.331C699.729 267.083 701.51 263.277 700.263 259.83C699.016 256.383 695.213 254.6 691.768 255.848C688.323 257.096 686.542 260.902 687.789 264.349C689.036 267.796 692.839 269.579 696.284 268.331Z" fill="white"/>
<path d="M711.298 268.069C714.6 266.481 715.99 262.515 714.403 259.21C712.816 255.906 708.853 254.515 705.551 256.103C702.249 257.691 700.858 261.657 702.445 264.961C704.032 268.266 707.996 269.657 711.298 268.069Z" fill="#22D65B"/>
<path d="M681.331 282.02C684.871 281.08 686.98 277.445 686.04 273.901C685.099 270.358 681.467 268.248 677.926 269.189C674.385 270.13 672.277 273.765 673.217 277.308C674.157 280.852 677.79 282.961 681.331 282.02Z" fill="white"/>
<path d="M696.9 281.586C700.202 279.998 701.592 276.032 700.005 272.728C698.418 269.424 694.455 268.033 691.153 269.621C687.851 271.209 686.46 275.175 688.047 278.479C689.634 281.783 693.598 283.174 696.9 281.586Z" fill="#22D65B"/>
<path d="M710.681 281.847C714.126 280.599 715.907 276.793 714.66 273.346C713.413 269.899 709.61 268.116 706.165 269.364C702.72 270.611 700.939 274.418 702.186 277.865C703.433 281.312 707.236 283.095 710.681 281.847Z" fill="white"/>
<path d="M681.331 295.536C684.871 294.595 686.98 290.96 686.04 287.417C685.099 283.874 681.467 281.764 677.926 282.705C674.385 283.646 672.277 287.281 673.217 290.824C674.157 294.367 677.79 296.477 681.331 295.536Z" fill="#22D65B"/>
<path d="M696.901 295.104C700.203 293.516 701.593 289.55 700.006 286.246C698.419 282.941 694.456 281.55 691.154 283.138C687.852 284.726 686.461 288.692 688.048 291.997C689.635 295.301 693.599 296.692 696.901 295.104Z" fill="white"/>
<path d="M710.681 295.364C714.126 294.117 715.908 290.311 714.661 286.863C713.414 283.416 709.61 281.633 706.166 282.881C702.721 284.129 700.939 287.935 702.186 291.382C703.433 294.829 707.237 296.612 710.681 295.364Z" fill="#22D65B"/>
</g>
<g clip-path="url(#clip1_536_1701)">
<rect width="42.0622" height="40.3096" transform="translate(753.614 314.16)" fill="#68F394"/>
<path d="M762.444 327.061C765.901 325.847 767.72 322.059 766.508 318.6C765.295 315.14 761.51 313.32 758.052 314.533C754.595 315.747 752.776 319.535 753.989 322.994C755.201 326.454 758.987 328.274 762.444 327.061Z" fill="#22D65B"/>
<path d="M776.903 327.042C780.348 325.794 782.13 321.988 780.883 318.541C779.636 315.094 775.832 313.311 772.387 314.559C768.942 315.807 767.161 319.613 768.408 323.06C769.655 326.507 773.458 328.29 776.903 327.042Z" fill="white"/>
<path d="M791.917 326.782C795.219 325.194 796.609 321.227 795.022 317.923C793.435 314.619 789.472 313.228 786.17 314.816C782.868 316.404 781.477 320.37 783.064 323.674C784.651 326.978 788.615 328.37 791.917 326.782Z" fill="#22D65B"/>
<path d="M761.95 340.731C765.491 339.791 767.599 336.156 766.659 332.612C765.719 329.069 762.086 326.959 758.545 327.9C755.004 328.841 752.896 332.476 753.836 336.019C754.776 339.562 758.409 341.672 761.95 340.731Z" fill="white"/>
<path d="M777.519 340.299C780.821 338.711 782.211 334.745 780.624 331.441C779.037 328.137 775.074 326.745 771.772 328.333C768.47 329.922 767.079 333.888 768.667 337.192C770.254 340.496 774.217 341.887 777.519 340.299Z" fill="#22D65B"/>
<path d="M791.3 340.558C794.745 339.31 796.527 335.504 795.28 332.057C794.033 328.61 790.229 326.827 786.784 328.075C783.339 329.322 781.558 333.128 782.805 336.576C784.052 340.023 787.855 341.806 791.3 340.558Z" fill="white"/>
<path d="M761.95 354.247C765.491 353.306 767.599 349.671 766.659 346.128C765.719 342.585 762.086 340.475 758.545 341.416C755.004 342.356 752.896 345.992 753.836 349.535C754.776 353.078 758.409 355.188 761.95 354.247Z" fill="#22D65B"/>
<path d="M777.52 353.815C780.822 352.227 782.212 348.261 780.625 344.956C779.038 341.652 775.075 340.261 771.773 341.849C768.471 343.437 767.08 347.403 768.667 350.707C770.254 354.012 774.218 355.403 777.52 353.815Z" fill="white"/>
<path d="M791.301 354.075C794.745 352.828 796.527 349.021 795.28 345.574C794.033 342.127 790.23 340.344 786.785 341.592C783.34 342.84 781.558 346.646 782.805 350.093C784.052 353.54 787.856 355.323 791.301 354.075Z" fill="#22D65B"/>
</g>
<g clip-path="url(#clip2_536_1701)">
<rect width="42.0622" height="40.3096" transform="translate(823.718 386.893)" fill="#68F394"/>
<path d="M832.547 399.793C836.005 398.58 837.824 394.792 836.611 391.332C835.399 387.873 831.613 386.052 828.156 387.266C824.699 388.479 822.88 392.267 824.092 395.727C825.305 399.186 829.09 401.007 832.547 399.793Z" fill="#22D65B"/>
<path d="M847.007 399.775C850.451 398.527 852.233 394.721 850.986 391.274C849.739 387.826 845.936 386.043 842.491 387.291C839.046 388.539 837.264 392.345 838.511 395.792C839.758 399.24 843.562 401.022 847.007 399.775Z" fill="white"/>
<path d="M862.021 399.514C865.322 397.926 866.713 393.96 865.126 390.656C863.539 387.351 859.575 385.96 856.273 387.548C852.971 389.136 851.581 393.102 853.168 396.407C854.755 399.711 858.719 401.102 862.021 399.514Z" fill="#22D65B"/>
<path d="M832.053 413.464C835.594 412.523 837.702 408.888 836.762 405.345C835.822 401.801 832.189 399.692 828.649 400.632C825.108 401.573 822.999 405.208 823.94 408.752C824.88 412.295 828.512 414.405 832.053 413.464Z" fill="white"/>
<path d="M847.622 413.032C850.924 411.444 852.315 407.477 850.728 404.173C849.141 400.869 845.177 399.478 841.875 401.066C838.573 402.654 837.183 406.62 838.77 409.924C840.357 413.228 844.32 414.62 847.622 413.032Z" fill="#22D65B"/>
<path d="M861.404 413.29C864.849 412.042 866.63 408.236 865.383 404.789C864.136 401.342 860.333 399.559 856.888 400.807C853.443 402.055 851.662 405.861 852.909 409.308C854.156 412.755 857.959 414.538 861.404 413.29Z" fill="white"/>
<path d="M832.053 426.979C835.594 426.039 837.702 422.404 836.762 418.86C835.822 415.317 832.189 413.207 828.649 414.148C825.108 415.089 822.999 418.724 823.94 422.267C824.88 425.811 828.512 427.92 832.053 426.979Z" fill="#22D65B"/>
<path d="M847.623 426.547C850.925 424.959 852.316 420.993 850.729 417.689C849.142 414.385 845.178 412.993 841.876 414.582C838.574 416.17 837.184 420.136 838.771 423.44C840.358 426.744 844.321 428.135 847.623 426.547Z" fill="white"/>
<path d="M861.404 426.808C864.849 425.56 866.631 421.754 865.384 418.307C864.137 414.86 860.333 413.077 856.888 414.325C853.444 415.572 851.662 419.378 852.909 422.826C854.156 426.273 857.959 428.056 861.404 426.808Z" fill="#22D65B"/>
</g>
<g clip-path="url(#clip3_536_1701)">
<rect width="28.0414" height="42.9385" transform="translate(247.116 423.697)" fill="#68F394"/>
<path d="M267.694 465.044C265.663 466.103 263.392 466.628 261.136 466.635C258.881 466.627 256.608 466.103 254.579 465.044C249.6 462.444 246.145 456.236 247.36 450.116C247.726 448.269 248.419 446.637 249.178 444.961C252.523 438.47 257.123 432.832 260.106 426.106C260.106 426.106 260.403 425.436 260.649 424.855L260.679 424.784C260.818 424.457 260.935 424.169 260.963 424.067L261.001 423.944L261.057 423.762C261.083 423.678 261.191 423.678 261.217 423.762L261.273 423.944L261.312 424.067C261.338 424.166 261.451 424.445 261.587 424.765L261.633 424.877C261.878 425.451 262.168 426.106 262.168 426.106C265.152 432.832 269.75 438.47 273.096 444.961C273.856 446.636 274.548 448.268 274.914 450.115C276.129 456.236 272.674 462.444 267.696 465.044H267.694Z" fill="#22D65B"/>
</g>
<g clip-path="url(#clip4_536_1701)">
<rect width="28.0414" height="42.9385" transform="translate(293.559 341.326)" fill="#68F394"/>
<path d="M314.137 382.672C312.107 383.732 309.835 384.257 307.58 384.264C305.324 384.256 303.052 383.732 301.022 382.672C296.044 380.073 292.589 373.864 293.803 367.745C294.17 365.898 294.862 364.266 295.622 362.59C298.966 356.099 303.566 350.461 306.55 343.735C306.55 343.735 306.846 343.064 307.092 342.484L307.123 342.413C307.262 342.085 307.378 341.798 307.406 341.696L307.444 341.573L307.501 341.391C307.527 341.307 307.634 341.307 307.66 341.391L307.717 341.573L307.755 341.696C307.781 341.795 307.894 342.074 308.03 342.394L308.077 342.506C308.321 343.08 308.612 343.735 308.612 343.735C311.595 350.461 316.194 356.099 319.539 362.589C320.299 364.265 320.991 365.897 321.358 367.744C322.572 373.864 319.117 380.073 314.139 382.672H314.137Z" fill="#22D65B"/>
</g>
<g clip-path="url(#clip5_536_1701)">
<rect width="28.0414" height="42.9385" transform="translate(375.56 264.211)" fill="#68F394"/>
<path d="M396.138 305.557C394.108 306.617 391.836 307.142 389.581 307.149C387.325 307.141 385.053 306.617 383.023 305.557C378.045 302.958 374.59 296.749 375.804 290.629C376.171 288.782 376.863 287.151 377.623 285.475C380.967 278.984 385.567 273.346 388.551 266.62C388.551 266.62 388.847 265.949 389.093 265.369L389.124 265.298C389.263 264.97 389.379 264.682 389.407 264.581L389.445 264.458L389.502 264.276C389.528 264.192 389.635 264.192 389.661 264.276L389.718 264.458L389.756 264.581C389.782 264.68 389.895 264.959 390.031 265.278L390.078 265.39C390.322 265.965 390.612 266.62 390.612 266.62C393.596 273.346 398.195 278.984 401.54 285.474C402.3 287.15 402.992 288.782 403.359 290.628C404.573 296.749 401.118 302.958 396.14 305.557H396.138Z" fill="#22D65B"/>
</g>
<defs>
<clipPath id="clip0_536_1701">
<rect width="42.0622" height="40.3096" fill="white" transform="translate(672.995 255.449)"/>
</clipPath>
<clipPath id="clip1_536_1701">
<rect width="42.0622" height="40.3096" fill="white" transform="translate(753.614 314.16)"/>
</clipPath>
<clipPath id="clip2_536_1701">
<rect width="42.0622" height="40.3096" fill="white" transform="translate(823.718 386.893)"/>
</clipPath>
<clipPath id="clip3_536_1701">
<rect width="28.0414" height="42.9385" fill="white" transform="translate(247.116 423.697)"/>
</clipPath>
<clipPath id="clip4_536_1701">
<rect width="28.0414" height="42.9385" fill="white" transform="translate(293.559 341.326)"/>
</clipPath>
<clipPath id="clip5_536_1701">
<rect width="28.0414" height="42.9385" fill="white" transform="translate(375.56 264.211)"/>
</clipPath>
</defs>
</svg>
