<svg width="29" height="44" viewBox="0 0 29 44" fill="none" xmlns="http://www.w3.org/2000/svg">
<path d="M21.1524 42.0474C19.1218 43.1072 16.8502 43.6323 14.5948 43.6394C12.3394 43.6314 10.0669 43.1072 8.03721 42.0474C3.05879 39.4481 -0.396004 33.2394 0.818594 27.1196C1.18494 25.2727 1.87734 23.6408 2.63691 21.9654C5.98153 15.4742 10.5811 9.83582 13.5647 3.11011C13.5647 3.11011 13.8612 2.43941 14.1075 1.85931L14.138 1.78825C14.2768 1.46044 14.3932 1.17262 14.421 1.07135L14.4595 0.947866L14.516 0.765754C14.5419 0.682249 14.6494 0.682249 14.6754 0.765754L14.7318 0.947866L14.7703 1.07135C14.7963 1.16995 14.9092 1.4489 15.0453 1.7687L15.0919 1.88063C15.3364 2.4554 15.6267 3.11011 15.6267 3.11011C18.6103 9.83582 23.2089 15.4742 26.5545 21.9645C27.314 23.6399 28.0064 25.2718 28.3728 27.1187C29.5874 33.2394 26.1326 39.4481 21.1541 42.0474H21.1524Z" fill="#22D65B"/>
</svg>
