<svg width="719" height="141" viewBox="0 0 719 141" fill="none" xmlns="http://www.w3.org/2000/svg">
<g clip-path="url(#clip0_89_4480)">
<path d="M35.1481 139.157H716.87V61.7599C716.87 61.7599 722.178 32.5658 689.828 32.5658H35.1481C35.1481 32.5658 -9.10929 31.3464 4.37595 74.1692C17.8612 116.992 35.1481 139.157 35.1481 139.157Z" stroke="#A07D5A" stroke-width="3.5865" stroke-miterlimit="10"/>
<path d="M18.0761 108.743H271.642L486.043 60.9709L701.233 58.6038V139.157" stroke="#A07D5A" stroke-width="3.5865" stroke-miterlimit="10"/>
<path d="M337.275 139.156V105.73H404.629V139.156" stroke="#A07D5A" stroke-width="3.5865" stroke-miterlimit="10"/>
<path d="M344.017 139.156V112.688H397.886V139.156" stroke="#A07D5A" stroke-width="3.5865" stroke-miterlimit="10"/>
<path d="M370.916 112.688V139.156" stroke="#A07D5A" stroke-width="3.5865" stroke-miterlimit="10"/>
<path d="M630.364 139.156V105.371H657.262V139.156" stroke="#A07D5A" stroke-width="3.5865" stroke-miterlimit="10"/>
<path d="M643.849 105.371V139.156" stroke="#A07D5A" stroke-width="3.5865" stroke-miterlimit="10"/>
<path d="M404.629 128.038H630.364" stroke="#A07D5A" stroke-width="3.5865" stroke-miterlimit="10"/>
<path d="M404.629 116.849H630.364" stroke="#A07D5A" stroke-width="3.5865" stroke-miterlimit="10"/>
<path d="M27.9749 128.038H335.984" stroke="#A07D5A" stroke-width="3.5865" stroke-miterlimit="10"/>
<path d="M22.1644 116.849H335.983" stroke="#A07D5A" stroke-width="3.5865" stroke-miterlimit="10"/>
<path d="M285.271 105.586H630.364" stroke="#A07D5A" stroke-width="3.5865" stroke-miterlimit="10"/>
<path d="M657.692 128.038H701.233" stroke="#A07D5A" stroke-width="3.5865" stroke-miterlimit="10"/>
<path d="M657.692 116.849H701.233" stroke="#A07D5A" stroke-width="3.5865" stroke-miterlimit="10"/>
<path d="M655.828 105.586H701.233" stroke="#A07D5A" stroke-width="3.5865" stroke-miterlimit="10"/>
<path d="M335.983 94.397H701.233" stroke="#A07D5A" stroke-width="3.5865" stroke-miterlimit="10"/>
<path d="M386.338 83.2067H701.233" stroke="#A07D5A" stroke-width="3.5865" stroke-miterlimit="10"/>
<path d="M436.047 71.9454H634.668" stroke="#A07D5A" stroke-width="3.5865" stroke-miterlimit="10"/>
<path d="M654.25 71.9454H701.233" stroke="#A07D5A" stroke-width="3.5865" stroke-miterlimit="10"/>
<path d="M635.456 59.3209V83.0636" stroke="#A07D5A" stroke-width="3.5865" stroke-miterlimit="10"/>
<path d="M654.25 59.3209V83.0636" stroke="#A07D5A" stroke-width="3.5865" stroke-miterlimit="10"/>
<path d="M416.608 75.9619V139.156" stroke="#A07D5A" stroke-width="3.5865" stroke-miterlimit="10"/>
<path d="M428.587 73.4515V139.156" stroke="#A07D5A" stroke-width="3.5865" stroke-miterlimit="10"/>
<path d="M440.637 70.9412V139.156" stroke="#A07D5A" stroke-width="3.5865" stroke-miterlimit="10"/>
<path d="M452.616 67.2828V139.156" stroke="#A07D5A" stroke-width="3.5865" stroke-miterlimit="10"/>
<path d="M464.596 65.1315V139.157" stroke="#A07D5A" stroke-width="3.5865" stroke-miterlimit="10"/>
<path d="M476.646 62.3339V139.157" stroke="#A07D5A" stroke-width="3.5865" stroke-miterlimit="10"/>
<path d="M488.625 59.3209V139.156" stroke="#A07D5A" stroke-width="3.5865" stroke-miterlimit="10"/>
<path d="M500.603 59.3209V139.156" stroke="#A07D5A" stroke-width="3.5865" stroke-miterlimit="10"/>
<path d="M512.583 94.827V139.156" stroke="#A07D5A" stroke-width="3.5865" stroke-miterlimit="10"/>
<path d="M512.583 60.8987V84.2827" stroke="#A07D5A" stroke-width="3.5865" stroke-miterlimit="10"/>
<path d="M524.634 93.5363V139.157" stroke="#A07D5A" stroke-width="3.5865" stroke-miterlimit="10"/>
<path d="M524.634 59.8945V83.2067" stroke="#A07D5A" stroke-width="3.5865" stroke-miterlimit="10"/>
<path d="M536.612 94.1098V139.156" stroke="#A07D5A" stroke-width="3.5865" stroke-miterlimit="10"/>
<path d="M548.591 94.1098V139.156" stroke="#A07D5A" stroke-width="3.5865" stroke-miterlimit="10"/>
<path d="M560.641 94.1098V139.156" stroke="#A07D5A" stroke-width="3.5865" stroke-miterlimit="10"/>
<path d="M572.621 94.1098V139.156" stroke="#A07D5A" stroke-width="3.5865" stroke-miterlimit="10"/>
<path d="M584.6 94.1098V139.156" stroke="#A07D5A" stroke-width="3.5865" stroke-miterlimit="10"/>
<path d="M596.578 94.1098V139.156" stroke="#A07D5A" stroke-width="3.5865" stroke-miterlimit="10"/>
<path d="M608.629 94.1098V139.156" stroke="#A07D5A" stroke-width="3.5865" stroke-miterlimit="10"/>
<path d="M620.609 94.1098V139.156" stroke="#A07D5A" stroke-width="3.5865" stroke-miterlimit="10"/>
<path d="M632.085 94.1098V105.371" stroke="#A07D5A" stroke-width="3.5865" stroke-miterlimit="10"/>
<path d="M644.063 94.1098V105.371" stroke="#A07D5A" stroke-width="3.5865" stroke-miterlimit="10"/>
<path d="M656.043 94.1098V105.371" stroke="#A07D5A" stroke-width="3.5865" stroke-miterlimit="10"/>
<path d="M536.612 60.6124V83.0639" stroke="#A07D5A" stroke-width="3.5865" stroke-miterlimit="10"/>
<path d="M548.591 60.6124V83.0639" stroke="#A07D5A" stroke-width="3.5865" stroke-miterlimit="10"/>
<path d="M560.641 60.6124V83.0639" stroke="#A07D5A" stroke-width="3.5865" stroke-miterlimit="10"/>
<path d="M572.621 60.6124V83.0639" stroke="#A07D5A" stroke-width="3.5865" stroke-miterlimit="10"/>
<path d="M584.6 60.6124V83.0639" stroke="#A07D5A" stroke-width="3.5865" stroke-miterlimit="10"/>
<path d="M596.578 60.6124V83.0639" stroke="#A07D5A" stroke-width="3.5865" stroke-miterlimit="10"/>
<path d="M608.629 60.6124V83.0639" stroke="#A07D5A" stroke-width="3.5865" stroke-miterlimit="10"/>
<path d="M620.609 60.6124V83.0639" stroke="#A07D5A" stroke-width="3.5865" stroke-miterlimit="10"/>
<path d="M667.448 59.3209V139.156" stroke="#A07D5A" stroke-width="3.5865" stroke-miterlimit="10"/>
<path d="M679.499 59.3209V139.156" stroke="#A07D5A" stroke-width="3.5865" stroke-miterlimit="10"/>
<path d="M691.478 59.3209V139.156" stroke="#A07D5A" stroke-width="3.5865" stroke-miterlimit="10"/>
<path d="M381.03 84.2828V105.371" stroke="#A07D5A" stroke-width="3.5865" stroke-miterlimit="10"/>
<path d="M392.866 81.7725V105.372" stroke="#A07D5A" stroke-width="3.5865" stroke-miterlimit="10"/>
<path d="M404.629 79.0466V105.372" stroke="#A07D5A" stroke-width="3.5865" stroke-miterlimit="10"/>
<path d="M345.667 91.4558V105.371" stroke="#A07D5A" stroke-width="3.5865" stroke-miterlimit="10"/>
<path d="M335.983 94.7551V105.371" stroke="#A07D5A" stroke-width="3.5865" stroke-miterlimit="10"/>
<path d="M357.431 89.6626V105.371" stroke="#A07D5A" stroke-width="3.5865" stroke-miterlimit="10"/>
<path d="M369.266 85.8607V105.371" stroke="#A07D5A" stroke-width="3.5865" stroke-miterlimit="10"/>
<path d="M244.384 108.743V139.157" stroke="#A07D5A" stroke-width="3.5865" stroke-miterlimit="10"/>
<path d="M255.933 108.743V139.157" stroke="#A07D5A" stroke-width="3.5865" stroke-miterlimit="10"/>
<path d="M267.482 108.743V139.157" stroke="#A07D5A" stroke-width="3.5865" stroke-miterlimit="10"/>
<path d="M279.03 105.73V139.156" stroke="#A07D5A" stroke-width="3.5865" stroke-miterlimit="10"/>
<path d="M290.578 105.73V139.156" stroke="#A07D5A" stroke-width="3.5865" stroke-miterlimit="10"/>
<path d="M302.127 102V139.156" stroke="#A07D5A" stroke-width="3.5865" stroke-miterlimit="10"/>
<path d="M313.604 99.4177V139.156" stroke="#A07D5A" stroke-width="3.5865" stroke-miterlimit="10"/>
<path d="M325.152 95.6158V139.156" stroke="#A07D5A" stroke-width="3.5865" stroke-miterlimit="10"/>
<path d="M152.139 108.743V139.157" stroke="#A07D5A" stroke-width="3.5865" stroke-miterlimit="10"/>
<path d="M163.688 108.743V139.157" stroke="#A07D5A" stroke-width="3.5865" stroke-miterlimit="10"/>
<path d="M175.237 108.743V139.157" stroke="#A07D5A" stroke-width="3.5865" stroke-miterlimit="10"/>
<path d="M186.714 108.743V139.157" stroke="#A07D5A" stroke-width="3.5865" stroke-miterlimit="10"/>
<path d="M198.262 108.743V139.157" stroke="#A07D5A" stroke-width="3.5865" stroke-miterlimit="10"/>
<path d="M209.81 108.743V139.157" stroke="#A07D5A" stroke-width="3.5865" stroke-miterlimit="10"/>
<path d="M221.359 108.743V139.157" stroke="#A07D5A" stroke-width="3.5865" stroke-miterlimit="10"/>
<path d="M71.371 108.743V139.157" stroke="#A07D5A" stroke-width="3.5865" stroke-miterlimit="10"/>
<path d="M82.9203 108.743V139.157" stroke="#A07D5A" stroke-width="3.5865" stroke-miterlimit="10"/>
<path d="M94.4688 108.743V139.157" stroke="#A07D5A" stroke-width="3.5865" stroke-miterlimit="10"/>
<path d="M106.017 108.743V139.157" stroke="#A07D5A" stroke-width="3.5865" stroke-miterlimit="10"/>
<path d="M117.494 108.743V139.157" stroke="#A07D5A" stroke-width="3.5865" stroke-miterlimit="10"/>
<path d="M129.042 108.743V139.157" stroke="#A07D5A" stroke-width="3.5865" stroke-miterlimit="10"/>
<path d="M140.591 108.743V139.157" stroke="#A07D5A" stroke-width="3.5865" stroke-miterlimit="10"/>
<path d="M36.7975 108.743V139.157" stroke="#A07D5A" stroke-width="3.5865" stroke-miterlimit="10"/>
<path d="M48.346 108.743V139.157" stroke="#A07D5A" stroke-width="3.5865" stroke-miterlimit="10"/>
<path d="M59.8226 108.743V139.157" stroke="#A07D5A" stroke-width="3.5865" stroke-miterlimit="10"/>
<path d="M232.907 108.743V139.157" stroke="#A07D5A" stroke-width="3.5865" stroke-miterlimit="10"/>
<path d="M241.372 32.5655V1.79327H307.076V32.5655" stroke="#A07D5A" stroke-width="3.5865" stroke-miterlimit="10"/>
<path d="M280.25 13.4853H296.819" stroke="#A07D5A" stroke-width="3.5865" stroke-miterlimit="10"/>
</g>
<defs>
<clipPath id="clip0_89_4480">
<rect width="718.95" height="140.95" fill="white"/>
</clipPath>
</defs>
</svg>
