<svg width="27" height="24" viewBox="0 0 27 24" fill="none" xmlns="http://www.w3.org/2000/svg">
<g clip-path="url(#clip0_157_808)">
<path d="M5.22988 11.9542C5.22988 12.7887 5.72131 13.2311 6.70548 13.2828H8.25791C9.34541 13.3344 10.2885 13.8259 11.0926 14.7584C11.8939 15.6896 12.2966 16.7519 12.2966 17.9414C12.2966 19.3918 11.7787 20.6078 10.7442 21.5907C9.70835 22.5748 8.41422 23.0663 6.86179 23.0663C5.04973 23.0663 3.56221 22.355 2.39656 20.931C1.23224 19.5071 0.649414 17.6831 0.649414 15.4564C0.649414 11.3157 2.28 7.0704 5.54116 2.72174C6.73198 1.11765 7.76649 0.314941 8.64735 0.314941C9.6302 0.314941 10.123 0.836834 10.123 1.87797C10.123 2.29522 9.83816 2.86744 9.26858 3.59597C8.23275 4.89938 7.30023 6.40942 6.47368 8.12743C5.64448 9.84544 5.2312 11.1224 5.2312 11.9542H5.22988ZM19.362 11.9542C19.362 12.7887 19.8535 13.2311 20.8376 13.2828H22.3901C23.4246 13.3344 24.3439 13.8259 25.1466 14.7584C25.9479 15.6896 26.3506 16.7519 26.3506 17.9414C26.3506 19.3918 25.8327 20.6078 24.7982 21.5907C23.7624 22.5748 22.4682 23.0663 20.9158 23.0663C19.1037 23.0663 17.6162 22.355 16.4506 20.931C15.2862 19.5084 14.7034 17.6831 14.7034 15.4564C14.7034 11.3157 16.334 7.0704 19.5952 2.72174C20.786 1.11765 21.8205 0.314941 22.7013 0.314941C23.6842 0.314941 24.177 0.836834 24.177 1.87797C24.177 2.29522 23.8922 2.86744 23.3226 3.59597C21.9251 5.36696 20.7608 7.47573 19.8283 9.92359C19.5183 10.7581 19.362 11.435 19.362 11.9542Z" fill="black"/>
</g>
<defs>
<clipPath id="clip0_157_808">
<rect width="25.7012" height="22.75" fill="white" transform="translate(0.649414 0.314941)"/>
</clipPath>
</defs>
</svg>
