<svg width="27" height="23" viewBox="0 0 27 23" fill="none" xmlns="http://www.w3.org/2000/svg">
<g clip-path="url(#clip0_157_812)">
<path d="M21.7701 11.1757C21.7701 10.3412 21.2787 9.89877 20.2945 9.84711L18.7421 9.84711C17.6546 9.79545 16.7115 9.30403 15.9074 8.37151C15.1061 7.44031 14.7034 6.37799 14.7034 5.18849C14.7034 3.73806 15.2213 2.52208 16.2558 1.53922C17.2916 0.555046 18.5858 0.0636191 20.1382 0.0636188C21.9503 0.0636185 23.4378 0.774928 24.6034 2.19887C25.7678 3.62282 26.3506 5.44679 26.3506 7.67344C26.3506 11.8141 24.72 16.0595 21.4588 20.4081C20.268 22.0122 19.2335 22.8149 18.3527 22.8149C17.3698 22.8149 16.877 22.2931 16.877 21.2519C16.877 20.8347 17.1618 20.2624 17.7314 19.5339C18.7673 18.2305 19.6998 16.7205 20.5263 15.0025C21.3555 13.2844 21.7688 12.0075 21.7688 11.1757L21.7701 11.1757ZM7.63796 11.1757C7.63796 10.3412 7.14654 9.89877 6.16236 9.84711L4.60993 9.84711C3.57542 9.79546 2.65614 9.30403 1.85344 8.37151C1.05205 7.44032 0.649375 6.37799 0.649375 5.1885C0.649374 3.73806 1.16729 2.52208 2.20181 1.53923C3.23764 0.555048 4.53178 0.0636215 6.08421 0.0636212C7.89626 0.0636209 9.38379 0.77493 10.5494 2.19887C11.7138 3.62149 12.2966 5.44679 12.2966 7.67345C12.2966 11.8141 10.666 16.0595 7.40484 20.4081C6.21402 22.0122 5.17951 22.8149 4.29865 22.8149C3.3158 22.8149 2.82305 22.2931 2.82305 21.2519C2.82305 20.8347 3.10784 20.2624 3.67741 19.5339C5.07486 17.7629 6.23919 15.6542 7.17171 13.2063C7.48166 12.3718 7.63796 11.6949 7.63796 11.1757Z" fill="black"/>
</g>
<defs>
<clipPath id="clip0_157_812">
<rect width="25.7012" height="22.75" fill="white" transform="translate(26.3506 22.8149) rotate(180)"/>
</clipPath>
</defs>
</svg>
