<svg width="384" height="333" viewBox="0 0 384 333" fill="none" xmlns="http://www.w3.org/2000/svg">
<path fill-rule="evenodd" clip-rule="evenodd" d="M229.73 106.2L282 90.1803V191.8H229.73V106.2ZM217.57 27.0903C222.1 18.4803 219.05 7.75032 210.55 2.84032C202.56 -1.76968 192.53 0.350318 187.04 7.45032C186.31 5.33032 184.85 3.46032 182.76 2.26032C178.16 -0.399682 172.28 1.18032 169.63 5.77032C168.87 7.09032 168.46 8.51032 168.36 9.93032C163.08 8.74032 157.43 11.0403 154.58 15.9803C152.88 18.9103 152.49 22.2403 153.23 25.3003C151.71 26.0303 150.52 27.3603 149.87 28.9103C147.5 28.1503 144.51 28.3203 141.84 29.5503C137.55 31.5303 135.72 35.5303 137.76 38.4803C139.81 41.4203 144.94 42.2003 149.23 40.2203C149.81 39.9503 150.34 39.6503 150.82 39.3203C151.43 40.2503 152.26 41.0503 153.29 41.6403C155.9 43.1503 159.04 42.8803 161.33 41.2103C161.73 45.3803 164.06 49.3003 167.97 51.5503C173.01 54.4603 179.16 53.7203 183.36 50.1403C184.38 53.0503 186.41 55.6103 189.29 57.2803C195.16 60.6703 202.53 59.1003 206.57 53.8803C212.66 55.2403 219.2 52.5803 222.49 46.8803C226.45 40.0103 224.24 31.2703 217.57 27.0903ZM158.14 74.5003H108.46L110.86 57.4003H155.74L158.14 74.5003ZM174.6 191.8L159.13 81.5303H107.47L92 191.8H174.6ZM169.72 106.43L222.7 90.1803V191.8H181.7L169.72 106.43ZM188.01 153.02V169.43H204.42V153.02H188.01ZM188.01 118.71V135.12H204.42V118.71H188.01ZM247.66 118.71V135.12H264.07V118.71H247.66ZM247.66 153.02V169.43H264.07V153.02H247.66Z" fill="#02A7C4"/>
<path fill-rule="evenodd" clip-rule="evenodd" d="M217.57 27.0903C222.1 18.4803 219.05 7.75032 210.55 2.84032C202.56 -1.76968 192.53 0.350318 187.04 7.45032C186.31 5.33032 184.85 3.46032 182.76 2.26032C178.16 -0.399682 172.28 1.18032 169.63 5.77032C168.87 7.09032 168.46 8.51032 168.36 9.93032C163.08 8.74032 157.43 11.0403 154.58 15.9803C152.88 18.9103 152.49 22.2403 153.23 25.3003C151.71 26.0303 150.52 27.3603 149.87 28.9103C147.5 28.1503 144.51 28.3203 141.84 29.5503C137.55 31.5303 135.72 35.5303 137.76 38.4803C139.81 41.4203 144.94 42.2003 149.23 40.2203C149.81 39.9503 150.34 39.6503 150.82 39.3203C151.43 40.2503 152.26 41.0503 153.29 41.6403C155.9 43.1503 159.04 42.8803 161.33 41.2103C161.73 45.3803 164.06 49.3003 167.97 51.5503C173.01 54.4603 179.16 53.7203 183.36 50.1403C184.38 53.0503 186.41 55.6103 189.29 57.2803C195.16 60.6703 202.53 59.1003 206.57 53.8803C212.66 55.2403 219.2 52.5803 222.49 46.8803C226.45 40.0103 224.24 31.2703 217.57 27.0903ZM158.14 74.5003H108.46L110.86 57.4003H155.74L158.14 74.5003ZM174.6 191.8L159.13 81.5303H107.47L92 191.8H174.6Z" fill="#02A7C4"/>
<rect width="384" height="142" transform="translate(0 191)" fill="#02A7C4"/>
<path d="M95.9858 243.167V245.192H99.8872V243.167H101.448V249.658H94.4419V243.167H95.9858ZM95.9858 248.396H99.8872V246.404H95.9858V248.396ZM105.548 242.536V245.657H107.707V246.936H105.548V250.189H103.971V242.536H105.548ZM105.548 250.837V254.589H97.5132V256H106.063V257.262H95.9692V253.427H103.988V252.082H95.936V250.837H105.548ZM113.102 245.392C113.102 247.019 114.148 248.662 116.074 249.393L115.244 250.604C113.857 250.073 112.886 249.061 112.355 247.832C111.807 249.218 110.786 250.422 109.35 251.036L108.487 249.808C110.496 248.928 111.575 247.052 111.575 245.392V243.466H113.102V245.392ZM121.237 242.553V251.7H119.743V247.716H118V251.235H116.539V242.818H118V246.421H119.743V242.553H121.237ZM116.256 251.982C119.361 251.982 121.303 252.995 121.32 254.688C121.303 256.382 119.361 257.395 116.256 257.378C113.152 257.395 111.209 256.382 111.226 254.688C111.209 252.995 113.152 251.982 116.256 251.982ZM116.256 253.194C114.098 253.194 112.77 253.742 112.787 254.688C112.77 255.635 114.098 256.183 116.256 256.166C118.415 256.183 119.726 255.635 119.743 254.688C119.726 253.742 118.415 253.194 116.256 253.194ZM131.912 247.301V248.579H129.006V250.455C130.326 250.397 131.638 250.306 132.858 250.173L132.974 251.335C129.803 251.767 126.317 251.85 123.528 251.85L123.312 250.588C124.582 250.58 126.001 250.563 127.446 250.521V248.579H124.64V243.482H131.779V244.761H126.217V247.301H131.912ZM135.581 242.536V253.692H134.003V242.536H135.581ZM136.045 255.817V257.096H125.769V252.896H127.346V255.817H136.045ZM150.904 247.898C150.605 246.354 149.327 245.491 147.799 245.491C145.724 245.491 144.18 247.085 144.18 249.99C144.18 252.912 145.741 254.489 147.799 254.489C149.31 254.489 150.588 253.643 150.904 252.115L152.747 252.132C152.365 254.506 150.422 256.166 147.783 256.166C144.645 256.166 142.371 253.825 142.371 249.99C142.371 246.139 144.662 243.814 147.783 243.814C150.323 243.814 152.332 245.309 152.747 247.898H150.904ZM165.165 249.99C165.165 253.825 162.857 256.166 159.752 256.166C156.615 256.166 154.324 253.825 154.324 249.99C154.324 246.139 156.615 243.814 159.752 243.814C162.857 243.814 165.165 246.139 165.165 249.99ZM163.355 249.99C163.355 247.068 161.811 245.491 159.752 245.491C157.677 245.491 156.133 247.068 156.133 249.99C156.133 252.912 157.677 254.489 159.752 254.489C161.811 254.489 163.355 252.912 163.355 249.99ZM180.139 249.359V250.571H166.526V249.359H180.139ZM178.462 251.617V254.888H169.73V256.116H178.927V257.229H168.153V253.842H176.902V252.746H168.136V251.617H178.462ZM178.429 242.918V246.139H169.83V247.268H178.678V248.38H168.269V245.093H176.852V244.03H168.236V242.918H178.429ZM114.679 279.29V280.635H101.066V279.29H107.042V276.119H102.261V274.874H104.486V270.192H102.228V268.914H113.434V270.192H111.16V274.874H113.384V276.119H108.603V279.29H114.679ZM106.046 274.874H109.616V270.192H106.046V274.874ZM121.27 269.91C121.27 271.753 122.714 273.479 125.005 274.144L124.208 275.372C122.474 274.849 121.162 273.712 120.49 272.251C119.817 273.812 118.489 275.048 116.705 275.638L115.908 274.393C118.215 273.679 119.66 271.869 119.676 269.91V269.744H116.339V268.466H124.541V269.744H121.27V269.91ZM128.093 267.536V275.588H126.516V267.536H128.093ZM119.909 276.285V277.945H126.533V276.285H128.093V282.229H118.365V276.285H119.909ZM119.909 280.95H126.533V279.19H119.909V280.95ZM139.714 268.416L135.846 282.81H134.269L138.137 268.416H139.714ZM157.063 267.536V282.444H155.486V274.177H152.415V272.882H155.486V267.536H157.063ZM149.958 271.72C149.958 274.243 151.535 276.949 153.826 277.962L152.879 279.224C151.161 278.394 149.833 276.659 149.177 274.625C148.513 276.792 147.16 278.643 145.442 279.522L144.479 278.294C146.753 277.215 148.347 274.393 148.364 271.72V270.325H145.077V269.03H153.261V270.325H149.958V271.72ZM164.534 270.275C164.534 272.168 165.845 273.895 168.103 274.608L167.356 275.837C165.663 275.297 164.426 274.177 163.77 272.766C163.123 274.393 161.819 275.679 160.035 276.302L159.221 275.04C161.545 274.276 162.94 272.351 162.957 270.292V269.877H159.686V268.599H167.738V269.877H164.534V270.275ZM171.025 267.536V271.222H173.183V272.517H171.025V276.468H169.448V267.536H171.025ZM166.227 276.833C169.298 276.833 171.158 277.846 171.158 279.589C171.158 281.349 169.298 282.395 166.227 282.378C163.123 282.395 161.23 281.349 161.23 279.589C161.23 277.846 163.123 276.833 166.227 276.833ZM166.227 278.078C164.069 278.078 162.791 278.626 162.807 279.589C162.791 280.585 164.069 281.133 166.227 281.133C168.369 281.133 169.614 280.585 169.614 279.589C169.614 278.626 168.369 278.078 166.227 278.078Z" fill="white"/>
<g clip-path="url(#clip0_504_1621)">
<path d="M311.47 241.06C318.059 241.06 323.401 235.718 323.401 229.13C323.401 222.541 318.059 217.199 311.47 217.199C304.881 217.199 299.54 222.541 299.54 229.13C299.54 235.718 304.881 241.06 311.47 241.06Z" fill="#B5B6B6"/>
<path d="M280.436 219.72C287.025 219.72 292.366 214.379 292.366 207.79C292.366 201.201 287.025 195.859 280.436 195.859C273.847 195.859 268.506 201.201 268.506 207.79C268.506 214.379 273.847 219.72 280.436 219.72Z" fill="#B5B6B6"/>
<path d="M213.278 238.171C219.867 238.171 225.209 232.83 225.209 226.241C225.209 219.652 219.867 214.311 213.278 214.311C206.69 214.311 201.348 219.652 201.348 226.241C201.348 232.83 206.69 238.171 213.278 238.171Z" fill="#B5B6B6"/>
<path d="M216.96 197.245C221.516 197.245 225.209 193.552 225.209 188.997C225.209 184.441 221.516 180.748 216.96 180.748C212.405 180.748 208.712 184.441 208.712 188.997C208.712 193.552 212.405 197.245 216.96 197.245Z" fill="#B5B6B6"/>
<path d="M231.286 165.364C233.32 165.364 234.968 163.715 234.968 161.682C234.968 159.648 233.32 158 231.286 158C229.253 158 227.604 159.648 227.604 161.682C227.604 163.715 229.253 165.364 231.286 165.364Z" fill="#B5B6B6"/>
<path d="M319.585 182.602C321.618 182.602 323.266 180.954 323.266 178.92C323.266 176.887 321.618 175.238 319.585 175.238C317.551 175.238 315.903 176.887 315.903 178.92C315.903 180.954 317.551 182.602 319.585 182.602Z" fill="#B5B6B6"/>
<path d="M183.682 204.604C185.715 204.604 187.364 202.955 187.364 200.922C187.364 198.889 185.715 197.24 183.682 197.24C181.648 197.24 180 198.889 180 200.922C180 202.955 181.648 204.604 183.682 204.604Z" fill="#B5B6B6"/>
<path d="M329.207 207.454C330.979 203.175 328.947 198.269 324.668 196.496C320.389 194.724 315.483 196.756 313.71 201.035C311.938 205.314 313.97 210.22 318.249 211.993C322.528 213.765 327.434 211.733 329.207 207.454Z" fill="#B5B6B6"/>
<path d="M296.572 174.536C298.344 170.257 296.312 165.351 292.033 163.578C287.754 161.806 282.848 163.838 281.075 168.117C279.303 172.396 281.335 177.302 285.614 179.075C289.893 180.847 294.799 178.815 296.572 174.536Z" fill="#B5B6B6"/>
<path d="M254.385 209.266C256.158 204.987 254.125 200.081 249.846 198.309C245.567 196.536 240.661 198.568 238.889 202.847C237.116 207.127 239.148 212.033 243.427 213.805C247.707 215.578 252.613 213.546 254.385 209.266Z" fill="#B5B6B6"/>
<path d="M262.368 179.181C263.537 176.358 262.196 173.121 259.373 171.952C256.549 170.782 253.312 172.123 252.143 174.946C250.973 177.77 252.314 181.007 255.138 182.176C257.961 183.346 261.198 182.005 262.368 179.181Z" fill="#B5B6B6"/>
<path d="M290.273 248.642C288.56 248.642 286.894 248.854 285.292 249.221C282.4 236.078 270.703 226.236 256.692 226.236C240.86 226.236 227.993 238.805 227.445 254.504C227.1 254.487 226.763 254.452 226.413 254.452C215.722 254.452 207.055 263.119 207.055 273.811C207.055 284.502 215.722 293.169 226.413 293.169H290.273C302.57 293.169 312.537 283.199 312.537 270.906C312.537 258.613 302.57 248.638 290.273 248.638V248.642Z" fill="#B5B6B6"/>
<path d="M229.7 269.279C229.7 266.991 230.195 264.956 231.185 263.174C232.175 261.37 233.55 259.973 235.31 258.983C237.092 257.971 239.105 257.465 241.349 257.465C244.099 257.465 246.453 258.191 248.411 259.643C250.369 261.095 251.678 263.075 252.338 265.583H246.134C245.672 264.615 245.012 263.878 244.154 263.372C243.318 262.866 242.361 262.613 241.283 262.613C239.545 262.613 238.137 263.218 237.059 264.428C235.981 265.638 235.442 267.255 235.442 269.279C235.442 271.303 235.981 272.92 237.059 274.13C238.137 275.34 239.545 275.945 241.283 275.945C242.361 275.945 243.318 275.692 244.154 275.186C245.012 274.68 245.672 273.943 246.134 272.975H252.338C251.678 275.483 250.369 277.463 248.411 278.915C246.453 280.345 244.099 281.06 241.349 281.06C239.105 281.06 237.092 280.565 235.31 279.575C233.55 278.563 232.175 277.166 231.185 275.384C230.195 273.602 229.7 271.567 229.7 269.279ZM266.75 281.126C264.572 281.126 262.57 280.62 260.744 279.608C258.94 278.596 257.499 277.188 256.421 275.384C255.365 273.558 254.837 271.512 254.837 269.246C254.837 266.98 255.365 264.945 256.421 263.141C257.499 261.337 258.94 259.929 260.744 258.917C262.57 257.905 264.572 257.399 266.75 257.399C268.928 257.399 270.919 257.905 272.723 258.917C274.549 259.929 275.979 261.337 277.013 263.141C278.069 264.945 278.597 266.98 278.597 269.246C278.597 271.512 278.069 273.558 277.013 275.384C275.957 277.188 274.527 278.596 272.723 279.608C270.919 280.62 268.928 281.126 266.75 281.126ZM266.75 275.978C268.598 275.978 270.072 275.362 271.172 274.13C272.294 272.898 272.855 271.27 272.855 269.246C272.855 267.2 272.294 265.572 271.172 264.362C270.072 263.13 268.598 262.514 266.75 262.514C264.88 262.514 263.384 263.119 262.262 264.329C261.162 265.539 260.612 267.178 260.612 269.246C260.612 271.292 261.162 272.931 262.262 274.163C263.384 275.373 264.88 275.978 266.75 275.978ZM280.47 278.155C280.924 277.795 281.13 277.628 281.09 277.655C282.397 276.575 283.424 275.688 284.17 274.995C284.93 274.301 285.57 273.575 286.09 272.815C286.61 272.055 286.87 271.315 286.87 270.595C286.87 270.048 286.744 269.621 286.49 269.315C286.237 269.008 285.857 268.855 285.35 268.855C284.844 268.855 284.444 269.048 284.15 269.435C283.87 269.808 283.73 270.341 283.73 271.035H280.43C280.457 269.901 280.697 268.955 281.15 268.195C281.617 267.435 282.224 266.875 282.97 266.515C283.73 266.155 284.57 265.975 285.49 265.975C287.077 265.975 288.27 266.381 289.07 267.195C289.884 268.008 290.29 269.068 290.29 270.375C290.29 271.801 289.804 273.128 288.83 274.355C287.857 275.568 286.617 276.755 285.11 277.915H290.51V280.695H280.47V278.155Z" fill="white"/>
</g>
<defs>
<clipPath id="clip0_504_1621">
<rect width="149.845" height="135.174" fill="white" transform="translate(180 158)"/>
</clipPath>
</defs>
</svg>
