<svg width="1153" height="315" viewBox="0 0 1153 315" fill="none" xmlns="http://www.w3.org/2000/svg">
<path d="M1146.68 285.921C1146.68 285.921 907.146 259.243 846.611 235.994C820.484 225.965 774.33 206.798 723.985 183.723C657.602 153.311 583.992 116.105 539.419 84.1515C461.064 27.9295 375.583 -2.11341 328.4 0.969031L317.708 0.751953L289.223 21.7646L261.615 0.751953C261.615 0.751953 196.613 13.2988 186.825 15.5998C186.825 15.5998 176.912 20.8312 136.204 20.8312C95.4956 20.8312 65.9309 27.5822 65.9309 27.5822L39.3778 32.4663L0 39.6949V121.835L32.2251 115.779L73.0335 112.979L117.481 108.095C117.481 108.095 159.494 108.095 166.772 110.2C174.051 112.306 180.099 108.464 198.295 107.053C216.465 105.663 261.314 102.516 261.314 102.516L288.796 119.99C288.796 119.99 292.033 116.495 302.926 111.959C313.843 107.422 316.252 104.621 357.061 105.316C371.015 105.555 391.494 110.982 412.401 117.993C452.607 131.517 494.369 150.967 494.369 150.967C640.787 225.075 756.888 248.91 810.245 264.887C889.979 288.765 1046.29 303.265 1046.29 303.265L1153 314.271V285.943H1146.68V285.921Z" fill="white"/>
</svg>
