<svg width="1153" height="306" viewBox="0 0 1153 306" fill="none" xmlns="http://www.w3.org/2000/svg">
<path d="M981.836 240.474C953.777 234.309 877.205 226.993 826.458 206.979C775.711 186.965 672.862 152.298 640.36 130.743C607.859 109.188 561.555 91.8436 530.384 71.048C499.213 50.2524 398.17 3.66849 371.893 2.49629C345.616 1.3458 318.913 0.195312 318.913 0.195312L289.524 20.7521L261.465 0.195312L232.076 4.42824L173.749 20.7521H116.326L62.4674 29.4568L0 38.639V59.6951L39.3778 52.4665L65.9309 47.5824C65.9309 47.5824 95.4956 40.8314 136.204 40.8314C176.912 40.8314 186.825 35.5999 186.825 35.5999C196.613 33.299 261.615 20.7521 261.615 20.7521L289.223 41.7648L317.708 20.7521L328.4 20.9692C375.583 17.8868 461.064 47.9297 539.419 104.152C583.966 136.127 657.602 173.311 723.985 203.723C774.33 226.798 820.51 245.966 846.611 255.994C907.171 279.243 1146.68 305.921 1146.68 305.921H1153V259.641C1126.9 257.232 1006.81 245.944 981.836 240.474Z" fill="white"/>
</svg>
