<svg width="1153" height="118" viewBox="0 0 1153 118" fill="none" xmlns="http://www.w3.org/2000/svg">
<path d="M863.878 97.5689C863.878 97.5689 633.885 67.2655 576.713 52.9821C519.541 38.6986 410.493 8.95963 393.979 6.11597C377.465 3.27231 324.585 -1.89402 309.376 0.971348C294.167 3.83671 288.896 6.68038 274.34 3.25062C259.808 -0.179133 212.876 4.4011 202.31 4.96549C191.744 5.52988 160.021 6.68036 146.795 2.68621C133.568 -1.30794 103.828 0.450373 90.6267 0.124764C77.4004 -0.179139 21.8849 4.40111 21.8849 4.40111L0 6.39818V117.019H1152.97V105.449L863.878 97.5906V97.5689Z" fill="white"/>
</svg>
