<svg width="1153" height="332" viewBox="0 0 1153 332" fill="none" xmlns="http://www.w3.org/2000/svg">
<path d="M62.4674 101.457L116.326 92.7519H173.749L232.076 76.428L261.465 72.1951L289.524 92.7519L318.913 72.1951C318.913 72.1951 345.616 73.3456 371.893 74.4961C398.17 75.6466 499.213 122.252 530.384 143.048C561.555 163.843 607.859 181.166 640.36 202.743C672.862 224.298 775.711 258.965 826.458 278.979C877.205 298.993 953.777 306.308 981.836 312.473C1006.81 317.965 1126.9 329.231 1153 331.641V65.2922H1090.36L871.834 72.1951C871.834 72.1951 818.226 71.1749 800.532 68.787C782.838 66.3992 670.678 64.0114 597.72 49.6629C524.787 35.3144 450.724 14.3017 450.724 14.3017C450.724 14.3017 383.865 -2.91222 347.95 0.430709C312.036 3.77364 315.349 4.2512 311.484 8.07168L289.925 25.2856L261.741 8.07168L232.452 13.8024L180.501 31.4939L139.065 37.7022L114.745 36.2695L0 61.7973V110.639L62.4674 101.457Z" fill="white"/>
</svg>
