<svg width="1153" height="240" viewBox="0 0 1153 240" fill="none" xmlns="http://www.w3.org/2000/svg">
<path d="M1046.29 201.243C1046.29 201.243 890.004 186.743 810.245 162.865C756.888 146.888 640.762 123.054 494.369 48.9449C494.369 48.9449 452.607 29.4951 412.401 15.9715C391.494 8.9383 371.015 3.53317 357.061 3.29439C316.252 2.59975 313.843 5.39999 302.926 9.93682C292.008 14.4736 288.796 17.9685 288.796 17.9685L261.314 0.494141C261.314 0.494141 216.465 3.64171 198.295 5.03098C180.124 6.42025 174.051 10.2624 166.772 8.17853C159.494 6.07292 117.481 6.07292 117.481 6.07292L73.0335 10.9571L32.2251 13.7573L0 19.8137V140.376L21.8849 138.379C21.8849 138.379 77.4004 133.799 90.6267 134.103C103.853 134.407 133.593 132.648 146.795 136.664C160.021 140.658 191.744 139.53 202.31 138.943C212.876 138.379 259.808 133.799 274.34 137.229C288.871 140.658 294.167 137.793 309.376 134.949C324.585 132.106 377.44 137.229 393.979 140.094C410.518 142.959 519.541 172.677 576.713 186.96C633.885 201.243 863.878 231.547 863.878 231.547L1152.97 239.405V212.206L1046.26 201.2L1046.29 201.243Z" fill="white"/>
</svg>
