<svg width="1200" height="559" viewBox="0 0 1200 559" fill="none" xmlns="http://www.w3.org/2000/svg">
<path d="M47 12.5H48.9059H1200" stroke="#9FA0A0" stroke-width="0.5" stroke-miterlimit="10"/>
<path d="M47 85.5H48.9059H1200" stroke="#9FA0A0" stroke-width="0.5" stroke-miterlimit="10"/>
<path d="M47 158.5H48.9059H1200" stroke="#9FA0A0" stroke-width="0.5" stroke-miterlimit="10"/>
<path d="M47 231.5H48.9059H1200" stroke="#9FA0A0" stroke-width="0.5" stroke-miterlimit="10"/>
<path d="M47 304.5H48.9059H1200" stroke="#9FA0A0" stroke-miterlimit="10"/>
<path d="M47 377.5H48.9059H1200" stroke="#9FA0A0" stroke-miterlimit="10"/>
<path d="M47 450.5H48.9059H1200" stroke="#9FA0A0" stroke-miterlimit="10"/>
<path d="M47 523.5H48.9059H1200" stroke="#9FA0A0" stroke-miterlimit="10"/>
<path d="M32.1297 551.405C33.3997 550.385 34.3947 549.55 35.1147 548.9C35.8347 548.24 36.4397 547.555 36.9297 546.845C37.4297 546.125 37.6797 545.42 37.6797 544.73C37.6797 544.08 37.5197 543.57 37.1997 543.2C36.8897 542.82 36.3847 542.63 35.6847 542.63C35.0047 542.63 34.4747 542.845 34.0947 543.275C33.7247 543.695 33.5247 544.26 33.4947 544.97H32.1747C32.2147 543.85 32.5547 542.985 33.1947 542.375C33.8347 541.765 34.6597 541.46 35.6697 541.46C36.6997 541.46 37.5147 541.745 38.1147 542.315C38.7247 542.885 39.0297 543.67 39.0297 544.67C39.0297 545.5 38.7797 546.31 38.2797 547.1C37.7897 547.88 37.2297 548.57 36.5997 549.17C35.9697 549.76 35.1647 550.45 34.1847 551.24H39.3447V552.38H32.1297V551.405ZM40.9227 546.965C40.9227 545.245 41.2027 543.905 41.7627 542.945C42.3227 541.975 43.3027 541.49 44.7027 541.49C46.0927 541.49 47.0677 541.975 47.6277 542.945C48.1877 543.905 48.4677 545.245 48.4677 546.965C48.4677 548.715 48.1877 550.075 47.6277 551.045C47.0677 552.015 46.0927 552.5 44.7027 552.5C43.3027 552.5 42.3227 552.015 41.7627 551.045C41.2027 550.075 40.9227 548.715 40.9227 546.965ZM47.1177 546.965C47.1177 546.095 47.0577 545.36 46.9377 544.76C46.8277 544.15 46.5927 543.66 46.2327 543.29C45.8827 542.92 45.3727 542.735 44.7027 542.735C44.0227 542.735 43.5027 542.92 43.1427 543.29C42.7927 543.66 42.5577 544.15 42.4377 544.76C42.3277 545.36 42.2727 546.095 42.2727 546.965C42.2727 547.865 42.3277 548.62 42.4377 549.23C42.5577 549.84 42.7927 550.33 43.1427 550.7C43.5027 551.07 44.0227 551.255 44.7027 551.255C45.3727 551.255 45.8827 551.07 46.2327 550.7C46.5927 550.33 46.8277 549.84 46.9377 549.23C47.0577 548.62 47.1177 547.865 47.1177 546.965ZM49.9816 542.9V541.655H52.8016V552.5H51.4216V542.9H49.9816ZM55.1463 546.965C55.1463 545.245 55.4263 543.905 55.9863 542.945C56.5463 541.975 57.5263 541.49 58.9263 541.49C60.3163 541.49 61.2913 541.975 61.8513 542.945C62.4113 543.905 62.6913 545.245 62.6913 546.965C62.6913 548.715 62.4113 550.075 61.8513 551.045C61.2913 552.015 60.3163 552.5 58.9263 552.5C57.5263 552.5 56.5463 552.015 55.9863 551.045C55.4263 550.075 55.1463 548.715 55.1463 546.965ZM61.3413 546.965C61.3413 546.095 61.2813 545.36 61.1613 544.76C61.0513 544.15 60.8163 543.66 60.4563 543.29C60.1063 542.92 59.5963 542.735 58.9263 542.735C58.2463 542.735 57.7263 542.92 57.3663 543.29C57.0163 543.66 56.7813 544.15 56.6613 544.76C56.5513 545.36 56.4963 546.095 56.4963 546.965C56.4963 547.865 56.5513 548.62 56.6613 549.23C56.7813 549.84 57.0163 550.33 57.3663 550.7C57.7263 551.07 58.2463 551.255 58.9263 551.255C59.5963 551.255 60.1063 551.07 60.4563 550.7C60.8163 550.33 61.0513 549.84 61.1613 549.23C61.2813 548.62 61.3413 547.865 61.3413 546.965Z" fill="black"/>
<path d="M312.218 551.405C313.488 550.385 314.483 549.55 315.203 548.9C315.923 548.24 316.528 547.555 317.018 546.845C317.518 546.125 317.768 545.42 317.768 544.73C317.768 544.08 317.608 543.57 317.288 543.2C316.978 542.82 316.473 542.63 315.773 542.63C315.093 542.63 314.563 542.845 314.183 543.275C313.813 543.695 313.613 544.26 313.583 544.97H312.263C312.303 543.85 312.643 542.985 313.283 542.375C313.923 541.765 314.748 541.46 315.758 541.46C316.788 541.46 317.603 541.745 318.203 542.315C318.813 542.885 319.118 543.67 319.118 544.67C319.118 545.5 318.868 546.31 318.368 547.1C317.878 547.88 317.318 548.57 316.688 549.17C316.058 549.76 315.253 550.45 314.273 551.24H319.433V552.38H312.218V551.405ZM321.011 546.965C321.011 545.245 321.291 543.905 321.851 542.945C322.411 541.975 323.391 541.49 324.791 541.49C326.181 541.49 327.156 541.975 327.716 542.945C328.276 543.905 328.556 545.245 328.556 546.965C328.556 548.715 328.276 550.075 327.716 551.045C327.156 552.015 326.181 552.5 324.791 552.5C323.391 552.5 322.411 552.015 321.851 551.045C321.291 550.075 321.011 548.715 321.011 546.965ZM327.206 546.965C327.206 546.095 327.146 545.36 327.026 544.76C326.916 544.15 326.681 543.66 326.321 543.29C325.971 542.92 325.461 542.735 324.791 542.735C324.111 542.735 323.591 542.92 323.231 543.29C322.881 543.66 322.646 544.15 322.526 544.76C322.416 545.36 322.361 546.095 322.361 546.965C322.361 547.865 322.416 548.62 322.526 549.23C322.646 549.84 322.881 550.33 323.231 550.7C323.591 551.07 324.111 551.255 324.791 551.255C325.461 551.255 325.971 551.07 326.321 550.7C326.681 550.33 326.916 549.84 327.026 549.23C327.146 548.62 327.206 547.865 327.206 546.965ZM330.265 551.405C331.535 550.385 332.53 549.55 333.25 548.9C333.97 548.24 334.575 547.555 335.065 546.845C335.565 546.125 335.815 545.42 335.815 544.73C335.815 544.08 335.655 543.57 335.335 543.2C335.025 542.82 334.52 542.63 333.82 542.63C333.14 542.63 332.61 542.845 332.23 543.275C331.86 543.695 331.66 544.26 331.63 544.97H330.31C330.35 543.85 330.69 542.985 331.33 542.375C331.97 541.765 332.795 541.46 333.805 541.46C334.835 541.46 335.65 541.745 336.25 542.315C336.86 542.885 337.165 543.67 337.165 544.67C337.165 545.5 336.915 546.31 336.415 547.1C335.925 547.88 335.365 548.57 334.735 549.17C334.105 549.76 333.3 550.45 332.32 551.24H337.48V552.38H330.265V551.405ZM339.058 546.965C339.058 545.245 339.338 543.905 339.898 542.945C340.458 541.975 341.438 541.49 342.838 541.49C344.228 541.49 345.203 541.975 345.763 542.945C346.323 543.905 346.603 545.245 346.603 546.965C346.603 548.715 346.323 550.075 345.763 551.045C345.203 552.015 344.228 552.5 342.838 552.5C341.438 552.5 340.458 552.015 339.898 551.045C339.338 550.075 339.058 548.715 339.058 546.965ZM345.253 546.965C345.253 546.095 345.193 545.36 345.073 544.76C344.963 544.15 344.728 543.66 344.368 543.29C344.018 542.92 343.508 542.735 342.838 542.735C342.158 542.735 341.638 542.92 341.278 543.29C340.928 543.66 340.693 544.15 340.573 544.76C340.463 545.36 340.408 546.095 340.408 546.965C340.408 547.865 340.463 548.62 340.573 549.23C340.693 549.84 340.928 550.33 341.278 550.7C341.638 551.07 342.158 551.255 342.838 551.255C343.508 551.255 344.018 551.07 344.368 550.7C344.728 550.33 344.963 549.84 345.073 549.23C345.193 548.62 345.253 547.865 345.253 546.965Z" fill="black"/>
<path d="M596.116 551.405C597.386 550.385 598.381 549.55 599.101 548.9C599.821 548.24 600.426 547.555 600.916 546.845C601.416 546.125 601.666 545.42 601.666 544.73C601.666 544.08 601.506 543.57 601.186 543.2C600.876 542.82 600.371 542.63 599.671 542.63C598.991 542.63 598.461 542.845 598.081 543.275C597.711 543.695 597.511 544.26 597.481 544.97H596.161C596.201 543.85 596.541 542.985 597.181 542.375C597.821 541.765 598.646 541.46 599.656 541.46C600.686 541.46 601.501 541.745 602.101 542.315C602.711 542.885 603.016 543.67 603.016 544.67C603.016 545.5 602.766 546.31 602.266 547.1C601.776 547.88 601.216 548.57 600.586 549.17C599.956 549.76 599.151 550.45 598.171 551.24H603.331V552.38H596.116V551.405ZM604.909 546.965C604.909 545.245 605.189 543.905 605.749 542.945C606.309 541.975 607.289 541.49 608.689 541.49C610.079 541.49 611.054 541.975 611.614 542.945C612.174 543.905 612.454 545.245 612.454 546.965C612.454 548.715 612.174 550.075 611.614 551.045C611.054 552.015 610.079 552.5 608.689 552.5C607.289 552.5 606.309 552.015 605.749 551.045C605.189 550.075 604.909 548.715 604.909 546.965ZM611.104 546.965C611.104 546.095 611.044 545.36 610.924 544.76C610.814 544.15 610.579 543.66 610.219 543.29C609.869 542.92 609.359 542.735 608.689 542.735C608.009 542.735 607.489 542.92 607.129 543.29C606.779 543.66 606.544 544.15 606.424 544.76C606.314 545.36 606.259 546.095 606.259 546.965C606.259 547.865 606.314 548.62 606.424 549.23C606.544 549.84 606.779 550.33 607.129 550.7C607.489 551.07 608.009 551.255 608.689 551.255C609.359 551.255 609.869 551.07 610.219 550.7C610.579 550.33 610.814 549.84 610.924 549.23C611.044 548.62 611.104 547.865 611.104 546.965ZM614.297 544.385C614.367 543.465 614.722 542.745 615.362 542.225C616.002 541.705 616.832 541.445 617.852 541.445C618.532 541.445 619.117 541.57 619.607 541.82C620.107 542.06 620.482 542.39 620.732 542.81C620.992 543.23 621.122 543.705 621.122 544.235C621.122 544.855 620.942 545.39 620.582 545.84C620.232 546.29 619.772 546.58 619.202 546.71V546.785C619.852 546.945 620.367 547.26 620.747 547.73C621.127 548.2 621.317 548.815 621.317 549.575C621.317 550.145 621.187 550.66 620.927 551.12C620.667 551.57 620.277 551.925 619.757 552.185C619.237 552.445 618.612 552.575 617.882 552.575C616.822 552.575 615.952 552.3 615.272 551.75C614.592 551.19 614.212 550.4 614.132 549.38H615.452C615.522 549.98 615.767 550.47 616.187 550.85C616.607 551.23 617.167 551.42 617.867 551.42C618.567 551.42 619.097 551.24 619.457 550.88C619.827 550.51 620.012 550.035 620.012 549.455C620.012 548.705 619.762 548.165 619.262 547.835C618.762 547.505 618.007 547.34 616.997 547.34H616.652V546.2H617.012C617.932 546.19 618.627 546.04 619.097 545.75C619.567 545.45 619.802 544.99 619.802 544.37C619.802 543.84 619.627 543.415 619.277 543.095C618.937 542.775 618.447 542.615 617.807 542.615C617.187 542.615 616.687 542.775 616.307 543.095C615.927 543.415 615.702 543.845 615.632 544.385H614.297ZM623.16 546.965C623.16 545.245 623.44 543.905 624 542.945C624.56 541.975 625.54 541.49 626.94 541.49C628.33 541.49 629.305 541.975 629.865 542.945C630.425 543.905 630.705 545.245 630.705 546.965C630.705 548.715 630.425 550.075 629.865 551.045C629.305 552.015 628.33 552.5 626.94 552.5C625.54 552.5 624.56 552.015 624 551.045C623.44 550.075 623.16 548.715 623.16 546.965ZM629.355 546.965C629.355 546.095 629.295 545.36 629.175 544.76C629.065 544.15 628.83 543.66 628.47 543.29C628.12 542.92 627.61 542.735 626.94 542.735C626.26 542.735 625.74 542.92 625.38 543.29C625.03 543.66 624.795 544.15 624.675 544.76C624.565 545.36 624.51 546.095 624.51 546.965C624.51 547.865 624.565 548.62 624.675 549.23C624.795 549.84 625.03 550.33 625.38 550.7C625.74 551.07 626.26 551.255 626.94 551.255C627.61 551.255 628.12 551.07 628.47 550.7C628.83 550.33 629.065 549.84 629.175 549.23C629.295 548.62 629.355 547.865 629.355 546.965Z" fill="black"/>
<path d="M879.815 551.405C881.085 550.385 882.08 549.55 882.8 548.9C883.52 548.24 884.125 547.555 884.615 546.845C885.115 546.125 885.365 545.42 885.365 544.73C885.365 544.08 885.205 543.57 884.885 543.2C884.575 542.82 884.07 542.63 883.37 542.63C882.69 542.63 882.16 542.845 881.78 543.275C881.41 543.695 881.21 544.26 881.18 544.97H879.86C879.9 543.85 880.24 542.985 880.88 542.375C881.52 541.765 882.345 541.46 883.355 541.46C884.385 541.46 885.2 541.745 885.8 542.315C886.41 542.885 886.715 543.67 886.715 544.67C886.715 545.5 886.465 546.31 885.965 547.1C885.475 547.88 884.915 548.57 884.285 549.17C883.655 549.76 882.85 550.45 881.87 551.24H887.03V552.38H879.815V551.405ZM888.608 546.965C888.608 545.245 888.888 543.905 889.448 542.945C890.008 541.975 890.988 541.49 892.388 541.49C893.778 541.49 894.753 541.975 895.313 542.945C895.873 543.905 896.153 545.245 896.153 546.965C896.153 548.715 895.873 550.075 895.313 551.045C894.753 552.015 893.778 552.5 892.388 552.5C890.988 552.5 890.008 552.015 889.448 551.045C888.888 550.075 888.608 548.715 888.608 546.965ZM894.803 546.965C894.803 546.095 894.743 545.36 894.623 544.76C894.513 544.15 894.278 543.66 893.918 543.29C893.568 542.92 893.058 542.735 892.388 542.735C891.708 542.735 891.188 542.92 890.828 543.29C890.478 543.66 890.243 544.15 890.123 544.76C890.013 545.36 889.958 546.095 889.958 546.965C889.958 547.865 890.013 548.62 890.123 549.23C890.243 549.84 890.478 550.33 890.828 550.7C891.188 551.07 891.708 551.255 892.388 551.255C893.058 551.255 893.568 551.07 893.918 550.7C894.278 550.33 894.513 549.84 894.623 549.23C894.743 548.62 894.803 547.865 894.803 546.965ZM897.697 550.085V549.05L902.962 541.76H904.597V548.9H906.097V550.085H904.597V552.5H903.247V550.085H897.697ZM903.307 543.185L899.272 548.9H903.307V543.185ZM907.461 546.965C907.461 545.245 907.741 543.905 908.301 542.945C908.861 541.975 909.841 541.49 911.241 541.49C912.631 541.49 913.606 541.975 914.166 542.945C914.726 543.905 915.006 545.245 915.006 546.965C915.006 548.715 914.726 550.075 914.166 551.045C913.606 552.015 912.631 552.5 911.241 552.5C909.841 552.5 908.861 552.015 908.301 551.045C907.741 550.075 907.461 548.715 907.461 546.965ZM913.656 546.965C913.656 546.095 913.596 545.36 913.476 544.76C913.366 544.15 913.131 543.66 912.771 543.29C912.421 542.92 911.911 542.735 911.241 542.735C910.561 542.735 910.041 542.92 909.681 543.29C909.331 543.66 909.096 544.15 908.976 544.76C908.866 545.36 908.811 546.095 908.811 546.965C908.811 547.865 908.866 548.62 908.976 549.23C909.096 549.84 909.331 550.33 909.681 550.7C910.041 551.07 910.561 551.255 911.241 551.255C911.911 551.255 912.421 551.07 912.771 550.7C913.131 550.33 913.366 549.84 913.476 549.23C913.596 548.62 913.656 547.865 913.656 546.965Z" fill="black"/>
<path d="M1163.82 551.405C1165.09 550.385 1166.09 549.55 1166.81 548.9C1167.53 548.24 1168.13 547.555 1168.62 546.845C1169.12 546.125 1169.37 545.42 1169.37 544.73C1169.37 544.08 1169.21 543.57 1168.89 543.2C1168.58 542.82 1168.08 542.63 1167.38 542.63C1166.7 542.63 1166.17 542.845 1165.79 543.275C1165.42 543.695 1165.22 544.26 1165.19 544.97H1163.87C1163.91 543.85 1164.25 542.985 1164.89 542.375C1165.53 541.765 1166.35 541.46 1167.36 541.46C1168.39 541.46 1169.21 541.745 1169.81 542.315C1170.42 542.885 1170.72 543.67 1170.72 544.67C1170.72 545.5 1170.47 546.31 1169.97 547.1C1169.48 547.88 1168.92 548.57 1168.29 549.17C1167.66 549.76 1166.86 550.45 1165.88 551.24H1171.04V552.38H1163.82V551.405ZM1172.62 546.965C1172.62 545.245 1172.9 543.905 1173.46 542.945C1174.02 541.975 1175 541.49 1176.4 541.49C1177.79 541.49 1178.76 541.975 1179.32 542.945C1179.88 543.905 1180.16 545.245 1180.16 546.965C1180.16 548.715 1179.88 550.075 1179.32 551.045C1178.76 552.015 1177.79 552.5 1176.4 552.5C1175 552.5 1174.02 552.015 1173.46 551.045C1172.9 550.075 1172.62 548.715 1172.62 546.965ZM1178.81 546.965C1178.81 546.095 1178.75 545.36 1178.63 544.76C1178.52 544.15 1178.29 543.66 1177.93 543.29C1177.58 542.92 1177.07 542.735 1176.4 542.735C1175.72 542.735 1175.2 542.92 1174.84 543.29C1174.49 543.66 1174.25 544.15 1174.13 544.76C1174.02 545.36 1173.97 546.095 1173.97 546.965C1173.97 547.865 1174.02 548.62 1174.13 549.23C1174.25 549.84 1174.49 550.33 1174.84 550.7C1175.2 551.07 1175.72 551.255 1176.4 551.255C1177.07 551.255 1177.58 551.07 1177.93 550.7C1178.29 550.33 1178.52 549.84 1178.63 549.23C1178.75 548.62 1178.81 547.865 1178.81 546.965ZM1188.95 542.84H1183.68V546.26C1183.91 545.94 1184.25 545.68 1184.7 545.48C1185.15 545.27 1185.64 545.165 1186.16 545.165C1186.99 545.165 1187.66 545.34 1188.18 545.69C1188.7 546.03 1189.07 546.475 1189.29 547.025C1189.52 547.565 1189.64 548.14 1189.64 548.75C1189.64 549.47 1189.5 550.115 1189.23 550.685C1188.96 551.255 1188.55 551.705 1187.99 552.035C1187.44 552.365 1186.75 552.53 1185.93 552.53C1184.88 552.53 1184.03 552.26 1183.38 551.72C1182.73 551.18 1182.34 550.46 1182.2 549.56H1183.53C1183.66 550.13 1183.94 550.575 1184.36 550.895C1184.78 551.215 1185.31 551.375 1185.95 551.375C1186.74 551.375 1187.33 551.14 1187.73 550.67C1188.13 550.19 1188.33 549.56 1188.33 548.78C1188.33 548 1188.13 547.4 1187.73 546.98C1187.33 546.55 1186.74 546.335 1185.96 546.335C1185.43 546.335 1184.97 546.465 1184.57 546.725C1184.18 546.975 1183.89 547.32 1183.71 547.76H1182.42V541.64H1188.95V542.84ZM1191.45 546.965C1191.45 545.245 1191.73 543.905 1192.29 542.945C1192.85 541.975 1193.83 541.49 1195.23 541.49C1196.62 541.49 1197.6 541.975 1198.16 542.945C1198.72 543.905 1199 545.245 1199 546.965C1199 548.715 1198.72 550.075 1198.16 551.045C1197.6 552.015 1196.62 552.5 1195.23 552.5C1193.83 552.5 1192.85 552.015 1192.29 551.045C1191.73 550.075 1191.45 548.715 1191.45 546.965ZM1197.65 546.965C1197.65 546.095 1197.59 545.36 1197.47 544.76C1197.36 544.15 1197.12 543.66 1196.76 543.29C1196.41 542.92 1195.9 542.735 1195.23 542.735C1194.55 542.735 1194.03 542.92 1193.67 543.29C1193.32 543.66 1193.09 544.15 1192.97 544.76C1192.86 545.36 1192.8 546.095 1192.8 546.965C1192.8 547.865 1192.86 548.62 1192.97 549.23C1193.09 549.84 1193.32 550.33 1193.67 550.7C1194.03 551.07 1194.55 551.255 1195.23 551.255C1195.9 551.255 1196.41 551.07 1196.76 550.7C1197.12 550.33 1197.36 549.84 1197.47 549.23C1197.59 548.62 1197.65 547.865 1197.65 546.965Z" fill="black"/>
<path d="M9.57863 7.72L5.40863 17.5H4.02863L8.25863 7.855H2.46863V6.685H9.57863V7.72ZM11.0921 11.965C11.0921 10.245 11.3721 8.905 11.9321 7.945C12.4921 6.975 13.4721 6.49 14.8721 6.49C16.2621 6.49 17.2371 6.975 17.7971 7.945C18.3571 8.905 18.6371 10.245 18.6371 11.965C18.6371 13.715 18.3571 15.075 17.7971 16.045C17.2371 17.015 16.2621 17.5 14.8721 17.5C13.4721 17.5 12.4921 17.015 11.9321 16.045C11.3721 15.075 11.0921 13.715 11.0921 11.965ZM17.2871 11.965C17.2871 11.095 17.2271 10.36 17.1071 9.76C16.9971 9.15 16.7621 8.66 16.4021 8.29C16.0521 7.92 15.5421 7.735 14.8721 7.735C14.1921 7.735 13.6721 7.92 13.3121 8.29C12.9621 8.66 12.7271 9.15 12.6071 9.76C12.4971 10.36 12.4421 11.095 12.4421 11.965C12.4421 12.865 12.4971 13.62 12.6071 14.23C12.7271 14.84 12.9621 15.33 13.3121 15.7C13.6721 16.07 14.1921 16.255 14.8721 16.255C15.5421 16.255 16.0521 16.07 16.4021 15.7C16.7621 15.33 16.9971 14.84 17.1071 14.23C17.2271 13.62 17.2871 12.865 17.2871 11.965ZM20.5111 11.965C20.5111 10.245 20.7911 8.905 21.3511 7.945C21.9111 6.975 22.8911 6.49 24.2911 6.49C25.6811 6.49 26.6561 6.975 27.2161 7.945C27.7761 8.905 28.0561 10.245 28.0561 11.965C28.0561 13.715 27.7761 15.075 27.2161 16.045C26.6561 17.015 25.6811 17.5 24.2911 17.5C22.8911 17.5 21.9111 17.015 21.3511 16.045C20.7911 15.075 20.5111 13.715 20.5111 11.965ZM26.7061 11.965C26.7061 11.095 26.6461 10.36 26.5261 9.76C26.4161 9.15 26.1811 8.66 25.8211 8.29C25.4711 7.92 24.9611 7.735 24.2911 7.735C23.6111 7.735 23.0911 7.92 22.7311 8.29C22.3811 8.66 22.1461 9.15 22.0261 9.76C21.9161 10.36 21.8611 11.095 21.8611 11.965C21.8611 12.865 21.9161 13.62 22.0261 14.23C22.1461 14.84 22.3811 15.33 22.7311 15.7C23.0911 16.07 23.6111 16.255 24.2911 16.255C24.9611 16.255 25.4711 16.07 25.8211 15.7C26.1811 15.33 26.4161 14.84 26.5261 14.23C26.6461 13.62 26.7061 12.865 26.7061 11.965Z" fill="black"/>
<path d="M7.61563 82.235C7.39563 81.125 6.71063 80.57 5.56063 80.57C4.67063 80.57 4.00563 80.915 3.56563 81.605C3.12563 82.285 2.91063 83.41 2.92063 84.98C3.15063 84.46 3.53063 84.055 4.06063 83.765C4.60063 83.465 5.20063 83.315 5.86063 83.315C6.89063 83.315 7.71063 83.635 8.32063 84.275C8.94063 84.915 9.25063 85.8 9.25063 86.93C9.25063 87.61 9.11563 88.22 8.84563 88.76C8.58563 89.3 8.18563 89.73 7.64563 90.05C7.11563 90.37 6.47063 90.53 5.71063 90.53C4.68063 90.53 3.87563 90.3 3.29563 89.84C2.71563 89.38 2.31063 88.745 2.08063 87.935C1.85063 87.125 1.73563 86.125 1.73563 84.935C1.73563 81.265 3.01563 79.43 5.57563 79.43C6.55563 79.43 7.32563 79.695 7.88563 80.225C8.44563 80.755 8.77563 81.425 8.87563 82.235H7.61563ZM5.57563 84.47C5.14563 84.47 4.74063 84.56 4.36063 84.74C3.98063 84.91 3.67063 85.175 3.43063 85.535C3.20063 85.885 3.08563 86.315 3.08563 86.825C3.08563 87.585 3.30563 88.205 3.74563 88.685C4.18563 89.155 4.81563 89.39 5.63563 89.39C6.33563 89.39 6.89063 89.175 7.30063 88.745C7.72063 88.305 7.93063 87.715 7.93063 86.975C7.93063 86.195 7.73063 85.585 7.33063 85.145C6.93063 84.695 6.34563 84.47 5.57563 84.47ZM11.0921 84.965C11.0921 83.245 11.3721 81.905 11.9321 80.945C12.4921 79.975 13.4721 79.49 14.8721 79.49C16.2621 79.49 17.2371 79.975 17.7971 80.945C18.3571 81.905 18.6371 83.245 18.6371 84.965C18.6371 86.715 18.3571 88.075 17.7971 89.045C17.2371 90.015 16.2621 90.5 14.8721 90.5C13.4721 90.5 12.4921 90.015 11.9321 89.045C11.3721 88.075 11.0921 86.715 11.0921 84.965ZM17.2871 84.965C17.2871 84.095 17.2271 83.36 17.1071 82.76C16.9971 82.15 16.7621 81.66 16.4021 81.29C16.0521 80.92 15.5421 80.735 14.8721 80.735C14.1921 80.735 13.6721 80.92 13.3121 81.29C12.9621 81.66 12.7271 82.15 12.6071 82.76C12.4971 83.36 12.4421 84.095 12.4421 84.965C12.4421 85.865 12.4971 86.62 12.6071 87.23C12.7271 87.84 12.9621 88.33 13.3121 88.7C13.6721 89.07 14.1921 89.255 14.8721 89.255C15.5421 89.255 16.0521 89.07 16.4021 88.7C16.7621 88.33 16.9971 87.84 17.1071 87.23C17.2271 86.62 17.2871 85.865 17.2871 84.965ZM20.5111 84.965C20.5111 83.245 20.7911 81.905 21.3511 80.945C21.9111 79.975 22.8911 79.49 24.2911 79.49C25.6811 79.49 26.6561 79.975 27.2161 80.945C27.7761 81.905 28.0561 83.245 28.0561 84.965C28.0561 86.715 27.7761 88.075 27.2161 89.045C26.6561 90.015 25.6811 90.5 24.2911 90.5C22.8911 90.5 21.9111 90.015 21.3511 89.045C20.7911 88.075 20.5111 86.715 20.5111 84.965ZM26.7061 84.965C26.7061 84.095 26.6461 83.36 26.5261 82.76C26.4161 82.15 26.1811 81.66 25.8211 81.29C25.4711 80.92 24.9611 80.735 24.2911 80.735C23.6111 80.735 23.0911 80.92 22.7311 81.29C22.3811 81.66 22.1461 82.15 22.0261 82.76C21.9161 83.36 21.8611 84.095 21.8611 84.965C21.8611 85.865 21.9161 86.62 22.0261 87.23C22.1461 87.84 22.3811 88.33 22.7311 88.7C23.0911 89.07 23.6111 89.255 24.2911 89.255C24.9611 89.255 25.4711 89.07 25.8211 88.7C26.1811 88.33 26.4161 87.84 26.5261 87.23C26.6461 86.62 26.7061 85.865 26.7061 84.965Z" fill="black"/>
<path d="M8.58816 153.84H3.32316V157.26C3.55316 156.94 3.89316 156.68 4.34316 156.48C4.79316 156.27 5.27816 156.165 5.79816 156.165C6.62816 156.165 7.30316 156.34 7.82316 156.69C8.34316 157.03 8.71316 157.475 8.93316 158.025C9.16316 158.565 9.27816 159.14 9.27816 159.75C9.27816 160.47 9.14316 161.115 8.87316 161.685C8.60316 162.255 8.18816 162.705 7.62816 163.035C7.07816 163.365 6.39316 163.53 5.57316 163.53C4.52316 163.53 3.67316 163.26 3.02316 162.72C2.37316 162.18 1.97816 161.46 1.83816 160.56H3.17316C3.30316 161.13 3.57816 161.575 3.99816 161.895C4.41816 162.215 4.94816 162.375 5.58816 162.375C6.37816 162.375 6.97316 162.14 7.37316 161.67C7.77316 161.19 7.97316 160.56 7.97316 159.78C7.97316 159 7.77316 158.4 7.37316 157.98C6.97316 157.55 6.38316 157.335 5.60316 157.335C5.07316 157.335 4.60816 157.465 4.20816 157.725C3.81816 157.975 3.53316 158.32 3.35316 158.76H2.06316V152.64H8.58816V153.84ZM11.0921 157.965C11.0921 156.245 11.3721 154.905 11.9321 153.945C12.4921 152.975 13.4721 152.49 14.8721 152.49C16.2621 152.49 17.2371 152.975 17.7971 153.945C18.3571 154.905 18.6371 156.245 18.6371 157.965C18.6371 159.715 18.3571 161.075 17.7971 162.045C17.2371 163.015 16.2621 163.5 14.8721 163.5C13.4721 163.5 12.4921 163.015 11.9321 162.045C11.3721 161.075 11.0921 159.715 11.0921 157.965ZM17.2871 157.965C17.2871 157.095 17.2271 156.36 17.1071 155.76C16.9971 155.15 16.7621 154.66 16.4021 154.29C16.0521 153.92 15.5421 153.735 14.8721 153.735C14.1921 153.735 13.6721 153.92 13.3121 154.29C12.9621 154.66 12.7271 155.15 12.6071 155.76C12.4971 156.36 12.4421 157.095 12.4421 157.965C12.4421 158.865 12.4971 159.62 12.6071 160.23C12.7271 160.84 12.9621 161.33 13.3121 161.7C13.6721 162.07 14.1921 162.255 14.8721 162.255C15.5421 162.255 16.0521 162.07 16.4021 161.7C16.7621 161.33 16.9971 160.84 17.1071 160.23C17.2271 159.62 17.2871 158.865 17.2871 157.965ZM20.5111 157.965C20.5111 156.245 20.7911 154.905 21.3511 153.945C21.9111 152.975 22.8911 152.49 24.2911 152.49C25.6811 152.49 26.6561 152.975 27.2161 153.945C27.7761 154.905 28.0561 156.245 28.0561 157.965C28.0561 159.715 27.7761 161.075 27.2161 162.045C26.6561 163.015 25.6811 163.5 24.2911 163.5C22.8911 163.5 21.9111 163.015 21.3511 162.045C20.7911 161.075 20.5111 159.715 20.5111 157.965ZM26.7061 157.965C26.7061 157.095 26.6461 156.36 26.5261 155.76C26.4161 155.15 26.1811 154.66 25.8211 154.29C25.4711 153.92 24.9611 153.735 24.2911 153.735C23.6111 153.735 23.0911 153.92 22.7311 154.29C22.3811 154.66 22.1461 155.15 22.0261 155.76C21.9161 156.36 21.8611 157.095 21.8611 157.965C21.8611 158.865 21.9161 159.62 22.0261 160.23C22.1461 160.84 22.3811 161.33 22.7311 161.7C23.0911 162.07 23.6111 162.255 24.2911 162.255C24.9611 162.255 25.4711 162.07 25.8211 161.7C26.1811 161.33 26.4161 160.84 26.5261 160.23C26.6461 159.62 26.7061 158.865 26.7061 157.965Z" fill="black"/>
<path d="M1.32852 234.085V233.05L6.59352 225.76H8.22852V232.9H9.72852V234.085H8.22852V236.5H6.87852V234.085H1.32852ZM6.93852 227.185L2.90352 232.9H6.93852V227.185ZM11.0921 230.965C11.0921 229.245 11.3721 227.905 11.9321 226.945C12.4921 225.975 13.4721 225.49 14.8721 225.49C16.2621 225.49 17.2371 225.975 17.7971 226.945C18.3571 227.905 18.6371 229.245 18.6371 230.965C18.6371 232.715 18.3571 234.075 17.7971 235.045C17.2371 236.015 16.2621 236.5 14.8721 236.5C13.4721 236.5 12.4921 236.015 11.9321 235.045C11.3721 234.075 11.0921 232.715 11.0921 230.965ZM17.2871 230.965C17.2871 230.095 17.2271 229.36 17.1071 228.76C16.9971 228.15 16.7621 227.66 16.4021 227.29C16.0521 226.92 15.5421 226.735 14.8721 226.735C14.1921 226.735 13.6721 226.92 13.3121 227.29C12.9621 227.66 12.7271 228.15 12.6071 228.76C12.4971 229.36 12.4421 230.095 12.4421 230.965C12.4421 231.865 12.4971 232.62 12.6071 233.23C12.7271 233.84 12.9621 234.33 13.3121 234.7C13.6721 235.07 14.1921 235.255 14.8721 235.255C15.5421 235.255 16.0521 235.07 16.4021 234.7C16.7621 234.33 16.9971 233.84 17.1071 233.23C17.2271 232.62 17.2871 231.865 17.2871 230.965ZM20.5111 230.965C20.5111 229.245 20.7911 227.905 21.3511 226.945C21.9111 225.975 22.8911 225.49 24.2911 225.49C25.6811 225.49 26.6561 225.975 27.2161 226.945C27.7761 227.905 28.0561 229.245 28.0561 230.965C28.0561 232.715 27.7761 234.075 27.2161 235.045C26.6561 236.015 25.6811 236.5 24.2911 236.5C22.8911 236.5 21.9111 236.015 21.3511 235.045C20.7911 234.075 20.5111 232.715 20.5111 230.965ZM26.7061 230.965C26.7061 230.095 26.6461 229.36 26.5261 228.76C26.4161 228.15 26.1811 227.66 25.8211 227.29C25.4711 226.92 24.9611 226.735 24.2911 226.735C23.6111 226.735 23.0911 226.92 22.7311 227.29C22.3811 227.66 22.1461 228.15 22.0261 228.76C21.9161 229.36 21.8611 230.095 21.8611 230.965C21.8611 231.865 21.9161 232.62 22.0261 233.23C22.1461 233.84 22.3811 234.33 22.7311 234.7C23.0911 235.07 23.6111 235.255 24.2911 235.255C24.9611 235.255 25.4711 235.07 25.8211 234.7C26.1811 234.33 26.4161 233.84 26.5261 233.23C26.6461 232.62 26.7061 231.865 26.7061 230.965Z" fill="black"/>
<path d="M2.2291 301.385C2.2991 300.465 2.6541 299.745 3.2941 299.225C3.9341 298.705 4.7641 298.445 5.7841 298.445C6.4641 298.445 7.0491 298.57 7.5391 298.82C8.0391 299.06 8.4141 299.39 8.6641 299.81C8.9241 300.23 9.0541 300.705 9.0541 301.235C9.0541 301.855 8.8741 302.39 8.5141 302.84C8.1641 303.29 7.7041 303.58 7.1341 303.71V303.785C7.7841 303.945 8.2991 304.26 8.6791 304.73C9.0591 305.2 9.2491 305.815 9.2491 306.575C9.2491 307.145 9.1191 307.66 8.8591 308.12C8.5991 308.57 8.2091 308.925 7.6891 309.185C7.1691 309.445 6.5441 309.575 5.8141 309.575C4.7541 309.575 3.8841 309.3 3.2041 308.75C2.5241 308.19 2.1441 307.4 2.0641 306.38H3.3841C3.4541 306.98 3.6991 307.47 4.1191 307.85C4.5391 308.23 5.0991 308.42 5.7991 308.42C6.4991 308.42 7.0291 308.24 7.3891 307.88C7.7591 307.51 7.9441 307.035 7.9441 306.455C7.9441 305.705 7.6941 305.165 7.1941 304.835C6.6941 304.505 5.9391 304.34 4.9291 304.34H4.5841V303.2H4.9441C5.8641 303.19 6.5591 303.04 7.0291 302.75C7.4991 302.45 7.7341 301.99 7.7341 301.37C7.7341 300.84 7.5591 300.415 7.2091 300.095C6.8691 299.775 6.3791 299.615 5.7391 299.615C5.1191 299.615 4.6191 299.775 4.2391 300.095C3.8591 300.415 3.6341 300.845 3.5641 301.385H2.2291ZM11.0921 303.965C11.0921 302.245 11.3721 300.905 11.9321 299.945C12.4921 298.975 13.4721 298.49 14.8721 298.49C16.2621 298.49 17.2371 298.975 17.7971 299.945C18.3571 300.905 18.6371 302.245 18.6371 303.965C18.6371 305.715 18.3571 307.075 17.7971 308.045C17.2371 309.015 16.2621 309.5 14.8721 309.5C13.4721 309.5 12.4921 309.015 11.9321 308.045C11.3721 307.075 11.0921 305.715 11.0921 303.965ZM17.2871 303.965C17.2871 303.095 17.2271 302.36 17.1071 301.76C16.9971 301.15 16.7621 300.66 16.4021 300.29C16.0521 299.92 15.5421 299.735 14.8721 299.735C14.1921 299.735 13.6721 299.92 13.3121 300.29C12.9621 300.66 12.7271 301.15 12.6071 301.76C12.4971 302.36 12.4421 303.095 12.4421 303.965C12.4421 304.865 12.4971 305.62 12.6071 306.23C12.7271 306.84 12.9621 307.33 13.3121 307.7C13.6721 308.07 14.1921 308.255 14.8721 308.255C15.5421 308.255 16.0521 308.07 16.4021 307.7C16.7621 307.33 16.9971 306.84 17.1071 306.23C17.2271 305.62 17.2871 304.865 17.2871 303.965ZM20.5111 303.965C20.5111 302.245 20.7911 300.905 21.3511 299.945C21.9111 298.975 22.8911 298.49 24.2911 298.49C25.6811 298.49 26.6561 298.975 27.2161 299.945C27.7761 300.905 28.0561 302.245 28.0561 303.965C28.0561 305.715 27.7761 307.075 27.2161 308.045C26.6561 309.015 25.6811 309.5 24.2911 309.5C22.8911 309.5 21.9111 309.015 21.3511 308.045C20.7911 307.075 20.5111 305.715 20.5111 303.965ZM26.7061 303.965C26.7061 303.095 26.6461 302.36 26.5261 301.76C26.4161 301.15 26.1811 300.66 25.8211 300.29C25.4711 299.92 24.9611 299.735 24.2911 299.735C23.6111 299.735 23.0911 299.92 22.7311 300.29C22.3811 300.66 22.1461 301.15 22.0261 301.76C21.9161 302.36 21.8611 303.095 21.8611 303.965C21.8611 304.865 21.9161 305.62 22.0261 306.23C22.1461 306.84 22.3811 307.33 22.7311 307.7C23.0911 308.07 23.6111 308.255 24.2911 308.255C24.9611 308.255 25.4711 308.07 25.8211 307.7C26.1811 307.33 26.4161 306.84 26.5261 306.23C26.6461 305.62 26.7061 304.865 26.7061 303.965Z" fill="black"/>
<path d="M2.29918 381.405C3.56918 380.385 4.56418 379.55 5.28418 378.9C6.00418 378.24 6.60918 377.555 7.09918 376.845C7.59918 376.125 7.84918 375.42 7.84918 374.73C7.84918 374.08 7.68918 373.57 7.36918 373.2C7.05918 372.82 6.55418 372.63 5.85418 372.63C5.17418 372.63 4.64418 372.845 4.26418 373.275C3.89418 373.695 3.69418 374.26 3.66418 374.97H2.34418C2.38418 373.85 2.72418 372.985 3.36418 372.375C4.00418 371.765 4.82918 371.46 5.83918 371.46C6.86918 371.46 7.68418 371.745 8.28418 372.315C8.89418 372.885 9.19918 373.67 9.19918 374.67C9.19918 375.5 8.94918 376.31 8.44918 377.1C7.95918 377.88 7.39918 378.57 6.76918 379.17C6.13918 379.76 5.33418 380.45 4.35418 381.24H9.51418V382.38H2.29918V381.405ZM11.0921 376.965C11.0921 375.245 11.3721 373.905 11.9321 372.945C12.4921 371.975 13.4721 371.49 14.8721 371.49C16.2621 371.49 17.2371 371.975 17.7971 372.945C18.3571 373.905 18.6371 375.245 18.6371 376.965C18.6371 378.715 18.3571 380.075 17.7971 381.045C17.2371 382.015 16.2621 382.5 14.8721 382.5C13.4721 382.5 12.4921 382.015 11.9321 381.045C11.3721 380.075 11.0921 378.715 11.0921 376.965ZM17.2871 376.965C17.2871 376.095 17.2271 375.36 17.1071 374.76C16.9971 374.15 16.7621 373.66 16.4021 373.29C16.0521 372.92 15.5421 372.735 14.8721 372.735C14.1921 372.735 13.6721 372.92 13.3121 373.29C12.9621 373.66 12.7271 374.15 12.6071 374.76C12.4971 375.36 12.4421 376.095 12.4421 376.965C12.4421 377.865 12.4971 378.62 12.6071 379.23C12.7271 379.84 12.9621 380.33 13.3121 380.7C13.6721 381.07 14.1921 381.255 14.8721 381.255C15.5421 381.255 16.0521 381.07 16.4021 380.7C16.7621 380.33 16.9971 379.84 17.1071 379.23C17.2271 378.62 17.2871 377.865 17.2871 376.965ZM20.5111 376.965C20.5111 375.245 20.7911 373.905 21.3511 372.945C21.9111 371.975 22.8911 371.49 24.2911 371.49C25.6811 371.49 26.6561 371.975 27.2161 372.945C27.7761 373.905 28.0561 375.245 28.0561 376.965C28.0561 378.715 27.7761 380.075 27.2161 381.045C26.6561 382.015 25.6811 382.5 24.2911 382.5C22.8911 382.5 21.9111 382.015 21.3511 381.045C20.7911 380.075 20.5111 378.715 20.5111 376.965ZM26.7061 376.965C26.7061 376.095 26.6461 375.36 26.5261 374.76C26.4161 374.15 26.1811 373.66 25.8211 373.29C25.4711 372.92 24.9611 372.735 24.2911 372.735C23.6111 372.735 23.0911 372.92 22.7311 373.29C22.3811 373.66 22.1461 374.15 22.0261 374.76C21.9161 375.36 21.8611 376.095 21.8611 376.965C21.8611 377.865 21.9161 378.62 22.0261 379.23C22.1461 379.84 22.3811 380.33 22.7311 380.7C23.0911 381.07 23.6111 381.255 24.2911 381.255C24.9611 381.255 25.4711 381.07 25.8211 380.7C26.1811 380.33 26.4161 379.84 26.5261 379.23C26.6461 378.62 26.7061 377.865 26.7061 376.965Z" fill="black"/>
<path d="M5.92742 445.9V444.655H8.74742V455.5H7.36742V445.9H5.92742ZM11.0921 449.965C11.0921 448.245 11.3721 446.905 11.9321 445.945C12.4921 444.975 13.4721 444.49 14.8721 444.49C16.2621 444.49 17.2371 444.975 17.7971 445.945C18.3571 446.905 18.6371 448.245 18.6371 449.965C18.6371 451.715 18.3571 453.075 17.7971 454.045C17.2371 455.015 16.2621 455.5 14.8721 455.5C13.4721 455.5 12.4921 455.015 11.9321 454.045C11.3721 453.075 11.0921 451.715 11.0921 449.965ZM17.2871 449.965C17.2871 449.095 17.2271 448.36 17.1071 447.76C16.9971 447.15 16.7621 446.66 16.4021 446.29C16.0521 445.92 15.5421 445.735 14.8721 445.735C14.1921 445.735 13.6721 445.92 13.3121 446.29C12.9621 446.66 12.7271 447.15 12.6071 447.76C12.4971 448.36 12.4421 449.095 12.4421 449.965C12.4421 450.865 12.4971 451.62 12.6071 452.23C12.7271 452.84 12.9621 453.33 13.3121 453.7C13.6721 454.07 14.1921 454.255 14.8721 454.255C15.5421 454.255 16.0521 454.07 16.4021 453.7C16.7621 453.33 16.9971 452.84 17.1071 452.23C17.2271 451.62 17.2871 450.865 17.2871 449.965ZM20.5111 449.965C20.5111 448.245 20.7911 446.905 21.3511 445.945C21.9111 444.975 22.8911 444.49 24.2911 444.49C25.6811 444.49 26.6561 444.975 27.2161 445.945C27.7761 446.905 28.0561 448.245 28.0561 449.965C28.0561 451.715 27.7761 453.075 27.2161 454.045C26.6561 455.015 25.6811 455.5 24.2911 455.5C22.8911 455.5 21.9111 455.015 21.3511 454.045C20.7911 453.075 20.5111 451.715 20.5111 449.965ZM26.7061 449.965C26.7061 449.095 26.6461 448.36 26.5261 447.76C26.4161 447.15 26.1811 446.66 25.8211 446.29C25.4711 445.92 24.9611 445.735 24.2911 445.735C23.6111 445.735 23.0911 445.92 22.7311 446.29C22.3811 446.66 22.1461 447.15 22.0261 447.76C21.9161 448.36 21.8611 449.095 21.8611 449.965C21.8611 450.865 21.9161 451.62 22.0261 452.23C22.1461 452.84 22.3811 453.33 22.7311 453.7C23.0911 454.07 23.6111 454.255 24.2911 454.255C24.9611 454.255 25.4711 454.07 25.8211 453.7C26.1811 453.33 26.4161 452.84 26.5261 452.23C26.6461 451.62 26.7061 450.865 26.7061 449.965Z" fill="black"/>
<path d="M20.5111 522.965C20.5111 521.245 20.7911 519.905 21.3511 518.945C21.9111 517.975 22.8911 517.49 24.2911 517.49C25.6811 517.49 26.6561 517.975 27.2161 518.945C27.7761 519.905 28.0561 521.245 28.0561 522.965C28.0561 524.715 27.7761 526.075 27.2161 527.045C26.6561 528.015 25.6811 528.5 24.2911 528.5C22.8911 528.5 21.9111 528.015 21.3511 527.045C20.7911 526.075 20.5111 524.715 20.5111 522.965ZM26.7061 522.965C26.7061 522.095 26.6461 521.36 26.5261 520.76C26.4161 520.15 26.1811 519.66 25.8211 519.29C25.4711 518.92 24.9611 518.735 24.2911 518.735C23.6111 518.735 23.0911 518.92 22.7311 519.29C22.3811 519.66 22.1461 520.15 22.0261 520.76C21.9161 521.36 21.8611 522.095 21.8611 522.965C21.8611 523.865 21.9161 524.62 22.0261 525.23C22.1461 525.84 22.3811 526.33 22.7311 526.7C23.0911 527.07 23.6111 527.255 24.2911 527.255C24.9611 527.255 25.4711 527.07 25.8211 526.7C26.1811 526.33 26.4161 525.84 26.5261 525.23C26.6461 524.62 26.7061 523.865 26.7061 522.965Z" fill="black"/>
</svg>
