<svg width="384" height="438" viewBox="0 0 384 438" fill="none" xmlns="http://www.w3.org/2000/svg">
<path d="M149.08 202.77L188.83 185.18V204.35L198.31 200.77L195.6 148.98L151.92 149.41L149.08 202.77Z" fill="#677381"/>
<path fill-rule="evenodd" clip-rule="evenodd" d="M279.39 279.221V196.211L230.61 218.871V196.211L182 218.791V196.211L117.4 226.211V279.221H106V296.101H290.62V279.221H279.39ZM187 273.591H145.46V235.131H187V273.591ZM251.23 273.591H209.69V235.131H251.23V273.591Z" fill="#677381"/>
<g clip-path="url(#clip0_504_1620)">
<path d="M224.048 83.0598C230.637 83.0598 235.978 77.7184 235.978 71.1295C235.978 64.5406 230.637 59.1992 224.048 59.1992C217.459 59.1992 212.118 64.5406 212.118 71.1295C212.118 77.7184 217.459 83.0598 224.048 83.0598Z" fill="#B5B6B6"/>
<path d="M193.014 61.72C199.603 61.72 204.944 56.3786 204.944 49.7897C204.944 43.2007 199.603 37.8594 193.014 37.8594C186.425 37.8594 181.083 43.2007 181.083 49.7897C181.083 56.3786 186.425 61.72 193.014 61.72Z" fill="#B5B6B6"/>
<path d="M125.856 80.1711C132.445 80.1711 137.786 74.8297 137.786 68.2408C137.786 61.6519 132.445 56.3105 125.856 56.3105C119.267 56.3105 113.926 61.6519 113.926 68.2408C113.926 74.8297 119.267 80.1711 125.856 80.1711Z" fill="#B5B6B6"/>
<path d="M129.538 39.245C134.094 39.245 137.786 35.552 137.786 30.9965C137.786 26.441 134.094 22.748 129.538 22.748C124.983 22.748 121.29 26.441 121.29 30.9965C121.29 35.552 124.983 39.245 129.538 39.245Z" fill="#B5B6B6"/>
<path d="M143.864 7.36363C145.897 7.36363 147.546 5.71522 147.546 3.68181C147.546 1.6484 145.897 0 143.864 0C141.831 0 140.182 1.6484 140.182 3.68181C140.182 5.71522 141.831 7.36363 143.864 7.36363Z" fill="#B5B6B6"/>
<path d="M232.162 24.6019C234.196 24.6019 235.844 22.9535 235.844 20.9201C235.844 18.8867 234.196 17.2383 232.162 17.2383C230.129 17.2383 228.48 18.8867 228.48 20.9201C228.48 22.9535 230.129 24.6019 232.162 24.6019Z" fill="#B5B6B6"/>
<path d="M96.2595 46.6039C98.2929 46.6039 99.9413 44.9555 99.9413 42.922C99.9413 40.8886 98.2929 39.2402 96.2595 39.2402C94.226 39.2402 92.5776 40.8886 92.5776 42.922C92.5776 44.9555 94.226 46.6039 96.2595 46.6039Z" fill="#B5B6B6"/>
<path d="M241.784 49.4538C243.557 45.1746 241.525 40.2687 237.246 38.4962C232.966 36.7237 228.061 38.7558 226.288 43.035C224.516 47.3142 226.548 52.2201 230.827 53.9926C235.106 55.7651 240.012 53.733 241.784 49.4538Z" fill="#B5B6B6"/>
<path d="M209.149 16.5359C210.922 12.2566 208.89 7.35075 204.61 5.57824C200.331 3.80574 195.425 5.83782 193.653 10.117C191.88 14.3962 193.912 19.3021 198.192 21.0746C202.471 22.8472 207.377 20.8151 209.149 16.5359Z" fill="#B5B6B6"/>
<path d="M166.963 51.2663C168.735 46.9871 166.703 42.0812 162.424 40.3087C158.145 38.5362 153.239 40.5683 151.466 44.8475C149.694 49.1267 151.726 54.0326 156.005 55.8051C160.284 57.5776 165.19 55.5455 166.963 51.2663Z" fill="#B5B6B6"/>
<path d="M174.945 21.1815C176.115 18.358 174.774 15.1211 171.95 13.9516C169.127 12.7821 165.89 14.1228 164.721 16.9463C163.551 19.7697 164.892 23.0067 167.715 24.1762C170.539 25.3457 173.776 24.0049 174.945 21.1815Z" fill="#B5B6B6"/>
<path d="M202.851 90.6423C201.137 90.6423 199.471 90.8538 197.87 91.2207C194.978 78.0775 183.281 68.2363 169.27 68.2363C153.438 68.2363 140.571 80.8054 140.023 96.5039C139.677 96.4866 139.341 96.4521 138.991 96.4521C128.299 96.4521 119.632 105.119 119.632 115.811C119.632 126.502 128.299 135.169 138.991 135.169H202.851C215.148 135.169 225.114 125.199 225.114 112.906C225.114 100.613 215.148 90.638 202.851 90.638V90.6423Z" fill="#B5B6B6"/>
<path d="M142.278 111.279C142.278 108.991 142.773 106.956 143.763 105.174C144.753 103.37 146.128 101.973 147.888 100.983C149.67 99.9705 151.683 99.4645 153.927 99.4645C156.677 99.4645 159.031 100.191 160.989 101.643C162.947 103.095 164.256 105.075 164.916 107.583H158.712C158.25 106.615 157.59 105.878 156.732 105.372C155.896 104.866 154.939 104.613 153.861 104.613C152.123 104.613 150.715 105.218 149.637 106.428C148.559 107.638 148.02 109.255 148.02 111.279C148.02 113.303 148.559 114.92 149.637 116.13C150.715 117.34 152.123 117.945 153.861 117.945C154.939 117.945 155.896 117.692 156.732 117.186C157.59 116.68 158.25 115.943 158.712 114.975H164.916C164.256 117.483 162.947 119.463 160.989 120.915C159.031 122.345 156.677 123.06 153.927 123.06C151.683 123.06 149.67 122.565 147.888 121.575C146.128 120.563 144.753 119.166 143.763 117.384C142.773 115.602 142.278 113.567 142.278 111.279ZM179.328 123.126C177.15 123.126 175.148 122.62 173.322 121.608C171.518 120.596 170.077 119.188 168.999 117.384C167.943 115.558 167.415 113.512 167.415 111.246C167.415 108.98 167.943 106.945 168.999 105.141C170.077 103.337 171.518 101.929 173.322 100.917C175.148 99.9045 177.15 99.3985 179.328 99.3985C181.506 99.3985 183.497 99.9045 185.301 100.917C187.127 101.929 188.557 103.337 189.591 105.141C190.647 106.945 191.175 108.98 191.175 111.246C191.175 113.512 190.647 115.558 189.591 117.384C188.535 119.188 187.105 120.596 185.301 121.608C183.497 122.62 181.506 123.126 179.328 123.126ZM179.328 117.978C181.176 117.978 182.65 117.362 183.75 116.13C184.872 114.898 185.433 113.27 185.433 111.246C185.433 109.2 184.872 107.572 183.75 106.362C182.65 105.13 181.176 104.514 179.328 104.514C177.458 104.514 175.962 105.119 174.84 106.329C173.74 107.539 173.19 109.178 173.19 111.246C173.19 113.292 173.74 114.931 174.84 116.163C175.962 117.373 177.458 117.978 179.328 117.978ZM193.048 120.155C193.501 119.795 193.708 119.628 193.668 119.655C194.975 118.575 196.001 117.688 196.748 116.995C197.508 116.301 198.148 115.575 198.668 114.815C199.188 114.055 199.448 113.315 199.448 112.595C199.448 112.048 199.321 111.621 199.068 111.315C198.815 111.008 198.435 110.855 197.928 110.855C197.421 110.855 197.021 111.048 196.728 111.435C196.448 111.808 196.308 112.341 196.308 113.035H193.008C193.035 111.901 193.275 110.955 193.728 110.195C194.195 109.435 194.801 108.875 195.548 108.515C196.308 108.155 197.148 107.975 198.068 107.975C199.655 107.975 200.848 108.381 201.648 109.195C202.461 110.008 202.868 111.068 202.868 112.375C202.868 113.801 202.381 115.128 201.408 116.355C200.435 117.568 199.195 118.755 197.688 119.915H203.088V122.695H193.048V120.155Z" fill="white"/>
</g>
<rect width="384" height="142" transform="translate(0 296)" fill="#677381"/>
<path d="M64.9316 351.072C64.9316 352.948 66.3262 354.675 68.6172 355.389L67.8535 356.634C66.1436 356.094 64.8486 354.965 64.1846 353.513C63.5205 355.073 62.2339 356.285 60.4824 356.866L59.7188 355.638C61.9932 354.907 63.3711 353.081 63.3711 351.072V350.724H60.1338V349.445H63.3711V347.636H64.9482V349.445H68.1689V350.724H64.9316V351.072ZM72.1201 347.553V358.626H70.543V353.33H67.6543V352.052H70.543V347.553H72.1201ZM72.5186 360.817V362.096H62.458V357.646H64.0352V360.817H72.5186ZM86.8125 347.553V358.51H85.2354V354.642H81.5498C80.8442 355.48 79.7651 355.986 78.5283 355.986C76.2871 355.986 74.627 354.426 74.627 352.234C74.627 350.026 76.2871 348.466 78.5283 348.449C79.7568 348.458 80.8276 348.964 81.5332 349.794H85.2354V347.553H86.8125ZM87.2109 360.817V362.096H77.1504V357.364H78.7275V360.817H87.2109ZM78.5283 349.86C77.1338 349.86 76.1377 350.823 76.1377 352.234C76.1377 353.646 77.1338 354.592 78.5283 354.592C79.873 354.592 80.8857 353.646 80.8857 352.234C80.8857 350.823 79.873 349.86 78.5283 349.86ZM82.2305 351.072C82.3301 351.429 82.3965 351.819 82.3965 352.234C82.3965 352.633 82.3384 353.015 82.2305 353.363H85.2354V351.072H82.2305ZM100.691 347.536V353.463H102.999V354.774H100.691V362.395H99.1143V347.536H100.691ZM96.8066 349.097C96.79 353.396 94.8975 357.231 90 359.655L89.1201 358.427C92.8472 356.567 94.8726 353.878 95.1963 350.408H89.8672V349.097H96.8066ZM111.35 349.645C111.35 352.068 113.939 354.359 116.795 354.874L116.064 356.186C113.69 355.671 111.499 354.11 110.536 352.019C109.557 354.094 107.374 355.654 104.991 356.186L104.294 354.874C107.116 354.343 109.689 352.068 109.689 349.645V348.516H111.35V349.645ZM117.409 359.141V360.452H103.796V359.141H117.409ZM136.219 354.525V355.82H122.639V354.525H136.219ZM134.642 351.952V353.23H124.332V348.067H134.542V349.362H125.893V351.952H134.642ZM129.412 356.982C132.616 356.982 134.542 357.962 134.542 359.688C134.542 361.415 132.616 362.395 129.412 362.378C126.191 362.395 124.249 361.415 124.249 359.688C124.249 357.962 126.191 356.982 129.412 356.982ZM129.412 358.194C127.138 358.211 125.843 358.742 125.843 359.688C125.843 360.635 127.138 361.166 129.412 361.166C131.653 361.166 132.965 360.635 132.965 359.688C132.965 358.742 131.653 358.211 129.412 358.194ZM153.136 347.536V353.762H155.377V355.09H153.136V362.411H151.559V347.536H153.136ZM141.299 358.36C142.469 358.36 143.831 358.36 145.25 358.311V356.8C143.573 356.567 142.478 355.555 142.494 354.11C142.478 352.434 143.922 351.321 146.047 351.321C148.155 351.321 149.616 352.434 149.633 354.11C149.616 355.555 148.504 356.576 146.827 356.816V358.244C148.147 358.194 149.475 358.086 150.712 357.912L150.812 359.074C147.591 359.655 144.104 359.672 141.548 359.672L141.299 358.36ZM150.496 349.296V350.558H141.581V349.296H145.25V347.569H146.827V349.296H150.496ZM146.047 352.55C144.802 352.55 143.972 353.164 143.972 354.11C143.972 355.057 144.802 355.638 146.047 355.638C147.292 355.638 148.122 355.057 148.122 354.11C148.122 353.164 147.292 352.55 146.047 352.55ZM161.42 349.91C161.403 351.886 162.765 353.745 165.006 354.492L164.143 355.754C162.499 355.165 161.287 353.961 160.656 352.45C160 354.11 158.739 355.414 157.004 356.069L156.157 354.791C158.481 353.978 159.826 352.019 159.843 349.827V348.3H161.42V349.91ZM168.575 357.132V362.411H166.998V358.377H158.498V357.132H168.575ZM168.575 347.536V356.352H166.998V351.836H163.86V350.541H166.998V347.536H168.575ZM183.268 347.553V358.51H181.69V354.642H178.005C177.299 355.48 176.22 355.986 174.983 355.986C172.742 355.986 171.082 354.426 171.082 352.234C171.082 350.026 172.742 348.466 174.983 348.449C176.212 348.458 177.283 348.964 177.988 349.794H181.69V347.553H183.268ZM183.666 360.817V362.096H173.605V357.364H175.183V360.817H183.666ZM174.983 349.86C173.589 349.86 172.593 350.823 172.593 352.234C172.593 353.646 173.589 354.592 174.983 354.592C176.328 354.592 177.341 353.646 177.341 352.234C177.341 350.823 176.328 349.86 174.983 349.86ZM178.686 351.072C178.785 351.429 178.852 351.819 178.852 352.234C178.852 352.633 178.793 353.015 178.686 353.363H181.69V351.072H178.686ZM199.172 359.307V360.635H185.559V359.307H189.277V356.684H187.219V351.952H195.951V349.877H187.186V348.582H197.512V353.23H188.779V355.389H197.86V356.684H195.603V359.307H199.172ZM190.805 359.307H194.059V356.684H190.805V359.307ZM217.135 347.536V362.411H215.624V354.691H213.781V361.697H212.304V347.935H213.781V353.413H215.624V347.536H217.135ZM210.826 349.429C210.81 353.347 209.515 356.85 205.265 359.257L204.352 358.161C207.655 356.293 209.05 353.762 209.299 350.724H204.982V349.429H210.826ZM231.412 347.536V355.223H229.852V347.536H231.412ZM231.429 355.903V359.589H223.228V361.033H231.927V362.262H221.7V358.443H229.868V357.115H221.65V355.903H231.429ZM224.605 349.611C224.605 351.421 226.033 353.098 228.341 353.762L227.577 354.974C225.826 354.451 224.506 353.33 223.842 351.902C223.178 353.479 221.825 354.716 219.99 355.289L219.26 354.044C221.567 353.33 222.995 351.537 223.012 349.611H219.675V348.333H227.876V349.611H224.605ZM234.683 356.418C234.699 353.297 235.579 350.69 237.14 348.466H238.767C237.621 350.109 236.525 353.463 236.525 356.418C236.525 359.39 237.621 362.727 238.767 364.387H237.14C235.579 362.162 234.699 359.556 234.683 356.418ZM240.543 361V348.98H244.826C247.615 348.98 248.993 350.541 248.993 352.749C248.993 354.368 248.263 355.596 246.802 356.136L249.458 361H247.383L244.942 356.468H244.826H242.369V361H240.543ZM242.369 354.891H244.644C246.42 354.891 247.15 354.11 247.15 352.749C247.15 351.388 246.42 350.541 244.644 350.541H242.369V354.891ZM254.638 361.183C251.981 361.183 250.354 359.356 250.354 356.551C250.354 353.778 252.015 351.869 254.521 351.869C256.58 351.869 258.522 353.147 258.522 356.401V357.032H252.114C252.164 358.742 253.168 359.722 254.654 359.722C255.667 359.722 256.314 359.29 256.613 358.742H258.406C258.008 360.203 256.613 361.183 254.638 361.183ZM252.131 355.704H256.779C256.779 354.326 255.899 353.33 254.538 353.33C253.119 353.33 252.197 354.426 252.131 355.704ZM264.582 351.985V353.396H262.64V361H260.863V353.396H259.469V351.985H260.863V350.939C260.863 349.329 261.893 348.416 263.553 348.416C263.984 348.416 264.416 348.466 264.765 348.532V350.01C264.433 349.96 264.184 349.943 264.018 349.943C263.071 349.943 262.64 350.325 262.64 351.205V351.985H264.582ZM269.646 361.183C267.089 361.183 265.429 359.323 265.429 356.534C265.429 353.729 267.089 351.869 269.646 351.869C272.186 351.869 273.846 353.729 273.846 356.534C273.846 359.323 272.186 361.183 269.646 361.183ZM269.646 359.705C271.272 359.705 272.053 358.261 272.053 356.534C272.053 354.808 271.272 353.33 269.646 353.33C267.985 353.33 267.205 354.808 267.205 356.534C267.205 358.261 267.985 359.705 269.646 359.705ZM275.589 361V351.985H277.299V353.413H277.398C277.73 352.45 278.627 351.853 279.689 351.853C279.905 351.853 280.254 351.869 280.437 351.886V353.579C280.287 353.546 279.872 353.479 279.507 353.479C278.278 353.479 277.365 354.326 277.365 355.505V361H275.589ZM281.765 361V351.985H283.475V353.463H283.574C283.956 352.45 284.836 351.869 286.031 351.869C287.227 351.869 288.073 352.467 288.455 353.463H288.555C288.986 352.483 289.949 351.869 291.261 351.869C292.888 351.869 294.05 352.898 294.05 354.957V361H292.273V355.123C292.273 353.911 291.51 353.396 290.58 353.396C289.435 353.396 288.787 354.177 288.787 355.256V361H287.027V355.023C287.027 354.044 286.347 353.396 285.384 353.396C284.388 353.396 283.541 354.227 283.541 355.438V361H281.765ZM296.191 361V351.985H297.968V361H296.191ZM297.088 350.591C296.474 350.591 295.959 350.126 295.959 349.545C295.959 348.964 296.474 348.499 297.088 348.499C297.686 348.499 298.2 348.964 298.2 349.545C298.2 350.126 297.686 350.591 297.088 350.591ZM301.902 355.654V361H300.126V351.985H301.836V353.463H301.936C302.367 352.5 303.247 351.869 304.592 351.869C306.451 351.869 307.663 353.031 307.663 355.272V361H305.903V355.488C305.903 354.177 305.189 353.396 303.994 353.396C302.782 353.396 301.902 354.21 301.902 355.654ZM313.606 364.569C311.332 364.569 309.838 363.557 309.672 361.88H311.481C311.647 362.727 312.444 363.142 313.623 363.142C315.034 363.142 315.931 362.544 315.931 361.133V359.356H315.814C315.499 359.938 314.852 360.867 313.191 360.867C311.066 360.867 309.423 359.273 309.423 356.401C309.423 353.529 311.033 351.869 313.208 351.869C314.885 351.869 315.499 352.882 315.831 353.446H315.947V351.985H317.674V361.199C317.674 363.507 315.931 364.569 313.606 364.569ZM313.59 359.406C315.101 359.406 315.947 358.294 315.947 356.435C315.947 354.608 315.117 353.38 313.59 353.38C312.013 353.38 311.232 354.708 311.232 356.435C311.232 358.194 312.046 359.406 313.59 359.406ZM323.385 356.418C323.368 359.556 322.488 362.162 320.928 364.387H319.301C320.446 362.727 321.542 359.39 321.542 356.418C321.542 353.463 320.446 350.109 319.301 348.466H320.928C322.488 350.69 323.368 353.297 323.385 356.418ZM119.966 373.848C119.949 375.823 122.373 377.683 125.295 378.064L124.681 379.359C122.249 378.969 120.107 377.708 119.152 375.956C118.173 377.716 116.04 378.969 113.624 379.359L112.993 378.064C115.915 377.683 118.306 375.84 118.322 373.848V373.034H119.966V373.848ZM125.909 380.82V382.115H119.866V387.411H118.322V382.115H112.346V380.82H125.909ZM140.651 384.224V385.519H127.038V384.224H132.998V380.688H134.559V384.224H140.651ZM134.592 374.611C134.592 376.969 137.182 379.177 140.054 379.658L139.373 380.953C136.966 380.472 134.75 378.986 133.762 376.936C132.782 378.978 130.591 380.488 128.2 380.953L127.503 379.658C130.358 379.177 132.932 376.969 132.932 374.611V373.482H134.592V374.611ZM146.279 375.392C146.279 377.019 147.325 378.662 149.251 379.393L148.421 380.604C147.035 380.073 146.063 379.061 145.532 377.832C144.984 379.218 143.963 380.422 142.527 381.036L141.664 379.808C143.673 378.928 144.752 377.052 144.752 375.392V373.466H146.279V375.392ZM154.414 372.553V381.7H152.92V377.716H151.177V381.235H149.716V372.818H151.177V376.421H152.92V372.553H154.414ZM149.434 381.982C152.538 381.982 154.48 382.995 154.497 384.688C154.48 386.382 152.538 387.395 149.434 387.378C146.329 387.395 144.387 386.382 144.403 384.688C144.387 382.995 146.329 381.982 149.434 381.982ZM149.434 383.194C147.275 383.194 145.947 383.742 145.964 384.688C145.947 385.635 147.275 386.183 149.434 386.166C151.592 386.183 152.903 385.635 152.92 384.688C152.903 383.742 151.592 383.194 149.434 383.194ZM161.586 375.259C161.586 377.251 162.98 379.127 165.238 379.891L164.425 381.136C162.756 380.546 161.52 379.359 160.855 377.865C160.208 379.534 158.93 380.837 157.187 381.484L156.307 380.239C158.664 379.426 160.025 377.434 160.025 375.209V373.449H161.586V375.259ZM168.11 372.52V377.002H170.269V378.347H168.11V383.493H166.533V372.52H168.11ZM168.758 385.817V387.096H158.697V382.431H160.308V385.817H168.758ZM177.889 373.433C181.01 373.433 183.384 375.076 183.384 377.583C183.384 380.09 181.01 381.75 177.889 381.733C174.768 381.75 172.41 380.09 172.41 377.583C172.41 375.076 174.768 373.433 177.889 373.433ZM177.889 374.711C175.614 374.694 173.904 375.856 173.921 377.583C173.904 379.326 175.614 380.438 177.889 380.438C180.163 380.438 181.856 379.326 181.856 377.583C181.856 375.856 180.163 374.694 177.889 374.711ZM184.729 384.174V385.485H171.115V384.174H184.729ZM199.421 384.307V385.635H185.808V384.307H191.801V381.7H187.468V376.969H196.2V374.877H187.435V373.582H197.761V378.23H189.028V380.405H198.109V381.7H193.361V384.307H199.421ZM213.466 377.898C213.167 376.354 211.889 375.491 210.361 375.491C208.286 375.491 206.742 377.085 206.742 379.99C206.742 382.912 208.303 384.489 210.361 384.489C211.872 384.489 213.15 383.643 213.466 382.115L215.309 382.132C214.927 384.506 212.984 386.166 210.345 386.166C207.207 386.166 204.933 383.825 204.933 379.99C204.933 376.139 207.224 373.814 210.345 373.814C212.885 373.814 214.894 375.309 215.309 377.898H213.466ZM227.727 379.99C227.727 383.825 225.419 386.166 222.314 386.166C219.177 386.166 216.886 383.825 216.886 379.99C216.886 376.139 219.177 373.814 222.314 373.814C225.419 373.814 227.727 376.139 227.727 379.99ZM225.917 379.99C225.917 377.068 224.373 375.491 222.314 375.491C220.239 375.491 218.695 377.068 218.695 379.99C218.695 382.912 220.239 384.489 222.314 384.489C224.373 384.489 225.917 382.912 225.917 379.99ZM229.619 386V384.672L233.786 380.472C235.098 379.094 235.762 378.33 235.762 377.284C235.762 376.105 234.799 375.342 233.537 375.342C232.209 375.342 231.346 376.188 231.346 377.467H229.619C229.603 375.275 231.279 373.814 233.57 373.814C235.895 373.814 237.488 375.275 237.505 377.234C237.488 378.579 236.857 379.642 234.6 381.866L232.159 384.34V384.439H237.704V386H229.619ZM245.49 373.167V375.192H249.392V373.167H250.952V379.658H243.946V373.167H245.49ZM245.49 378.396H249.392V376.404H245.49V378.396ZM255.053 372.536V375.657H257.211V376.936H255.053V380.189H253.476V372.536H255.053ZM255.053 380.837V384.589H247.018V386H255.567V387.262H245.474V383.427H253.492V382.082H245.44V380.837H255.053ZM262.606 375.392C262.606 377.019 263.652 378.662 265.578 379.393L264.748 380.604C263.362 380.073 262.391 379.061 261.859 377.832C261.312 379.218 260.291 380.422 258.854 381.036L257.991 379.808C260 378.928 261.079 377.052 261.079 375.392V373.466H262.606V375.392ZM270.741 372.553V381.7H269.247V377.716H267.504V381.235H266.043V372.818H267.504V376.421H269.247V372.553H270.741ZM265.761 381.982C268.865 381.982 270.808 382.995 270.824 384.688C270.808 386.382 268.865 387.395 265.761 387.378C262.656 387.395 260.714 386.382 260.73 384.688C260.714 382.995 262.656 381.982 265.761 381.982ZM265.761 383.194C263.603 383.194 262.274 383.742 262.291 384.688C262.274 385.635 263.603 386.183 265.761 386.166C267.919 386.183 269.23 385.635 269.247 384.688C269.23 383.742 267.919 383.194 265.761 383.194Z" fill="white"/>
<defs>
<clipPath id="clip0_504_1620">
<rect width="149.845" height="135.174" fill="white" transform="translate(92.5776)"/>
</clipPath>
</defs>
</svg>
