<svg width="384" height="462" viewBox="0 0 384 462" fill="none" xmlns="http://www.w3.org/2000/svg">
<path d="M285.072 152.896H259.776V164.447H285.072V152.896Z" fill="#68F394"/>
<path d="M248.452 152.896H223.156V164.447H248.452V152.896Z" fill="#68F394"/>
<path fill-rule="evenodd" clip-rule="evenodd" d="M226.502 171.32V219.63L245.114 227.503V171.32H226.502Z" fill="#68F394"/>
<path fill-rule="evenodd" clip-rule="evenodd" d="M263.114 171.32V235.107L281.734 242.98V171.32H263.114Z" fill="#68F394"/>
<path fill-rule="evenodd" clip-rule="evenodd" d="M221.652 270.458H291.968V256.09C291.968 255.151 291.506 254.342 290.816 254.052L221.652 224.816V270.448V270.458Z" fill="#68F394"/>
<path fill-rule="evenodd" clip-rule="evenodd" d="M298.307 277.33H221.652V323.851C221.652 324.581 221.581 325.3 221.448 325.989H298.307C299.24 325.989 300 325.02 300 323.851V279.479C300 278.29 299.248 277.32 298.307 277.32V277.33ZM241.431 306.616C241.431 307.625 240.788 308.454 239.989 308.454H232.223C231.431 308.454 230.781 307.635 230.781 306.616V296.714C230.781 295.705 231.424 294.876 232.223 294.876H239.989C240.78 294.876 241.431 295.695 241.431 296.714V306.616ZM266.037 306.616C266.037 307.625 265.394 308.454 264.595 308.454H256.845C256.053 308.454 255.395 307.635 255.395 306.616V296.714C255.395 295.705 256.053 294.876 256.845 294.876H264.595C265.387 294.876 266.037 295.695 266.037 296.714V306.616ZM290.651 306.616C290.651 307.625 289.993 308.454 289.201 308.454H281.451C280.66 308.454 280.009 307.635 280.009 306.616V296.714C280.009 295.705 280.652 294.876 281.451 294.876H289.201C289.993 294.876 290.651 295.695 290.651 296.714V306.616Z" fill="#68F394"/>
<path fill-rule="evenodd" clip-rule="evenodd" d="M216.261 193.371C216.261 192.182 215.508 191.213 214.584 191.213H155.387C154.463 191.213 153.71 192.182 153.71 193.371V323.851C153.71 325.03 154.471 325.99 155.387 325.99H175.355V292.907C175.355 291.718 176.115 290.749 177.032 290.749H192.932C193.856 290.749 194.609 291.718 194.609 292.907V325.99H214.576C215.501 325.99 216.253 325.02 216.253 323.851V193.371H216.261ZM178.999 260.275V271.725C178.999 272.884 178.246 273.843 177.329 273.843H168.357C167.44 273.843 166.688 272.894 166.688 271.725V260.275C166.688 259.116 167.44 258.157 168.357 258.157H177.329C178.254 258.157 178.999 259.106 178.999 260.275ZM178.999 233.228V244.678C178.999 245.837 178.246 246.796 177.329 246.796H168.357C167.44 246.796 166.688 245.847 166.688 244.678V233.228C166.688 232.069 167.44 231.109 168.357 231.109H177.329C178.254 231.109 178.999 232.059 178.999 233.228ZM178.999 206.18V217.621C178.999 218.8 178.246 219.749 177.329 219.749H168.357C167.44 219.749 166.688 218.79 166.688 217.621V206.18C166.688 205.021 167.44 204.062 168.357 204.062H177.329C178.254 204.062 178.999 205.011 178.999 206.18ZM203.284 271.715C203.284 272.874 202.531 273.833 201.614 273.833H192.642C191.717 273.833 190.973 272.884 190.973 271.715V260.265C190.973 259.106 191.725 258.147 192.642 258.147H201.614C202.531 258.147 203.284 259.096 203.284 260.265V271.715ZM203.284 244.668C203.284 245.827 202.531 246.786 201.614 246.786H192.642C191.717 246.786 190.973 245.837 190.973 244.668V233.218C190.973 232.059 191.725 231.099 192.642 231.099H201.614C202.531 231.099 203.284 232.049 203.284 233.218V244.668ZM203.284 217.611C203.284 218.79 202.531 219.739 201.614 219.739H192.642C191.717 219.739 190.973 218.78 190.973 217.611V206.17C190.973 205.011 191.725 204.052 192.642 204.052H201.614C202.531 204.052 203.284 205.001 203.284 206.17V217.611Z" fill="#68F394"/>
<path d="M67 238.344V326H148.671V299.702H135.749V290.939H148.671V262.533L133.045 238.354H123.634V268.099L104.231 238.354H94.8271V266.73L76.4194 238.354H67.0078L67 238.344ZM115.123 290.939H128.876V299.702H115.123V290.939ZM94.498 290.939H108.251V299.702H94.498V290.939ZM73.8726 290.939H87.6255V299.702H73.8726V290.939Z" fill="#68F394"/>
<g clip-path="url(#clip0_504_1624)">
<path d="M327.47 83.0598C334.059 83.0598 339.401 77.7184 339.401 71.1295C339.401 64.5406 334.059 59.1992 327.47 59.1992C320.881 59.1992 315.54 64.5406 315.54 71.1295C315.54 77.7184 320.881 83.0598 327.47 83.0598Z" fill="#B5B6B6"/>
<path d="M296.436 61.72C303.025 61.72 308.366 56.3786 308.366 49.7897C308.366 43.2007 303.025 37.8594 296.436 37.8594C289.847 37.8594 284.506 43.2007 284.506 49.7897C284.506 56.3786 289.847 61.72 296.436 61.72Z" fill="#B5B6B6"/>
<path d="M229.278 80.1711C235.867 80.1711 241.209 74.8297 241.209 68.2408C241.209 61.6519 235.867 56.3105 229.278 56.3105C222.69 56.3105 217.348 61.6519 217.348 68.2408C217.348 74.8297 222.69 80.1711 229.278 80.1711Z" fill="#B5B6B6"/>
<path d="M232.96 39.245C237.516 39.245 241.209 35.552 241.209 30.9965C241.209 26.441 237.516 22.748 232.96 22.748C228.405 22.748 224.712 26.441 224.712 30.9965C224.712 35.552 228.405 39.245 232.96 39.245Z" fill="#B5B6B6"/>
<path d="M247.286 7.36363C249.32 7.36363 250.968 5.71522 250.968 3.68181C250.968 1.6484 249.32 0 247.286 0C245.253 0 243.604 1.6484 243.604 3.68181C243.604 5.71522 245.253 7.36363 247.286 7.36363Z" fill="#B5B6B6"/>
<path d="M335.585 24.6019C337.618 24.6019 339.266 22.9535 339.266 20.9201C339.266 18.8867 337.618 17.2383 335.585 17.2383C333.551 17.2383 331.903 18.8867 331.903 20.9201C331.903 22.9535 333.551 24.6019 335.585 24.6019Z" fill="#B5B6B6"/>
<path d="M199.682 46.6039C201.715 46.6039 203.364 44.9555 203.364 42.922C203.364 40.8886 201.715 39.2402 199.682 39.2402C197.648 39.2402 196 40.8886 196 42.922C196 44.9555 197.648 46.6039 199.682 46.6039Z" fill="#B5B6B6"/>
<path d="M345.207 49.4538C346.979 45.1746 344.947 40.2687 340.668 38.4962C336.389 36.7237 331.483 38.7558 329.71 43.035C327.938 47.3142 329.97 52.2201 334.249 53.9926C338.528 55.7651 343.434 53.733 345.207 49.4538Z" fill="#B5B6B6"/>
<path d="M312.572 16.5359C314.344 12.2566 312.312 7.35075 308.033 5.57824C303.754 3.80574 298.848 5.83782 297.075 10.117C295.303 14.3962 297.335 19.3021 301.614 21.0746C305.893 22.8472 310.799 20.8151 312.572 16.5359Z" fill="#B5B6B6"/>
<path d="M270.385 51.2663C272.158 46.9871 270.125 42.0812 265.846 40.3087C261.567 38.5362 256.661 40.5683 254.889 44.8475C253.116 49.1267 255.148 54.0326 259.427 55.8051C263.707 57.5776 268.613 55.5455 270.385 51.2663Z" fill="#B5B6B6"/>
<path d="M278.368 21.1815C279.537 18.358 278.196 15.1211 275.373 13.9516C272.549 12.7821 269.312 14.1228 268.143 16.9463C266.973 19.7697 268.314 23.0067 271.138 24.1762C273.961 25.3457 277.198 24.0049 278.368 21.1815Z" fill="#B5B6B6"/>
<path d="M306.273 90.6423C304.56 90.6423 302.894 90.8538 301.292 91.2207C298.4 78.0775 286.703 68.2363 272.692 68.2363C256.86 68.2363 243.993 80.8054 243.445 96.5039C243.1 96.4866 242.763 96.4521 242.413 96.4521C231.722 96.4521 223.055 105.119 223.055 115.811C223.055 126.502 231.722 135.169 242.413 135.169H306.273C318.57 135.169 328.537 125.199 328.537 112.906C328.537 100.613 318.57 90.638 306.273 90.638V90.6423Z" fill="#B5B6B6"/>
<path d="M269.682 123.126C267.504 123.126 265.502 122.62 263.676 121.608C261.872 120.596 260.431 119.188 259.353 117.384C258.297 115.558 257.769 113.512 257.769 111.246C257.769 108.98 258.297 106.945 259.353 105.141C260.431 103.337 261.872 101.929 263.676 100.917C265.502 99.9045 267.504 99.3985 269.682 99.3985C271.86 99.3985 273.851 99.9045 275.655 100.917C277.481 101.929 278.911 103.337 279.945 105.141C281.001 106.945 281.529 108.98 281.529 111.246C281.529 113.512 281.001 115.558 279.945 117.384C278.889 119.188 277.459 120.596 275.655 121.608C273.851 122.62 271.86 123.126 269.682 123.126ZM269.682 117.978C271.53 117.978 273.004 117.362 274.104 116.13C275.226 114.898 275.787 113.27 275.787 111.246C275.787 109.2 275.226 107.572 274.104 106.362C273.004 105.13 271.53 104.514 269.682 104.514C267.812 104.514 266.316 105.119 265.194 106.329C264.094 107.539 263.544 109.178 263.544 111.246C263.544 113.292 264.094 114.931 265.194 116.163C266.316 117.373 267.812 117.978 269.682 117.978ZM283.402 120.155C283.855 119.795 284.062 119.628 284.022 119.655C285.329 118.575 286.355 117.688 287.102 116.995C287.862 116.301 288.502 115.575 289.022 114.815C289.542 114.055 289.802 113.315 289.802 112.595C289.802 112.048 289.675 111.621 289.422 111.315C289.169 111.008 288.789 110.855 288.282 110.855C287.775 110.855 287.375 111.048 287.082 111.435C286.802 111.808 286.662 112.341 286.662 113.035H283.362C283.389 111.901 283.629 110.955 284.082 110.195C284.549 109.435 285.155 108.875 285.902 108.515C286.662 108.155 287.502 107.975 288.422 107.975C290.009 107.975 291.202 108.381 292.002 109.195C292.815 110.008 293.222 111.068 293.222 112.375C293.222 113.801 292.735 115.128 291.762 116.355C290.789 117.568 289.549 118.755 288.042 119.915H293.442V122.695H283.402V120.155Z" fill="white"/>
</g>
<rect width="384" height="142" transform="translate(0 320)" fill="#68F394"/>
<path d="M93.7354 384.036V398.911H92.2246V391.274H90.4482V398.181H88.9541V384.318H90.4482V389.946H92.2246V384.036H93.7354ZM85.4014 387.971C85.4014 390.644 86.4141 393.067 88.5723 394.18L87.6426 395.392C86.1816 394.603 85.2021 393.217 84.6709 391.49C84.1646 393.449 83.1768 395.01 81.666 395.906L80.6865 394.711C82.8613 393.482 83.874 390.926 83.874 387.971V387.008H81.085V385.729H87.9912V387.008H85.4014V387.971ZM100.127 386.892C100.127 388.519 101.173 390.162 103.099 390.893L102.269 392.104C100.882 391.573 99.9111 390.561 99.3799 389.332C98.832 390.718 97.811 391.922 96.375 392.536L95.5117 391.308C97.5205 390.428 98.5996 388.552 98.5996 386.892V384.966H100.127V386.892ZM108.262 384.053V393.2H106.768V389.216H105.024V392.735H103.563V384.318H105.024V387.921H106.768V384.053H108.262ZM103.281 393.482C106.386 393.482 108.328 394.495 108.345 396.188C108.328 397.882 106.386 398.895 103.281 398.878C100.177 398.895 98.2344 397.882 98.251 396.188C98.2344 394.495 100.177 393.482 103.281 393.482ZM103.281 394.694C101.123 394.694 99.7949 395.242 99.8115 396.188C99.7949 397.135 101.123 397.683 103.281 397.666C105.439 397.683 106.751 397.135 106.768 396.188C106.751 395.242 105.439 394.694 103.281 394.694ZM123.07 384.036V398.911H121.56V384.036H123.07ZM120.049 384.318V398.181H118.538V391.009H116.861C116.729 393.914 115.483 395.724 113.641 395.707C111.698 395.724 110.437 393.682 110.437 390.461C110.437 387.24 111.698 385.215 113.641 385.231C115.45 385.215 116.679 386.933 116.861 389.73H118.538V384.318H120.049ZM113.641 386.709C112.562 386.709 111.897 388.087 111.897 390.461C111.897 392.835 112.562 394.213 113.641 394.213C114.736 394.213 115.417 392.835 115.417 390.461C115.417 388.087 114.736 386.709 113.641 386.709ZM137.381 384.036V398.944H135.804V390.129H131.371V388.834H135.804V384.036H137.381ZM127.354 385.68V394.047C129.479 394.014 131.487 393.889 133.646 393.449L133.845 394.744C131.454 395.242 129.296 395.358 126.955 395.358H125.76V385.68H127.354ZM145.134 388.419C145.134 390.909 146.761 393.482 149.052 394.462L148.188 395.69C146.437 394.918 145.042 393.283 144.354 391.291C143.665 393.416 142.262 395.226 140.535 396.072L139.622 394.827C141.863 393.781 143.523 390.976 143.54 388.419V386.842H140.137V385.53H148.521V386.842H145.134V388.419ZM151.974 384.036V398.911H150.396V384.036H151.974ZM170.866 384.036V398.911H169.272V384.036H170.866ZM166.434 385.63C166.434 389.979 164.574 393.765 159.478 396.205L158.647 394.927C162.607 393.042 164.533 390.361 164.84 386.892H159.361V385.63H166.434ZM184.878 384.053V388.436H187.036V389.764H184.878V394.977H183.301V384.053H184.878ZM185.509 397.317V398.596H175.448V393.897H177.025V397.317H185.509ZM175.315 385.115V387.489H179.217V385.115H180.777V392.52H173.771V385.115H175.315ZM175.315 391.258H179.217V388.734H175.315V391.258ZM194.656 384.933C197.777 384.933 200.151 386.576 200.151 389.083C200.151 391.59 197.777 393.25 194.656 393.233C191.535 393.25 189.178 391.59 189.178 389.083C189.178 386.576 191.535 384.933 194.656 384.933ZM194.656 386.211C192.382 386.194 190.672 387.356 190.688 389.083C190.672 390.826 192.382 391.938 194.656 391.938C196.931 391.938 198.624 390.826 198.624 389.083C198.624 387.356 196.931 386.194 194.656 386.211ZM201.496 395.674V396.985H187.883V395.674H201.496ZM216.188 395.807V397.135H202.575V395.807H208.568V393.2H204.235V388.469H212.968V386.377H204.202V385.082H214.528V389.73H205.796V391.905H214.877V393.2H210.129V395.807H216.188ZM230.233 389.398C229.935 387.854 228.656 386.991 227.129 386.991C225.054 386.991 223.51 388.585 223.51 391.49C223.51 394.412 225.07 395.989 227.129 395.989C228.64 395.989 229.918 395.143 230.233 393.615L232.076 393.632C231.694 396.006 229.752 397.666 227.112 397.666C223.975 397.666 221.7 395.325 221.7 391.49C221.7 387.639 223.991 385.314 227.112 385.314C229.652 385.314 231.661 386.809 232.076 389.398H230.233ZM244.494 391.49C244.494 395.325 242.187 397.666 239.082 397.666C235.944 397.666 233.653 395.325 233.653 391.49C233.653 387.639 235.944 385.314 239.082 385.314C242.187 385.314 244.494 387.639 244.494 391.49ZM242.685 391.49C242.685 388.568 241.141 386.991 239.082 386.991C237.007 386.991 235.463 388.568 235.463 391.49C235.463 394.412 237.007 395.989 239.082 395.989C241.141 395.989 242.685 394.412 242.685 391.49ZM246.387 397.5V396.172L250.554 391.972C251.865 390.594 252.529 389.83 252.529 388.784C252.529 387.605 251.566 386.842 250.305 386.842C248.977 386.842 248.113 387.688 248.113 388.967H246.387C246.37 386.775 248.047 385.314 250.338 385.314C252.662 385.314 254.256 386.775 254.272 388.734C254.256 390.079 253.625 391.142 251.367 393.366L248.927 395.84V395.939H254.472V397.5H246.387ZM267.936 385.464V395.242H260.963V385.464H267.936ZM262.523 386.709V393.964H266.408V386.709H262.523ZM272.451 384.036V398.944H270.874V384.036H272.451ZM276.95 384.667V386.692H280.852V384.667H282.412V391.158H275.406V384.667H276.95ZM276.95 389.896H280.852V387.904H276.95V389.896ZM286.513 384.036V387.157H288.671V388.436H286.513V391.689H284.936V384.036H286.513ZM286.513 392.337V396.089H278.478V397.5H287.027V398.762H276.934V394.927H284.952V393.582H276.9V392.337H286.513ZM294.066 386.892C294.066 388.519 295.112 390.162 297.038 390.893L296.208 392.104C294.822 391.573 293.851 390.561 293.319 389.332C292.771 390.718 291.75 391.922 290.314 392.536L289.451 391.308C291.46 390.428 292.539 388.552 292.539 386.892V384.966H294.066V386.892ZM302.201 384.053V393.2H300.707V389.216H298.964V392.735H297.503V384.318H298.964V387.921H300.707V384.053H302.201ZM297.221 393.482C300.325 393.482 302.268 394.495 302.284 396.188C302.268 397.882 300.325 398.895 297.221 398.878C294.116 398.895 292.174 397.882 292.19 396.188C292.174 394.495 294.116 393.482 297.221 393.482ZM297.221 394.694C295.062 394.694 293.734 395.242 293.751 396.188C293.734 397.135 295.062 397.683 297.221 397.666C299.379 397.683 300.69 397.135 300.707 396.188C300.69 395.242 299.379 394.694 297.221 394.694Z" fill="black"/>
<defs>
<clipPath id="clip0_504_1624">
<rect width="149.845" height="135.174" fill="white" transform="translate(196)"/>
</clipPath>
</defs>
</svg>
